AnekGujarati-ExpandedMedium.ufo
<glyph name="equal" format="2">
  <advance width="1355"/>
  <unicode hex="003D"/>
  <outline>
    <contour>
      <point x="155" y="283" type="line"/>
      <point x="1200" y="283" type="line"/>
      <point x="1200" y="455" type="line"/>
      <point x="155" y="455" type="line"/>
    </contour>
    <contour>
      <point x="155" y="759" type="line"/>
      <point x="1200" y="759" type="line"/>
      <point x="1200" y="931" type="line"/>
      <point x="155" y="931" type="line"/>
    </contour>
  </outline>
</glyph>
<glyph name="Eth" format="2">
  <advance width="1635"/>
  <unicode hex="00D0"/>
  <anchor x="798" y="0" name="bottom"/>
  <anchor x="818" y="639" name="center"/>
  <anchor x="798" y="1278" name="top"/>
  <outline>
    <contour>
      <point x="-3" y="569" type="line"/>
      <point x="857" y="568" type="line"/>
      <point x="857" y="732" type="line"/>
      <point x="-3" y="733" type="line"/>
    </contour>
    <component base="D"/>
  </outline>
</glyph>
<glyph name="germandbls" format="2">
  <advance width="1468"/>
  <unicode hex="00DF"/>
  <anchor x="704" y="0" name="bottom"/>
  <anchor x="704" y="958" name="top"/>
  <outline>
    <contour>
      <point x="160" y="916" type="curve" smooth="yes"/>
      <point x="160" y="0" type="line"/>
      <point x="377" y="0" type="line"/>
      <point x="377" y="911" type="line" smooth="yes"/>
      <point x="377" y="1077"/>
      <point x="440" y="1180"/>
      <point x="645" y="1180" type="curve" smooth="yes"/>
      <point x="798" y="1180"/>
      <point x="882" y="1130"/>
      <point x="882" y="1055" type="curve"/>
      <point x="882" y="930"/>
      <point x="613" y="878"/>
      <point x="612" y="681" type="curve"/>
      <point x="612" y="673" type="line"/>
      <point x="612" y="524"/>
      <point x="708" y="460"/>
      <point x="935" y="420" type="curve" smooth="yes"/>
      <point x="1098" y="391"/>
      <point x="1164" y="370"/>
      <point x="1164" y="284" type="curve" smooth="yes"/>
      <point x="1164" y="278" type="line" smooth="yes"/>
      <point x="1164" y="193"/>
      <point x="1081" y="151"/>
      <point x="919" y="151" type="curve" smooth="yes"/>
      <point x="802" y="151"/>
      <point x="696" y="176"/>
      <point x="592" y="213" type="curve"/>
      <point x="615" y="25" type="line"/>
      <point x="704" y="-2"/>
      <point x="814" y="-22"/>
      <point x="943" y="-22" type="curve" smooth="yes"/>
      <point x="1210" y="-22"/>
      <point x="1378" y="74"/>
      <point x="1378" y="280" type="curve"/>
      <point x="1378" y="287" type="line"/>
      <point x="1378" y="475"/>
      <point x="1263" y="534"/>
      <point x="1033" y="577" type="curve" smooth="yes"/>
      <point x="878" y="606"/>
      <point x="829" y="625"/>
      <point x="829" y="690" type="curve"/>
      <point x="829" y="692" type="line"/>
      <point x="829" y="799"/>
      <point x="1098" y="850"/>
      <point x="1098" y="1054" type="curve"/>
      <point x="1098" y="1256"/>
      <point x="899" y="1350"/>
      <point x="644" y="1350" type="curve" smooth="yes"/>
      <point x="287" y="1350"/>
      <point x="160" y="1193"/>
    </contour>
  </outline>
</glyph>
<glyph name="Doubledanda.gj" format="2">
  <advance width="1250"/>
  <unicode hex="0965"/>
  <anchor x="906" y="-87" name="Bottom"/>
  <anchor x="886" y="1259" name="Top"/>
  <anchor x="937" y="1259" name="Top2"/>
  <outline>
    <contour>
      <point x="205" y="481" type="line"/>
      <point x="420" y="481" type="line"/>
      <point x="420" y="1172" type="line"/>
      <point x="205" y="1172" type="line"/>
    </contour>
    <contour>
      <point x="205" y="0" type="line"/>
      <point x="420" y="0" type="line"/>
      <point x="420" y="590" type="line"/>
      <point x="205" y="590" type="line"/>
    </contour>
    <contour>
      <point x="830" y="481" type="line"/>
      <point x="1045" y="481" type="line"/>
      <point x="1045" y="1172" type="line"/>
      <point x="830" y="1172" type="line"/>
    </contour>
    <contour>
      <point x="830" y="0" type="line"/>
      <point x="1045" y="0" type="line"/>
      <point x="1045" y="590" type="line"/>
      <point x="830" y="590" type="line"/>
    </contour>
  </outline>
</glyph>
<glyph name="Chandrabindu.gj" format="2">
  <unicode hex="0A81"/>
  <guideline x="542" y="1390" angle="270"/>
  <guideline x="691" y="1259" angle="0"/>
  <anchor x="542" y="1259" name="_Top2"/>
  <outline>
    <contour>
      <point x="542" y="1316" type="curve" smooth="yes"/>
      <point x="830" y="1316"/>
      <point x="981" y="1432"/>
      <point x="981" y="1645" type="curve" smooth="yes"/>
      <point x="981" y="1655"/>
      <point x="981" y="1664"/>
      <point x="979" y="1684" type="curve"/>
      <point x="799" y="1684" type="line"/>
      <point x="799" y="1666" type="line" smooth="yes"/>
      <point x="799" y="1534"/>
      <point x="709" y="1464"/>
      <point x="542" y="1464" type="curve" smooth="yes"/>
      <point x="370" y="1464"/>
      <point x="285" y="1535"/>
      <point x="285" y="1666" type="curve" smooth="yes"/>
      <point x="285" y="1684" type="line"/>
      <point x="105" y="1684" type="line"/>
      <point x="103" y="1664"/>
      <point x="103" y="1655"/>
      <point x="103" y="1645" type="curve" smooth="yes"/>
      <point x="103" y="1432"/>
      <point x="249" y="1316"/>
    </contour>
    <contour>
      <point x="542" y="1591" type="curve" smooth="yes"/>
      <point x="624" y="1591"/>
      <point x="665" y="1640"/>
      <point x="665" y="1706" type="curve" smooth="yes"/>
      <point x="665" y="1711" type="line" smooth="yes"/>
      <point x="665" y="1777"/>
      <point x="624" y="1826"/>
      <point x="542" y="1826" type="curve" smooth="yes"/>
      <point x="458" y="1826"/>
      <point x="419" y="1777"/>
      <point x="419" y="1711" type="curve" smooth="yes"/>
      <point x="419" y="1706" type="line" smooth="yes"/>
      <point x="419" y="1640"/>
      <point x="458" y="1591"/>
    </contour>
  </outline>
</glyph>
<glyph name="Bindu.gj" format="2">
  <unicode hex="0A82"/>
  <anchor x="251" y="1259" name="_Top2"/>
  <outline>
    <contour>
      <point x="251" y="1371" type="curve" smooth="yes"/>
      <point x="357" y="1371"/>
      <point x="401" y="1422"/>
      <point x="401" y="1496" type="curve" smooth="yes"/>
      <point x="401" y="1500" type="line" smooth="yes"/>
      <point x="401" y="1574"/>
      <point x="353" y="1624"/>
      <point x="251" y="1624" type="curve" smooth="yes"/>
      <point x="149" y="1624"/>
      <point x="100" y="1572"/>
      <point x="100" y="1500" type="curve" smooth="yes"/>
      <point x="100" y="1496" type="line" smooth="yes"/>
      <point x="100" y="1422"/>
      <point x="146" y="1371"/>
    </contour>
  </outline>
</glyph>
<glyph name="Visarga.gj" format="2">
  <advance width="642"/>
  <unicode hex="0A83"/>
  <anchor x="322" y="83" name="_Top2"/>
  <outline>
    <contour>
      <point x="322" y="195" type="curve" smooth="yes"/>
      <point x="428" y="195"/>
      <point x="472" y="246"/>
      <point x="472" y="320" type="curve" smooth="yes"/>
      <point x="472" y="324" type="line" smooth="yes"/>
      <point x="472" y="398"/>
      <point x="424" y="448"/>
      <point x="322" y="448" type="curve" smooth="yes"/>
      <point x="220" y="448"/>
      <point x="171" y="396"/>
      <point x="171" y="324" type="curve" smooth="yes"/>
      <point x="171" y="320" type="line" smooth="yes"/>
      <point x="171" y="246"/>
      <point x="217" y="195"/>
    </contour>
    <contour>
      <point x="322" y="767" type="curve" smooth="yes"/>
      <point x="428" y="767"/>
      <point x="472" y="818"/>
      <point x="472" y="892" type="curve" smooth="yes"/>
      <point x="472" y="896" type="line" smooth="yes"/>
      <point x="472" y="970"/>
      <point x="424" y="1020"/>
      <point x="322" y="1020" type="curve" smooth="yes"/>
      <point x="220" y="1020"/>
      <point x="171" y="968"/>
      <point x="171" y="896" type="curve" smooth="yes"/>
      <point x="171" y="892" type="line" smooth="yes"/>
      <point x="171" y="818"/>
      <point x="217" y="767"/>
    </contour>
  </outline>
</glyph>
<glyph name="VowelI.gj" format="2">
  <advance width="1735"/>
  <unicode hex="0A87"/>
  <guideline x="897" y="1677" angle="0"/>
  <anchor x="691" y="1259" name="Top2"/>
  <outline>
    <contour>
      <point x="1332" y="767" type="line"/>
      <point x="1547" y="767" type="line"/>
      <point x="1547" y="1647" type="line"/>
      <point x="1332" y="1615" type="line"/>
    </contour>
    <contour>
      <point x="794" y="-26" type="curve" smooth="yes"/>
      <point x="1292" y="-26"/>
      <point x="1547" y="177"/>
      <point x="1547" y="590" type="curve" smooth="yes"/>
      <point x="1547" y="779" type="line"/>
      <point x="1332" y="779" type="line"/>
      <point x="1332" y="599" type="line" smooth="yes"/>
      <point x="1332" y="299"/>
      <point x="1149" y="153"/>
      <point x="794" y="153" type="curve" smooth="yes"/>
      <point x="507" y="153"/>
      <point x="372" y="215"/>
      <point x="372" y="360" type="curve" smooth="yes"/>
      <point x="372" y="361" type="line" smooth="yes"/>
      <point x="372" y="477"/>
      <point x="464" y="525"/>
      <point x="660" y="528" type="curve" smooth="yes"/>
      <point x="940" y="532" type="line"/>
      <point x="940" y="700" type="line"/>
      <point x="657" y="706" type="line" smooth="yes"/>
      <point x="463" y="710"/>
      <point x="375" y="752"/>
      <point x="375" y="858" type="curve" smooth="yes"/>
      <point x="375" y="860" type="line" smooth="yes"/>
      <point x="375" y="980"/>
      <point x="486" y="1033"/>
      <point x="699" y="1033" type="curve" smooth="yes"/>
      <point x="846" y="1033"/>
      <point x="950" y="1009"/>
      <point x="1027" y="979" type="curve"/>
      <point x="1007" y="1146" type="line"/>
      <point x="934" y="1173"/>
      <point x="813" y="1204"/>
      <point x="648" y="1204" type="curve" smooth="yes"/>
      <point x="329" y="1204"/>
      <point x="148" y="1105"/>
      <point x="148" y="890" type="curve" smooth="yes"/>
      <point x="148" y="888" type="line" smooth="yes"/>
      <point x="148" y="717"/>
      <point x="254" y="639"/>
      <point x="469" y="620" type="curve"/>
      <point x="469" y="616" type="line"/>
      <point x="258" y="598"/>
      <point x="145" y="514"/>
      <point x="145" y="342" type="curve" smooth="yes"/>
      <point x="145" y="337" type="line" smooth="yes"/>
      <point x="145" y="95"/>
      <point x="364" y="-26"/>
    </contour>
  </outline>
</glyph>
<glyph name="VowelU.gj" format="2">
  <advance width="1720"/>
  <unicode hex="0A89"/>
  <anchor x="1039" y="1734" name="Top2"/>
  <outline>
    <contour>
      <point x="148" y="765" type="line"/>
      <point x="375" y="765" type="line"/>
      <point x="375" y="783" type="line" smooth="yes"/>
      <point x="375" y="1258"/>
      <point x="603" y="1498"/>
      <point x="1051" y="1498" type="curve" smooth="yes"/>
      <point x="1147" y="1498"/>
      <point x="1226" y="1487"/>
      <point x="1292" y="1472" type="curve"/>
      <point x="1272" y="1644" type="line"/>
      <point x="1209" y="1663"/>
      <point x="1124" y="1677"/>
      <point x="1027" y="1677" type="curve" smooth="yes"/>
      <point x="458" y="1677"/>
      <point x="148" y="1378"/>
      <point x="148" y="792" type="curve" smooth="yes"/>
    </contour>
    <contour>
      <point x="971" y="-26" type="curve" smooth="yes"/>
      <point x="1377" y="-26"/>
      <point x="1583" y="94"/>
      <point x="1583" y="334" type="curve" smooth="yes"/>
      <point x="1583" y="343" type="line" smooth="yes"/>
      <point x="1583" y="514"/>
      <point x="1467" y="598"/>
      <point x="1248" y="616" type="curve"/>
      <point x="1248" y="620" type="line"/>
      <point x="1461" y="639"/>
      <point x="1566" y="717"/>
      <point x="1566" y="888" type="curve" smooth="yes"/>
      <point x="1566" y="893" type="line" smooth="yes"/>
      <point x="1566" y="1101"/>
      <point x="1387" y="1204"/>
      <point x="1083" y="1204" type="curve" smooth="yes"/>
      <point x="919" y="1204"/>
      <point x="794" y="1171"/>
      <point x="717" y="1141" type="curve"/>
      <point x="690" y="965" type="line"/>
      <point x="786" y="1000"/>
      <point x="908" y="1033"/>
      <point x="1042" y="1033" type="curve" smooth="yes"/>
      <point x="1235" y="1033"/>
      <point x="1339" y="975"/>
      <point x="1339" y="863" type="curve" smooth="yes"/>
      <point x="1339" y="858" type="line" smooth="yes"/>
      <point x="1339" y="750"/>
      <point x="1250" y="710"/>
      <point x="1048" y="706" type="curve" smooth="yes"/>
      <point x="774" y="700" type="line"/>
      <point x="774" y="532" type="line"/>
      <point x="1046" y="528" type="line" smooth="yes"/>
      <point x="1259" y="525"/>
      <point x="1356" y="477"/>
      <point x="1356" y="362" type="curve" smooth="yes"/>
      <point x="1356" y="357" type="line" smooth="yes"/>
      <point x="1356" y="210"/>
      <point x="1232" y="147"/>
      <point x="971" y="147" type="curve" smooth="yes"/>
      <point x="571" y="147"/>
      <point x="375" y="338"/>
      <point x="375" y="762" type="curve" smooth="yes"/>
      <point x="375" y="774" type="line"/>
      <point x="148" y="774" type="line"/>
      <point x="148" y="762" type="line" smooth="yes"/>
      <point x="148" y="224"/>
      <point x="421" y="-26"/>
    </contour>
  </outline>
</glyph>
<glyph name="VowelUu.gj" format="2">
  <advance width="2330"/>
  <unicode hex="0A8A"/>
  <anchor x="1157" y="1734" name="Top2"/>
  <outline>
    <contour>
      <point x="1909" y="0" type="line"/>
      <point x="2125" y="0" type="line"/>
      <point x="2125" y="787" type="line" smooth="yes"/>
      <point x="2125" y="1378"/>
      <point x="1768" y="1677"/>
      <point x="1140" y="1677" type="curve" smooth="yes"/>
      <point x="496" y="1677"/>
      <point x="148" y="1374"/>
      <point x="148" y="777" type="curve" smooth="yes"/>
      <point x="148" y="767" type="line"/>
      <point x="375" y="767" type="line"/>
      <point x="375" y="777" type="line" smooth="yes"/>
      <point x="375" y="1256"/>
      <point x="632" y="1498"/>
      <point x="1140" y="1498" type="curve" smooth="yes"/>
      <point x="1646" y="1498"/>
      <point x="1909" y="1257"/>
      <point x="1909" y="782" type="curve" smooth="yes"/>
    </contour>
    <contour>
      <point x="971" y="-26" type="curve" smooth="yes"/>
      <point x="1377" y="-26"/>
      <point x="1583" y="94"/>
      <point x="1583" y="334" type="curve" smooth="yes"/>
      <point x="1583" y="343" type="line" smooth="yes"/>
      <point x="1583" y="514"/>
      <point x="1467" y="598"/>
      <point x="1248" y="616" type="curve"/>
      <point x="1248" y="620" type="line"/>
      <point x="1461" y="639"/>
      <point x="1566" y="717"/>
      <point x="1566" y="888" type="curve" smooth="yes"/>
      <point x="1566" y="893" type="line" smooth="yes"/>
      <point x="1566" y="1101"/>
      <point x="1387" y="1204"/>
      <point x="1083" y="1204" type="curve" smooth="yes"/>
      <point x="919" y="1204"/>
      <point x="794" y="1171"/>
      <point x="717" y="1141" type="curve"/>
      <point x="690" y="965" type="line"/>
      <point x="786" y="1000"/>
      <point x="908" y="1033"/>
      <point x="1042" y="1033" type="curve" smooth="yes"/>
      <point x="1235" y="1033"/>
      <point x="1339" y="975"/>
      <point x="1339" y="863" type="curve" smooth="yes"/>
      <point x="1339" y="858" type="line" smooth="yes"/>
      <point x="1339" y="750"/>
      <point x="1250" y="710"/>
      <point x="1048" y="706" type="curve" smooth="yes"/>
      <point x="774" y="700" type="line"/>
      <point x="774" y="532" type="line"/>
      <point x="1046" y="528" type="line" smooth="yes"/>
      <point x="1259" y="525"/>
      <point x="1356" y="477"/>
      <point x="1356" y="362" type="curve" smooth="yes"/>
      <point x="1356" y="357" type="line" smooth="yes"/>
      <point x="1356" y="210"/>
      <point x="1232" y="147"/>
      <point x="971" y="147" type="curve" smooth="yes"/>
      <point x="571" y="147"/>
      <point x="375" y="338"/>
      <point x="375" y="762" type="curve" smooth="yes"/>
      <point x="375" y="774" type="line"/>
      <point x="148" y="774" type="line"/>
      <point x="148" y="762" type="line" smooth="yes"/>
      <point x="148" y="224"/>
      <point x="421" y="-26"/>
    </contour>
  </outline>
</glyph>
<glyph name="VowelRu.gj" format="2">
  <advance width="2273"/>
  <unicode hex="0A8B"/>
  <guideline x="1555" y="200" angle="277.0379"/>
  <guideline x="1545" y="281" angle="0"/>
  <guideline x="1733" y="240" angle="90"/>
  <guideline x="1794" y="78" angle="90"/>
  <anchor x="1149" y="-87" name="Bottom"/>
  <anchor x="1129" y="1259" name="Top"/>
  <anchor x="1180" y="1259" name="Top2"/>
  <outline>
    <contour>
      <point x="1781" y="75" type="curve" smooth="yes"/>
      <point x="2017" y="75"/>
      <point x="2144" y="175"/>
      <point x="2144" y="369" type="curve" smooth="yes"/>
      <point x="2144" y="372" type="line" smooth="yes"/>
      <point x="2144" y="534"/>
      <point x="2065" y="649"/>
      <point x="1894" y="741" type="curve"/>
      <point x="1747" y="656" type="line"/>
      <point x="1871" y="591"/>
      <point x="1924" y="512"/>
      <point x="1924" y="403" type="curve" smooth="yes"/>
      <point x="1924" y="400" type="line" smooth="yes"/>
      <point x="1924" y="298"/>
      <point x="1856" y="243"/>
      <point x="1743" y="243" type="curve" smooth="yes"/>
      <point x="1659" y="243"/>
      <point x="1592" y="267"/>
      <point x="1543" y="291" type="curve"/>
      <point x="1564" y="123" type="line"/>
      <point x="1614" y="99"/>
      <point x="1687" y="75"/>
    </contour>
    <contour>
      <point x="387" y="370" type="curve"/>
      <point x="650" y="420" type="line"/>
      <point x="639" y="452" type="line"/>
      <point x="739" y="508"/>
      <point x="797" y="602"/>
      <point x="797" y="728" type="curve" smooth="yes"/>
      <point x="797" y="733" type="line" smooth="yes"/>
      <point x="797" y="916"/>
      <point x="673" y="1031"/>
      <point x="429" y="1031" type="curve" smooth="yes"/>
      <point x="305" y="1031"/>
      <point x="211" y="998"/>
      <point x="150" y="964" type="curve"/>
      <point x="132" y="782" type="line"/>
      <point x="192" y="819"/>
      <point x="274" y="853"/>
      <point x="375" y="853" type="curve" smooth="yes"/>
      <point x="511" y="853"/>
      <point x="580" y="779"/>
      <point x="580" y="655" type="curve" smooth="yes"/>
      <point x="580" y="650" type="line" smooth="yes"/>
      <point x="580" y="521"/>
      <point x="518" y="435"/>
    </contour>
    <contour>
      <point x="129" y="115" type="line"/>
      <point x="1105" y="423" type="line"/>
      <point x="1105" y="599" type="line"/>
      <point x="801" y="498" type="line" smooth="yes"/>
      <point x="730" y="474"/>
      <point x="659" y="448"/>
      <point x="585" y="421" type="curve"/>
      <point x="567" y="431" type="line"/>
      <point x="129" y="300" type="line"/>
    </contour>
    <contour>
      <point x="1254" y="459" type="line"/>
      <point x="1869" y="662" type="line"/>
      <point x="1827" y="822" type="line"/>
      <point x="1254" y="635" type="line"/>
    </contour>
    <contour>
      <point x="1714" y="679" type="line"/>
      <point x="1927" y="705" type="line"/>
      <point x="1996" y="790" type="line"/>
      <point x="1981" y="882"/>
      <point x="1956" y="963"/>
      <point x="1919" y="1045" type="curve"/>
      <point x="1714" y="1045" type="line"/>
    </contour>
    <contour>
      <point x="1073" y="481" type="line"/>
      <point x="1288" y="481" type="line"/>
      <point x="1288" y="1172" type="line"/>
      <point x="1073" y="1172" type="line"/>
    </contour>
    <contour>
      <point x="1073" y="0" type="line"/>
      <point x="1288" y="0" type="line"/>
      <point x="1288" y="590" type="line"/>
      <point x="1073" y="590" type="line"/>
    </contour>
  </outline>
</glyph>
<glyph name="VowelLru.gj" format="2">
  <advance width="1981"/>
  <unicode hex="0A8C"/>
  <anchor x="1419" y="1259" name="Top2"/>
  <outline>
    <contour>
      <point x="1521" y="-485" type="curve" smooth="yes"/>
      <point x="1648" y="-485"/>
      <point x="1742" y="-457"/>
      <point x="1814" y="-421" type="curve"/>
      <point x="1836" y="-229" type="line"/>
      <point x="1755" y="-273"/>
      <point x="1658" y="-309"/>
      <point x="1542" y="-309" type="curve" smooth="yes"/>
      <point x="1431" y="-309"/>
      <point x="1357" y="-270"/>
      <point x="1357" y="-184" type="curve" smooth="yes"/>
      <point x="1357" y="-181" type="line" smooth="yes"/>
      <point x="1357" y="33"/>
      <point x="1850" y="66"/>
      <point x="1850" y="500" type="curve" smooth="yes"/>
      <point x="1850" y="503" type="line" smooth="yes"/>
      <point x="1850" y="753"/>
      <point x="1702" y="930"/>
      <point x="1383" y="930" type="curve" smooth="yes"/>
      <point x="1157" y="930"/>
      <point x="1028" y="820"/>
      <point x="1001" y="665" type="curve"/>
      <point x="978" y="665" type="line"/>
      <point x="976" y="289" type="line"/>
      <point x="1101" y="289" type="line"/>
      <point x="1107" y="456" type="line" smooth="yes"/>
      <point x="1114" y="662"/>
      <point x="1200" y="752"/>
      <point x="1368" y="752" type="curve" smooth="yes"/>
      <point x="1541" y="752"/>
      <point x="1623" y="647"/>
      <point x="1623" y="501" type="curve" smooth="yes"/>
      <point x="1623" y="498" type="line" smooth="yes"/>
      <point x="1623" y="168"/>
      <point x="1132" y="171"/>
      <point x="1132" y="-177" type="curve" smooth="yes"/>
      <point x="1132" y="-180" type="line" smooth="yes"/>
      <point x="1132" y="-385"/>
      <point x="1285" y="-485"/>
    </contour>
    <contour>
      <point x="388" y="0" type="curve"/>
      <point x="668" y="0" type="line"/>
      <point x="668" y="6" type="line"/>
      <point x="478" y="146"/>
      <point x="375" y="301"/>
      <point x="375" y="478" type="curve" smooth="yes"/>
      <point x="375" y="485" type="line" smooth="yes"/>
      <point x="375" y="641"/>
      <point x="461" y="752"/>
      <point x="640" y="752" type="curve" smooth="yes"/>
      <point x="795" y="752"/>
      <point x="881" y="662"/>
      <point x="888" y="456" type="curve" smooth="yes"/>
      <point x="894" y="289" type="line"/>
      <point x="1024" y="289" type="line"/>
      <point x="994" y="665" type="line"/>
      <point x="968" y="820"/>
      <point x="853" y="931"/>
      <point x="630" y="931" type="curve" smooth="yes"/>
      <point x="306" y="931"/>
      <point x="148" y="747"/>
      <point x="148" y="499" type="curve" smooth="yes"/>
      <point x="148" y="484" type="line" smooth="yes"/>
      <point x="148" y="291"/>
      <point x="233" y="124"/>
    </contour>
    <contour>
      <point x="1311" y="819" type="line"/>
      <point x="1526" y="819" type="line"/>
      <point x="1526" y="1172" type="line"/>
      <point x="1311" y="1172" type="line"/>
    </contour>
  </outline>
</glyph>
<glyph name="VowelChadraE.gj" format="2">
  <advance width="2223"/>
  <unicode hex="0A8D"/>
  <anchor x="1879" y="-87" name="Bottom"/>
  <anchor x="1859" y="1259" name="Top"/>
  <anchor x="1910" y="1259" name="Top2"/>
  <outline>
    <contour>
      <point x="872" y="60" type="curve" smooth="yes"/>
      <point x="1224" y="60"/>
      <point x="1416" y="230"/>
      <point x="1416" y="540" type="curve" smooth="yes"/>
      <point x="1416" y="992" type="line"/>
      <point x="1201" y="992" type="line"/>
      <point x="1201" y="544" type="line" smooth="yes"/>
      <point x="1201" y="345"/>
      <point x="1084" y="237"/>
      <point x="872" y="237" type="curve" smooth="yes"/>
      <point x="666" y="237"/>
      <point x="542" y="334"/>
      <point x="522" y="513" type="curve" smooth="yes"/>
      <point x="517" y="559" type="line"/>
      <point x="298" y="546" type="line"/>
      <point x="304" y="498" type="line" smooth="yes"/>
      <point x="333" y="216"/>
      <point x="522" y="60"/>
    </contour>
    <contour>
      <point x="343" y="433" type="line"/>
      <point x="351" y="461" type="line"/>
      <point x="472" y="461" type="line"/>
      <point x="739" y="461"/>
      <point x="897" y="595"/>
      <point x="897" y="826" type="curve" smooth="yes"/>
      <point x="897" y="839" type="line" smooth="yes"/>
      <point x="897" y="1082"/>
      <point x="728" y="1204"/>
      <point x="456" y="1204" type="curve" smooth="yes"/>
      <point x="326" y="1204"/>
      <point x="218" y="1176"/>
      <point x="142" y="1135" type="curve"/>
      <point x="124" y="963" type="line"/>
      <point x="208" y="1006"/>
      <point x="308" y="1031"/>
      <point x="423" y="1031" type="curve" smooth="yes"/>
      <point x="585" y="1031"/>
      <point x="678" y="964"/>
      <point x="678" y="835" type="curve" smooth="yes"/>
      <point x="678" y="826" type="line" smooth="yes"/>
      <point x="678" y="687"/>
      <point x="573" y="621"/>
      <point x="386" y="621" type="curve" smooth="yes"/>
      <point x="95" y="621" type="line"/>
      <point x="95" y="467" type="line"/>
    </contour>
    <contour>
      <point x="1803" y="481" type="line"/>
      <point x="2018" y="481" type="line"/>
      <point x="2018" y="1172" type="line"/>
      <point x="1803" y="1172" type="line"/>
    </contour>
    <contour>
      <point x="1803" y="0" type="line"/>
      <point x="2018" y="0" type="line"/>
      <point x="2018" y="590" type="line"/>
      <point x="1803" y="590" type="line"/>
    </contour>
    <contour>
      <point x="1335" y="504" type="line"/>
      <point x="1940" y="504" type="line"/>
      <point x="1921" y="679" type="line"/>
      <point x="1335" y="679" type="line"/>
    </contour>
    <contour>
      <point x="1929" y="1259" type="curve" smooth="yes"/>
      <point x="2021" y="1259"/>
      <point x="2087" y="1284"/>
      <point x="2128" y="1313" type="curve"/>
      <point x="2128" y="1489" type="line"/>
      <point x="2094" y="1462"/>
      <point x="2032" y="1433"/>
      <point x="1946" y="1433" type="curve" smooth="yes"/>
      <point x="1851" y="1433"/>
      <point x="1766" y="1464"/>
      <point x="1637" y="1555" type="curve" smooth="yes"/>
      <point x="1210" y="1858" type="line"/>
      <point x="1088" y="1678" type="line"/>
      <point x="1531" y="1397" type="line" smooth="yes"/>
      <point x="1692" y="1295"/>
      <point x="1806" y="1259"/>
    </contour>
  </outline>
</glyph>
<glyph name="VowelChandraO.gj" format="2">
  <advance width="2848"/>
  <unicode hex="0A91"/>
  <anchor x="2504" y="-87" name="Bottom"/>
  <anchor x="2484" y="1259" name="Top"/>
  <anchor x="2535" y="1259" name="Top2"/>
  <outline>
    <contour>
      <point x="872" y="60" type="curve" smooth="yes"/>
      <point x="1224" y="60"/>
      <point x="1416" y="230"/>
      <point x="1416" y="540" type="curve" smooth="yes"/>
      <point x="1416" y="992" type="line"/>
      <point x="1201" y="992" type="line"/>
      <point x="1201" y="544" type="line" smooth="yes"/>
      <point x="1201" y="345"/>
      <point x="1084" y="237"/>
      <point x="872" y="237" type="curve" smooth="yes"/>
      <point x="666" y="237"/>
      <point x="542" y="334"/>
      <point x="522" y="513" type="curve" smooth="yes"/>
      <point x="517" y="559" type="line"/>
      <point x="298" y="546" type="line"/>
      <point x="304" y="498" type="line" smooth="yes"/>
      <point x="333" y="216"/>
      <point x="522" y="60"/>
    </contour>
    <contour>
      <point x="343" y="433" type="line"/>
      <point x="351" y="461" type="line"/>
      <point x="472" y="461" type="line"/>
      <point x="739" y="461"/>
      <point x="897" y="595"/>
      <point x="897" y="826" type="curve" smooth="yes"/>
      <point x="897" y="839" type="line" smooth="yes"/>
      <point x="897" y="1082"/>
      <point x="728" y="1204"/>
      <point x="456" y="1204" type="curve" smooth="yes"/>
      <point x="326" y="1204"/>
      <point x="218" y="1176"/>
      <point x="142" y="1135" type="curve"/>
      <point x="124" y="963" type="line"/>
      <point x="208" y="1006"/>
      <point x="308" y="1031"/>
      <point x="423" y="1031" type="curve" smooth="yes"/>
      <point x="585" y="1031"/>
      <point x="678" y="964"/>
      <point x="678" y="835" type="curve" smooth="yes"/>
      <point x="678" y="826" type="line" smooth="yes"/>
      <point x="678" y="687"/>
      <point x="573" y="621"/>
      <point x="386" y="621" type="curve" smooth="yes"/>
      <point x="95" y="621" type="line"/>
      <point x="95" y="467" type="line"/>
    </contour>
    <contour>
      <point x="1803" y="481" type="line"/>
      <point x="2018" y="481" type="line"/>
      <point x="2018" y="1172" type="line"/>
      <point x="1803" y="1172" type="line"/>
    </contour>
    <contour>
      <point x="1803" y="0" type="line"/>
      <point x="2018" y="0" type="line"/>
      <point x="2018" y="590" type="line"/>
      <point x="1803" y="590" type="line"/>
    </contour>
    <contour>
      <point x="1335" y="504" type="line"/>
      <point x="1940" y="504" type="line"/>
      <point x="1921" y="679" type="line"/>
      <point x="1335" y="679" type="line"/>
    </contour>
    <contour>
      <point x="2428" y="481" type="line"/>
      <point x="2643" y="481" type="line"/>
      <point x="2643" y="1172" type="line"/>
      <point x="2428" y="1172" type="line"/>
    </contour>
    <contour>
      <point x="2428" y="0" type="line"/>
      <point x="2643" y="0" type="line"/>
      <point x="2643" y="590" type="line"/>
      <point x="2428" y="590" type="line"/>
    </contour>
    <contour>
      <point x="2554" y="1259" type="curve" smooth="yes"/>
      <point x="2646" y="1259"/>
      <point x="2712" y="1284"/>
      <point x="2753" y="1313" type="curve"/>
      <point x="2753" y="1489" type="line"/>
      <point x="2719" y="1462"/>
      <point x="2657" y="1433"/>
      <point x="2571" y="1433" type="curve" smooth="yes"/>
      <point x="2476" y="1433"/>
      <point x="2391" y="1464"/>
      <point x="2262" y="1555" type="curve" smooth="yes"/>
      <point x="1835" y="1858" type="line"/>
      <point x="1713" y="1678" type="line"/>
      <point x="2156" y="1397" type="line" smooth="yes"/>
      <point x="2317" y="1295"/>
      <point x="2431" y="1259"/>
    </contour>
  </outline>
</glyph>
<glyph name="Kha.gj" format="2">
  <advance width="2015"/>
  <unicode hex="0A96"/>
  <anchor x="1671" y="-87" name="Bottom"/>
  <anchor x="1651" y="1259" name="Top"/>
  <anchor x="1702" y="1259" name="Top2"/>
  <outline>
    <contour>
      <point x="228" y="775" type="line"/>
      <point x="444" y="775" type="line"/>
      <point x="444" y="907" type="line" smooth="yes"/>
      <point x="444" y="1097"/>
      <point x="363" y="1183"/>
      <point x="203" y="1183" type="curve" smooth="yes"/>
      <point x="142" y="1183"/>
      <point x="90" y="1175"/>
      <point x="48" y="1163" type="curve"/>
      <point x="34" y="1004" type="line"/>
      <point x="62" y="1011"/>
      <point x="92" y="1016"/>
      <point x="120" y="1016" type="curve" smooth="yes"/>
      <point x="196" y="1016"/>
      <point x="228" y="970"/>
      <point x="228" y="881" type="curve" smooth="yes"/>
    </contour>
    <contour>
      <point x="691" y="103" type="curve" smooth="yes"/>
      <point x="998" y="103"/>
      <point x="1155" y="253"/>
      <point x="1155" y="547" type="curve" smooth="yes"/>
      <point x="1155" y="992" type="line"/>
      <point x="938" y="992" type="line"/>
      <point x="938" y="543" type="line" smooth="yes"/>
      <point x="938" y="368"/>
      <point x="854" y="282"/>
      <point x="691" y="282" type="curve" smooth="yes"/>
      <point x="528" y="282"/>
      <point x="444" y="368"/>
      <point x="444" y="543" type="curve" smooth="yes"/>
      <point x="444" y="799" type="line"/>
      <point x="228" y="799" type="line"/>
      <point x="228" y="547" type="line" smooth="yes"/>
      <point x="228" y="253"/>
      <point x="384" y="103"/>
    </contour>
    <contour>
      <point x="1057" y="517" type="line"/>
      <point x="1753" y="517" type="line"/>
      <point x="1734" y="692" type="line"/>
      <point x="1057" y="692" type="line"/>
    </contour>
    <contour>
      <point x="1595" y="481" type="line"/>
      <point x="1810" y="481" type="line"/>
      <point x="1810" y="1172" type="line"/>
      <point x="1595" y="1172" type="line"/>
    </contour>
    <contour>
      <point x="1595" y="0" type="line"/>
      <point x="1810" y="0" type="line"/>
      <point x="1810" y="590" type="line"/>
      <point x="1595" y="590" type="line"/>
    </contour>
  </outline>
</glyph>
<glyph name="Ga.gj" format="2">
  <advance width="1771"/>
  <unicode hex="0A97"/>
  <anchor x="1427" y="-87" name="Bottom"/>
  <anchor x="1407" y="1259" name="Top"/>
  <anchor x="1458" y="1259" name="Top2"/>
  <outline>
    <contour>
      <point x="1351" y="481" type="line"/>
      <point x="1566" y="481" type="line"/>
      <point x="1566" y="1172" type="line"/>
      <point x="1351" y="1172" type="line"/>
    </contour>
    <contour>
      <point x="1351" y="0" type="line"/>
      <point x="1566" y="0" type="line"/>
      <point x="1566" y="590" type="line"/>
      <point x="1351" y="590" type="line"/>
    </contour>
    <contour>
      <point x="488" y="228" type="curve" smooth="yes"/>
      <point x="819" y="228"/>
      <point x="1022" y="385"/>
      <point x="1022" y="710" type="curve" smooth="yes"/>
      <point x="1022" y="720" type="line" smooth="yes"/>
      <point x="1022" y="1047"/>
      <point x="819" y="1204"/>
      <point x="491" y="1204" type="curve" smooth="yes"/>
      <point x="335" y="1204"/>
      <point x="217" y="1166"/>
      <point x="140" y="1128" type="curve"/>
      <point x="123" y="943" type="line"/>
      <point x="207" y="986"/>
      <point x="323" y="1027"/>
      <point x="470" y="1027" type="curve" smooth="yes"/>
      <point x="681" y="1027"/>
      <point x="795" y="919"/>
      <point x="795" y="721" type="curve" smooth="yes"/>
      <point x="795" y="711" type="line" smooth="yes"/>
      <point x="795" y="515"/>
      <point x="681" y="407"/>
      <point x="469" y="407" type="curve" smooth="yes"/>
      <point x="311" y="407"/>
      <point x="197" y="448"/>
      <point x="104" y="494" type="curve"/>
      <point x="125" y="305" type="line"/>
      <point x="199" y="268"/>
      <point x="321" y="228"/>
    </contour>
  </outline>
</glyph>
<glyph name="Gha.gj" format="2">
  <advance width="1715"/>
  <unicode hex="0A98"/>
  <anchor x="1371" y="-87" name="Bottom"/>
  <anchor x="1351" y="1259" name="Top"/>
  <anchor x="1402" y="1259" name="Top2"/>
  <outline>
    <contour>
      <point x="721" y="79" type="curve" smooth="yes"/>
      <point x="1055" y="79"/>
      <point x="1226" y="172"/>
      <point x="1286" y="296" type="curve"/>
      <point x="1312" y="296" type="line"/>
      <point x="1302" y="477" type="line"/>
      <point x="1254" y="347"/>
      <point x="1073" y="252"/>
      <point x="759" y="252" type="curve" smooth="yes"/>
      <point x="504" y="252"/>
      <point x="378" y="300"/>
      <point x="378" y="424" type="curve" smooth="yes"/>
      <point x="378" y="425" type="line" smooth="yes"/>
      <point x="378" y="521"/>
      <point x="463" y="558"/>
      <point x="641" y="562" type="curve" smooth="yes"/>
      <point x="900" y="568" type="line"/>
      <point x="900" y="733" type="line"/>
      <point x="638" y="739" type="line" smooth="yes"/>
      <point x="454" y="743"/>
      <point x="368" y="776"/>
      <point x="368" y="875" type="curve" smooth="yes"/>
      <point x="368" y="877" type="line" smooth="yes"/>
      <point x="368" y="985"/>
      <point x="471" y="1033"/>
      <point x="672" y="1033" type="curve" smooth="yes"/>
      <point x="817" y="1033"/>
      <point x="920" y="1009"/>
      <point x="997" y="979" type="curve"/>
      <point x="976" y="1146" type="line"/>
      <point x="904" y="1173"/>
      <point x="784" y="1204"/>
      <point x="621" y="1204" type="curve" smooth="yes"/>
      <point x="315" y="1204"/>
      <point x="141" y="1107"/>
      <point x="141" y="911" type="curve" smooth="yes"/>
      <point x="141" y="909" type="line" smooth="yes"/>
      <point x="141" y="740"/>
      <point x="243" y="670"/>
      <point x="450" y="654" type="curve"/>
      <point x="450" y="649" type="line"/>
      <point x="255" y="633"/>
      <point x="151" y="555"/>
      <point x="151" y="396" type="curve" smooth="yes"/>
      <point x="151" y="391" type="line" smooth="yes"/>
      <point x="151" y="183"/>
      <point x="354" y="79"/>
    </contour>
    <contour>
      <point x="1295" y="481" type="line"/>
      <point x="1510" y="481" type="line"/>
      <point x="1510" y="1172" type="line"/>
      <point x="1295" y="1172" type="line"/>
    </contour>
    <contour>
      <point x="1295" y="0" type="line"/>
      <point x="1510" y="0" type="line"/>
      <point x="1510" y="590" type="line"/>
      <point x="1295" y="590" type="line"/>
    </contour>
  </outline>
</glyph>
<glyph name="Ca.gj" format="2">
  <advance width="1744"/>
  <unicode hex="0A9A"/>
  <guideline x="854" y="94" angle="0"/>
  <anchor x="1400" y="-87" name="Bottom"/>
  <anchor x="1380" y="1259" name="Top"/>
  <anchor x="1431" y="1259" name="Top2"/>
  <outline>
    <contour>
      <point x="906" y="274" type="curve" smooth="yes"/>
      <point x="669" y="274"/>
      <point x="536" y="364"/>
      <point x="519" y="524" type="curve" smooth="yes"/>
      <point x="515" y="565" type="line"/>
      <point x="294" y="558" type="line"/>
      <point x="298" y="515" type="line" smooth="yes"/>
      <point x="323" y="246"/>
      <point x="516" y="94"/>
      <point x="864" y="94" type="curve" smooth="yes"/>
      <point x="1136" y="94"/>
      <point x="1265" y="199"/>
      <point x="1316" y="317" type="curve"/>
      <point x="1335" y="317" type="line"/>
      <point x="1329" y="502" type="line"/>
      <point x="1279" y="365"/>
      <point x="1132" y="274"/>
    </contour>
    <contour>
      <point x="1324" y="481" type="line"/>
      <point x="1539" y="481" type="line"/>
      <point x="1539" y="1172" type="line"/>
      <point x="1324" y="1172" type="line"/>
    </contour>
    <contour>
      <point x="1324" y="0" type="line"/>
      <point x="1539" y="0" type="line"/>
      <point x="1539" y="590" type="line"/>
      <point x="1324" y="590" type="line"/>
    </contour>
    <contour>
      <point x="337" y="457" type="line"/>
      <point x="359" y="486" type="line"/>
      <point x="492" y="486" type="line"/>
      <point x="773" y="488"/>
      <point x="935" y="614"/>
      <point x="935" y="838" type="curve" smooth="yes"/>
      <point x="935" y="851" type="line" smooth="yes"/>
      <point x="935" y="1084"/>
      <point x="761" y="1204"/>
      <point x="472" y="1204" type="curve" smooth="yes"/>
      <point x="332" y="1204"/>
      <point x="214" y="1176"/>
      <point x="132" y="1135" type="curve"/>
      <point x="114" y="963" type="line"/>
      <point x="206" y="1006"/>
      <point x="314" y="1031"/>
      <point x="439" y="1031" type="curve" smooth="yes"/>
      <point x="613" y="1031"/>
      <point x="712" y="967"/>
      <point x="712" y="846" type="curve" smooth="yes"/>
      <point x="712" y="838" type="line" smooth="yes"/>
      <point x="712" y="708"/>
      <point x="603" y="646"/>
      <point x="401" y="646" type="curve" smooth="yes"/>
      <point x="83" y="646" type="line"/>
      <point x="83" y="492" type="line"/>
    </contour>
  </outline>
</glyph>
<glyph name="Cha.gj" format="2">
  <advance width="1927"/>
  <unicode hex="0A9B"/>
  <anchor x="908" y="-87" name="Bottom"/>
  <anchor x="1474" y="1259" name="Top"/>
  <anchor x="1353" y="1259" name="Top2"/>
  <outline>
    <contour>
      <point x="878" y="-26" type="curve" smooth="yes"/>
      <point x="1435" y="-26"/>
      <point x="1782" y="230"/>
      <point x="1782" y="722" type="curve" smooth="yes"/>
      <point x="1782" y="731" type="line"/>
      <point x="1561" y="729" type="line"/>
      <point x="1561" y="700" type="line" smooth="yes"/>
      <point x="1561" y="342"/>
      <point x="1303" y="154"/>
      <point x="878" y="154" type="curve" smooth="yes"/>
      <point x="539" y="154"/>
      <point x="372" y="218"/>
      <point x="372" y="373" type="curve" smooth="yes"/>
      <point x="372" y="375" type="line" smooth="yes"/>
      <point x="372" y="485"/>
      <point x="459" y="530"/>
      <point x="631" y="535" type="curve" smooth="yes"/>
      <point x="795" y="540" type="line"/>
      <point x="795" y="703" type="line"/>
      <point x="628" y="710" type="line" smooth="yes"/>
      <point x="457" y="717"/>
      <point x="375" y="757"/>
      <point x="375" y="863" type="curve" smooth="yes"/>
      <point x="375" y="865" type="line" smooth="yes"/>
      <point x="375" y="977"/>
      <point x="464" y="1032"/>
      <point x="622" y="1032" type="curve" smooth="yes"/>
      <point x="724" y="1032"/>
      <point x="797" y="1015"/>
      <point x="849" y="992" type="curve"/>
      <point x="829" y="1161" type="line"/>
      <point x="778" y="1182"/>
      <point x="690" y="1204"/>
      <point x="571" y="1204" type="curve" smooth="yes"/>
      <point x="304" y="1204"/>
      <point x="148" y="1099"/>
      <point x="148" y="896" type="curve" smooth="yes"/>
      <point x="148" y="894" type="line" smooth="yes"/>
      <point x="148" y="723"/>
      <point x="241" y="644"/>
      <point x="423" y="626" type="curve"/>
      <point x="423" y="620" type="line"/>
      <point x="243" y="602"/>
      <point x="145" y="519"/>
      <point x="145" y="356" type="curve" smooth="yes"/>
      <point x="145" y="351" type="line" smooth="yes"/>
      <point x="145" y="96"/>
      <point x="398" y="-26"/>
    </contour>
    <contour>
      <point x="1276" y="505" type="curve" smooth="yes"/>
      <point x="1427" y="505"/>
      <point x="1516" y="570"/>
      <point x="1551" y="657" type="curve"/>
      <point x="1580" y="657" type="line"/>
      <point x="1573" y="801" type="line"/>
      <point x="1540" y="726"/>
      <point x="1452" y="670"/>
      <point x="1344" y="670" type="curve" smooth="yes"/>
      <point x="1216" y="670"/>
      <point x="1148" y="729"/>
      <point x="1148" y="848" type="curve" smooth="yes"/>
      <point x="1148" y="853" type="line" smooth="yes"/>
      <point x="1148" y="973"/>
      <point x="1218" y="1039"/>
      <point x="1342" y="1039" type="curve" smooth="yes"/>
      <point x="1482" y="1039"/>
      <point x="1561" y="946"/>
      <point x="1563" y="771" type="curve"/>
      <point x="1563" y="723" type="line"/>
      <point x="1782" y="728" type="line"/>
      <point x="1782" y="736" type="line" smooth="yes"/>
      <point x="1782" y="1042"/>
      <point x="1627" y="1204"/>
      <point x="1343" y="1204" type="curve" smooth="yes"/>
      <point x="1077" y="1204"/>
      <point x="936" y="1079"/>
      <point x="936" y="851" type="curve" smooth="yes"/>
      <point x="936" y="845" type="line" smooth="yes"/>
      <point x="936" y="615"/>
      <point x="1067" y="505"/>
    </contour>
  </outline>
</glyph>
<glyph name="Ja.gj" format="2">
  <advance width="1907"/>
  <unicode hex="0A9C"/>
  <anchor x="1193" y="-87" name="Bottom"/>
  <anchor x="1587" y="1259" name="Top"/>
  <anchor x="1729" y="1259" name="Top2"/>
  <outline>
    <contour>
      <point x="1267" y="710" type="line"/>
      <point x="1874" y="1153" type="line"/>
      <point x="1874" y="1172" type="line"/>
      <point x="1598" y="1172" type="line"/>
      <point x="1103" y="802" type="line"/>
    </contour>
    <contour>
      <point x="385" y="354" type="line"/>
      <point x="385" y="844" type="line" smooth="yes"/>
      <point x="385" y="975"/>
      <point x="444" y="1030"/>
      <point x="534" y="1030" type="curve" smooth="yes"/>
      <point x="623" y="1030"/>
      <point x="683" y="987"/>
      <point x="809" y="894" type="curve" smooth="yes"/>
      <point x="1117" y="668" type="line"/>
      <point x="1313" y="748" type="line"/>
      <point x="962" y="1015" type="line" smooth="yes"/>
      <point x="800" y="1140"/>
      <point x="694" y="1204"/>
      <point x="524" y="1204" type="curve" smooth="yes"/>
      <point x="300" y="1204"/>
      <point x="170" y="1084"/>
      <point x="170" y="848" type="curve" smooth="yes"/>
      <point x="170" y="398" type="line"/>
    </contour>
    <contour>
      <point x="1168" y="-26" type="curve" smooth="yes"/>
      <point x="1497" y="-26"/>
      <point x="1678" y="90"/>
      <point x="1678" y="309" type="curve" smooth="yes"/>
      <point x="1678" y="314" type="line" smooth="yes"/>
      <point x="1678" y="483"/>
      <point x="1590" y="570"/>
      <point x="1429" y="680" type="curve" smooth="yes"/>
      <point x="1311" y="761" type="line"/>
      <point x="1117" y="682" type="line"/>
      <point x="1273" y="576" type="line" smooth="yes"/>
      <point x="1385" y="501"/>
      <point x="1451" y="448"/>
      <point x="1451" y="339" type="curve" smooth="yes"/>
      <point x="1451" y="335" type="line" smooth="yes"/>
      <point x="1451" y="211"/>
      <point x="1351" y="146"/>
      <point x="1168" y="146" type="curve" smooth="yes"/>
      <point x="980" y="146"/>
      <point x="878" y="211"/>
      <point x="878" y="335" type="curve" smooth="yes"/>
      <point x="878" y="339" type="line" smooth="yes"/>
      <point x="878" y="448"/>
      <point x="950" y="507"/>
      <point x="1062" y="580" type="curve" smooth="yes"/>
      <point x="1241" y="698" type="line"/>
      <point x="1103" y="818" type="line"/>
      <point x="908" y="684" type="line" smooth="yes"/>
      <point x="748" y="573"/>
      <point x="651" y="485"/>
      <point x="651" y="316" type="curve" smooth="yes"/>
      <point x="651" y="311" type="line" smooth="yes"/>
      <point x="651" y="91"/>
      <point x="835" y="-26"/>
    </contour>
  </outline>
</glyph>
<glyph name="Jha.gj" format="2">
  <advance width="1875"/>
  <unicode hex="0A9D"/>
  <anchor x="1350" y="-87" name="Bottom"/>
  <anchor x="1478" y="1259" name="Top"/>
  <anchor x="1613" y="1259" name="Top2"/>
  <outline>
    <contour>
      <point x="475" y="111" type="curve" smooth="yes"/>
      <point x="816" y="111"/>
      <point x="1026" y="288"/>
      <point x="1026" y="655" type="curve" smooth="yes"/>
      <point x="1026" y="665" type="line" smooth="yes"/>
      <point x="1026" y="1028"/>
      <point x="814" y="1204"/>
      <point x="471" y="1204" type="curve" smooth="yes"/>
      <point x="322" y="1204"/>
      <point x="209" y="1166"/>
      <point x="135" y="1127" type="curve"/>
      <point x="117" y="945" type="line"/>
      <point x="198" y="987"/>
      <point x="310" y="1026"/>
      <point x="450" y="1026" type="curve" smooth="yes"/>
      <point x="676" y="1026"/>
      <point x="799" y="898"/>
      <point x="799" y="665" type="curve" smooth="yes"/>
      <point x="799" y="655" type="line" smooth="yes"/>
      <point x="799" y="421"/>
      <point x="679" y="291"/>
      <point x="456" y="291" type="curve" smooth="yes"/>
      <point x="302" y="291"/>
      <point x="190" y="332"/>
      <point x="99" y="379" type="curve"/>
      <point x="119" y="190" type="line"/>
      <point x="191" y="151"/>
      <point x="311" y="111"/>
    </contour>
    <contour>
      <point x="1320" y="-25" type="curve" smooth="yes"/>
      <point x="1618" y="-25"/>
      <point x="1768" y="105"/>
      <point x="1768" y="348" type="curve" smooth="yes"/>
      <point x="1768" y="353" type="line" smooth="yes"/>
      <point x="1768" y="613"/>
      <point x="1607" y="743"/>
      <point x="1290" y="743" type="curve"/>
      <point x="1176" y="750" type="line"/>
      <point x="986" y="750" type="line"/>
      <point x="986" y="581" type="line"/>
      <point x="1249" y="581" type="line" smooth="yes"/>
      <point x="1454" y="581"/>
      <point x="1550" y="515"/>
      <point x="1550" y="362" type="curve" smooth="yes"/>
      <point x="1550" y="356" type="line" smooth="yes"/>
      <point x="1550" y="222"/>
      <point x="1467" y="147"/>
      <point x="1306" y="147" type="curve" smooth="yes"/>
      <point x="1202" y="147"/>
      <point x="1117" y="173"/>
      <point x="1055" y="199" type="curve"/>
      <point x="1075" y="23" type="line"/>
      <point x="1131" y="1"/>
      <point x="1213" y="-25"/>
    </contour>
    <contour>
      <point x="1247" y="679" type="line"/>
      <point x="1309" y="721"/>
      <point x="1362" y="766"/>
      <point x="1418" y="825" type="curve" smooth="yes"/>
      <point x="1749" y="1160" type="line"/>
      <point x="1749" y="1172" type="line"/>
      <point x="1458" y="1172" type="line"/>
      <point x="1065" y="706" type="line"/>
    </contour>
  </outline>
</glyph>
<glyph name="Nya.gj" format="2">
  <advance width="1835"/>
  <unicode hex="0A9E"/>
  <anchor x="1491" y="-87" name="Bottom"/>
  <anchor x="1471" y="1259" name="Top"/>
  <anchor x="1522" y="1259" name="Top2"/>
  <outline>
    <contour>
      <point x="488" y="156" type="curve" smooth="yes"/>
      <point x="819" y="156"/>
      <point x="1022" y="313"/>
      <point x="1022" y="638" type="curve" smooth="yes"/>
      <point x="1022" y="648" type="line" smooth="yes"/>
      <point x="1022" y="975"/>
      <point x="819" y="1132"/>
      <point x="491" y="1132" type="curve" smooth="yes"/>
      <point x="335" y="1132"/>
      <point x="217" y="1094"/>
      <point x="140" y="1056" type="curve"/>
      <point x="123" y="871" type="line"/>
      <point x="207" y="914"/>
      <point x="323" y="955"/>
      <point x="470" y="955" type="curve" smooth="yes"/>
      <point x="681" y="955"/>
      <point x="795" y="847"/>
      <point x="795" y="649" type="curve" smooth="yes"/>
      <point x="795" y="639" type="line" smooth="yes"/>
      <point x="795" y="443"/>
      <point x="681" y="335"/>
      <point x="469" y="335" type="curve" smooth="yes"/>
      <point x="311" y="335"/>
      <point x="197" y="376"/>
      <point x="104" y="422" type="curve"/>
      <point x="125" y="233" type="line"/>
      <point x="199" y="196"/>
      <point x="321" y="156"/>
    </contour>
    <contour>
      <point x="955" y="553" type="line"/>
      <point x="1512" y="553" type="line"/>
      <point x="1493" y="728" type="line"/>
      <point x="955" y="728" type="line"/>
    </contour>
    <contour>
      <point x="1415" y="481" type="line"/>
      <point x="1630" y="481" type="line"/>
      <point x="1630" y="1172" type="line"/>
      <point x="1415" y="1172" type="line"/>
    </contour>
    <contour>
      <point x="1415" y="0" type="line"/>
      <point x="1630" y="0" type="line"/>
      <point x="1630" y="590" type="line"/>
      <point x="1415" y="590" type="line"/>
    </contour>
  </outline>
</glyph>
<glyph name="Tta.gj" format="2">
  <advance width="1468"/>
  <unicode hex="0A9F"/>
  <anchor x="803" y="-87" name="Bottom"/>
  <anchor x="985" y="1259" name="Top"/>
  <anchor x="799" y="1259" name="Top2"/>
  <outline>
    <contour>
      <point x="770" y="-26" type="curve" smooth="yes"/>
      <point x="986" y="-26"/>
      <point x="1177" y="15"/>
      <point x="1326" y="86" type="curve"/>
      <point x="1348" y="287" type="line"/>
      <point x="1196" y="204"/>
      <point x="981" y="154"/>
      <point x="780" y="154" type="curve" smooth="yes"/>
      <point x="490" y="154"/>
      <point x="352" y="216"/>
      <point x="352" y="354" type="curve" smooth="yes"/>
      <point x="352" y="358" type="line" smooth="yes"/>
      <point x="352" y="462"/>
      <point x="427" y="513"/>
      <point x="615" y="540" type="curve" smooth="yes"/>
      <point x="932" y="585" type="line" smooth="yes"/>
      <point x="1208" y="624"/>
      <point x="1303" y="702"/>
      <point x="1303" y="870" type="curve" smooth="yes"/>
      <point x="1303" y="887" type="line" smooth="yes"/>
      <point x="1303" y="1102"/>
      <point x="1112" y="1204"/>
      <point x="760" y="1204" type="curve" smooth="yes"/>
      <point x="543" y="1204"/>
      <point x="378" y="1161"/>
      <point x="276" y="1121" type="curve"/>
      <point x="248" y="938" type="line"/>
      <point x="382" y="984"/>
      <point x="556" y="1028"/>
      <point x="744" y="1028" type="curve" smooth="yes"/>
      <point x="976" y="1028"/>
      <point x="1076" y="984"/>
      <point x="1076" y="883" type="curve" smooth="yes"/>
      <point x="1076" y="879" type="line" smooth="yes"/>
      <point x="1076" y="805"/>
      <point x="1018" y="779"/>
      <point x="856" y="756" type="curve" smooth="yes"/>
      <point x="597" y="720" type="line" smooth="yes"/>
      <point x="268" y="674"/>
      <point x="125" y="569"/>
      <point x="125" y="363" type="curve" smooth="yes"/>
      <point x="125" y="349" type="line" smooth="yes"/>
      <point x="125" y="95"/>
      <point x="322" y="-26"/>
    </contour>
  </outline>
</glyph>
<glyph name="Ttha.gj" format="2">
  <advance width="1548"/>
  <unicode hex="0AA0"/>
  <anchor x="818" y="-87" name="Bottom"/>
  <anchor x="970" y="1259" name="Top"/>
  <anchor x="787" y="1259" name="Top2"/>
  <outline>
    <contour>
      <point x="789" y="-26" type="curve" smooth="yes"/>
      <point x="1210" y="-26"/>
      <point x="1429" y="109"/>
      <point x="1429" y="357" type="curve" smooth="yes"/>
      <point x="1429" y="360" type="line" smooth="yes"/>
      <point x="1429" y="600"/>
      <point x="1264" y="732"/>
      <point x="835" y="743" type="curve" smooth="yes"/>
      <point x="715" y="746" type="line" smooth="yes"/>
      <point x="492" y="752"/>
      <point x="448" y="806"/>
      <point x="448" y="879" type="curve" smooth="yes"/>
      <point x="448" y="884" type="line" smooth="yes"/>
      <point x="448" y="983"/>
      <point x="552" y="1037"/>
      <point x="799" y="1037" type="curve" smooth="yes"/>
      <point x="992" y="1037"/>
      <point x="1159" y="995"/>
      <point x="1284" y="939" type="curve"/>
      <point x="1260" y="1111" type="line"/>
      <point x="1152" y="1160"/>
      <point x="985" y="1204"/>
      <point x="770" y="1204" type="curve" smooth="yes"/>
      <point x="407" y="1204"/>
      <point x="221" y="1095"/>
      <point x="221" y="898" type="curve" smooth="yes"/>
      <point x="221" y="892" type="line" smooth="yes"/>
      <point x="221" y="751"/>
      <point x="323" y="672"/>
      <point x="470" y="651" type="curve"/>
      <point x="491" y="588" type="line"/>
      <point x="534" y="585"/>
      <point x="570" y="582"/>
      <point x="610" y="581" type="curve" smooth="yes"/>
      <point x="763" y="578" type="line" smooth="yes"/>
      <point x="1101" y="571"/>
      <point x="1205" y="497"/>
      <point x="1205" y="365" type="curve" smooth="yes"/>
      <point x="1205" y="363" type="line" smooth="yes"/>
      <point x="1205" y="224"/>
      <point x="1067" y="149"/>
      <point x="782" y="149" type="curve" smooth="yes"/>
      <point x="500" y="149"/>
      <point x="359" y="226"/>
      <point x="359" y="371" type="curve" smooth="yes"/>
      <point x="359" y="373" type="line"/>
      <point x="134" y="353" type="line"/>
      <point x="134" y="350" type="line" smooth="yes"/>
      <point x="134" y="106"/>
      <point x="358" y="-26"/>
    </contour>
    <contour>
      <point x="134" y="353" type="line"/>
      <point x="359" y="373" type="line"/>
      <point x="359" y="374" type="line" smooth="yes"/>
      <point x="359" y="491"/>
      <point x="443" y="555"/>
      <point x="616" y="588" type="curve"/>
      <point x="528" y="684" type="line"/>
      <point x="270" y="658"/>
      <point x="134" y="544"/>
      <point x="134" y="354" type="curve" smooth="yes"/>
    </contour>
  </outline>
</glyph>
<glyph name="Dda.gj" format="2">
  <advance width="1430"/>
  <unicode hex="0AA1"/>
  <anchor x="780" y="-87" name="Bottom"/>
  <anchor x="911" y="1259" name="Top"/>
  <anchor x="728" y="1259" name="Top2"/>
  <outline>
    <contour>
      <point x="729" y="-26" type="curve" smooth="yes"/>
      <point x="1088" y="-26"/>
      <point x="1297" y="83"/>
      <point x="1297" y="333" type="curve" smooth="yes"/>
      <point x="1297" y="337" type="line" smooth="yes"/>
      <point x="1297" y="560"/>
      <point x="1168" y="667"/>
      <point x="775" y="698" type="curve" smooth="yes"/>
      <point x="673" y="706" type="line" smooth="yes"/>
      <point x="454" y="723"/>
      <point x="373" y="761"/>
      <point x="373" y="863" type="curve" smooth="yes"/>
      <point x="373" y="865" type="line" smooth="yes"/>
      <point x="373" y="969"/>
      <point x="479" y="1028"/>
      <point x="725" y="1028" type="curve" smooth="yes"/>
      <point x="919" y="1028"/>
      <point x="1090" y="985"/>
      <point x="1217" y="928" type="curve"/>
      <point x="1192" y="1111" type="line"/>
      <point x="1085" y="1160"/>
      <point x="918" y="1204"/>
      <point x="704" y="1204" type="curve" smooth="yes"/>
      <point x="334" y="1204"/>
      <point x="146" y="1091"/>
      <point x="146" y="865" type="curve" smooth="yes"/>
      <point x="146" y="862" type="line" smooth="yes"/>
      <point x="146" y="646"/>
      <point x="287" y="549"/>
      <point x="635" y="527" type="curve" smooth="yes"/>
      <point x="730" y="521" type="line" smooth="yes"/>
      <point x="998" y="504"/>
      <point x="1070" y="451"/>
      <point x="1070" y="338" type="curve" smooth="yes"/>
      <point x="1070" y="336" type="line" smooth="yes"/>
      <point x="1070" y="213"/>
      <point x="956" y="154"/>
      <point x="708" y="154" type="curve" smooth="yes"/>
      <point x="475" y="154"/>
      <point x="283" y="216"/>
      <point x="130" y="290" type="curve"/>
      <point x="156" y="91" type="line"/>
      <point x="287" y="29"/>
      <point x="479" y="-26"/>
    </contour>
  </outline>
</glyph>
<glyph name="Ddha.gj" format="2">
  <advance width="1585"/>
  <unicode hex="0AA2"/>
  <anchor x="859" y="-87" name="Bottom"/>
  <anchor x="1022" y="1259" name="Top"/>
  <anchor x="821" y="1259" name="Top2"/>
  <outline>
    <contour>
      <point x="824" y="-26" type="curve" smooth="yes"/>
      <point x="1243" y="-26"/>
      <point x="1473" y="74"/>
      <point x="1473" y="283" type="curve" smooth="yes"/>
      <point x="1473" y="292" type="line" smooth="yes"/>
      <point x="1473" y="457"/>
      <point x="1340" y="552"/>
      <point x="1080" y="552" type="curve" smooth="yes"/>
      <point x="815" y="552"/>
      <point x="689" y="465"/>
      <point x="689" y="321" type="curve" smooth="yes"/>
      <point x="689" y="319" type="line" smooth="yes"/>
      <point x="689" y="231"/>
      <point x="743" y="169"/>
      <point x="861" y="137" type="curve"/>
      <point x="861" y="122" type="line"/>
      <point x="1046" y="126" type="line"/>
      <point x="935" y="161"/>
      <point x="885" y="214"/>
      <point x="885" y="281" type="curve" smooth="yes"/>
      <point x="885" y="283" type="line" smooth="yes"/>
      <point x="885" y="365"/>
      <point x="952" y="407"/>
      <point x="1078" y="407" type="curve" smooth="yes"/>
      <point x="1202" y="407"/>
      <point x="1269" y="369"/>
      <point x="1269" y="288" type="curve" smooth="yes"/>
      <point x="1269" y="285" type="line" smooth="yes"/>
      <point x="1269" y="183"/>
      <point x="1166" y="147"/>
      <point x="962" y="133" type="curve"/>
      <point x="948" y="137" type="line"/>
      <point x="906" y="134"/>
      <point x="859" y="131"/>
      <point x="831" y="131" type="curve" smooth="yes"/>
      <point x="537" y="131"/>
      <point x="344" y="207"/>
      <point x="344" y="392" type="curve" smooth="yes"/>
      <point x="344" y="402" type="line" smooth="yes"/>
      <point x="344" y="546"/>
      <point x="446" y="620"/>
      <point x="689" y="646" type="curve" smooth="yes"/>
      <point x="982" y="677" type="line" smooth="yes"/>
      <point x="1233" y="704"/>
      <point x="1316" y="777"/>
      <point x="1316" y="930" type="curve" smooth="yes"/>
      <point x="1316" y="933" type="line" smooth="yes"/>
      <point x="1316" y="1111"/>
      <point x="1158" y="1204"/>
      <point x="822" y="1204" type="curve" smooth="yes"/>
      <point x="611" y="1204"/>
      <point x="431" y="1167"/>
      <point x="325" y="1126" type="curve"/>
      <point x="299" y="949" type="line"/>
      <point x="455" y="1002"/>
      <point x="633" y="1036"/>
      <point x="789" y="1036" type="curve" smooth="yes"/>
      <point x="1015" y="1036"/>
      <point x="1096" y="1007"/>
      <point x="1096" y="935" type="curve" smooth="yes"/>
      <point x="1096" y="933" type="line" smooth="yes"/>
      <point x="1096" y="868"/>
      <point x="1042" y="854"/>
      <point x="890" y="837" type="curve" smooth="yes"/>
      <point x="623" y="808" type="line" smooth="yes"/>
      <point x="283" y="771"/>
      <point x="125" y="641"/>
      <point x="125" y="404" type="curve" smooth="yes"/>
      <point x="125" y="392" type="line" smooth="yes"/>
      <point x="125" y="111"/>
      <point x="388" y="-26"/>
    </contour>
  </outline>
</glyph>
<glyph name="Nna.gj" format="2">
  <advance width="2184"/>
  <unicode hex="0AA3"/>
  <anchor x="1840" y="-87" name="Bottom"/>
  <anchor x="1820" y="1259" name="Top"/>
  <anchor x="1871" y="1259" name="Top2"/>
  <outline>
    <contour>
      <point x="1764" y="481" type="line"/>
      <point x="1979" y="481" type="line"/>
      <point x="1979" y="1172" type="line"/>
      <point x="1764" y="1172" type="line"/>
    </contour>
    <contour>
      <point x="1764" y="0" type="line"/>
      <point x="1979" y="0" type="line"/>
      <point x="1979" y="590" type="line"/>
      <point x="1764" y="590" type="line"/>
    </contour>
    <contour>
      <point x="991" y="420" type="curve" smooth="yes"/>
      <point x="1291" y="420"/>
      <point x="1468" y="551"/>
      <point x="1468" y="810" type="curve" smooth="yes"/>
      <point x="1468" y="820" type="line" smooth="yes"/>
      <point x="1468" y="1075"/>
      <point x="1294" y="1204"/>
      <point x="1013" y="1204" type="curve" smooth="yes"/>
      <point x="877" y="1204"/>
      <point x="768" y="1175"/>
      <point x="698" y="1146" type="curve"/>
      <point x="682" y="977" type="line"/>
      <point x="756" y="1008"/>
      <point x="860" y="1036"/>
      <point x="986" y="1036" type="curve" smooth="yes"/>
      <point x="1149" y="1036"/>
      <point x="1245" y="961"/>
      <point x="1245" y="818" type="curve" smooth="yes"/>
      <point x="1245" y="811" type="line" smooth="yes"/>
      <point x="1245" y="666"/>
      <point x="1149" y="592"/>
      <point x="969" y="592" type="curve" smooth="yes"/>
      <point x="861" y="592"/>
      <point x="753" y="622"/>
      <point x="673" y="659" type="curve"/>
      <point x="693" y="481" type="line"/>
      <point x="773" y="443"/>
      <point x="874" y="420"/>
    </contour>
    <contour>
      <point x="884" y="-26" type="curve" smooth="yes"/>
      <point x="1081" y="-26"/>
      <point x="1261" y="7"/>
      <point x="1392" y="51" type="curve"/>
      <point x="1412" y="227" type="line"/>
      <point x="1255" y="183"/>
      <point x="1081" y="151"/>
      <point x="908" y="151" type="curve" smooth="yes"/>
      <point x="565" y="151"/>
      <point x="398" y="279"/>
      <point x="398" y="557" type="curve" smooth="yes"/>
      <point x="398" y="1172" type="line"/>
      <point x="183" y="1172" type="line"/>
      <point x="183" y="539" type="line" smooth="yes"/>
      <point x="183" y="147"/>
      <point x="414" y="-26"/>
    </contour>
  </outline>
</glyph>
<glyph name="Ta.gj" format="2">
  <advance width="1500"/>
  <unicode hex="0AA4"/>
  <anchor x="1156" y="-87" name="Bottom"/>
  <anchor x="1136" y="1259" name="Top"/>
  <anchor x="1187" y="1259" name="Top2"/>
  <outline>
    <contour>
      <point x="1080" y="481" type="line"/>
      <point x="1295" y="481" type="line"/>
      <point x="1295" y="1172" type="line"/>
      <point x="1080" y="1172" type="line"/>
    </contour>
    <contour>
      <point x="1080" y="0" type="line"/>
      <point x="1295" y="0" type="line"/>
      <point x="1295" y="590" type="line"/>
      <point x="1080" y="590" type="line"/>
    </contour>
    <contour>
      <point x="319" y="0" type="curve"/>
      <point x="564" y="0" type="line"/>
      <point x="440" y="139"/>
      <point x="347" y="289"/>
      <point x="347" y="450" type="curve" smooth="yes"/>
      <point x="347" y="622"/>
      <point x="434" y="714"/>
      <point x="633" y="714" type="curve" smooth="yes"/>
      <point x="1183" y="714" type="line"/>
      <point x="1183" y="889" type="line"/>
      <point x="583" y="889" type="line" smooth="yes"/>
      <point x="259" y="889"/>
      <point x="120" y="733"/>
      <point x="120" y="475" type="curve" smooth="yes"/>
      <point x="120" y="289"/>
      <point x="205" y="128"/>
    </contour>
  </outline>
</glyph>
<glyph name="Tha.gj" format="2">
  <advance width="1770"/>
  <unicode hex="0AA5"/>
  <guideline x="804" y="94" angle="0"/>
  <guideline x="804" y="71" angle="0"/>
  <anchor x="1426" y="-87" name="Bottom"/>
  <anchor x="1406" y="1259" name="Top"/>
  <anchor x="1457" y="1259" name="Top2"/>
  <outline>
    <contour>
      <point x="800" y="71" type="curve" smooth="yes"/>
      <point x="1116" y="71"/>
      <point x="1286" y="170"/>
      <point x="1341" y="302" type="curve"/>
      <point x="1362" y="302" type="line"/>
      <point x="1354" y="489" type="line"/>
      <point x="1298" y="337"/>
      <point x="1115" y="242"/>
      <point x="826" y="242" type="curve" smooth="yes"/>
      <point x="504" y="242"/>
      <point x="348" y="359"/>
      <point x="348" y="543" type="curve" smooth="yes"/>
      <point x="348" y="561"/>
      <point x="349" y="577"/>
      <point x="351" y="596" type="curve"/>
      <point x="266" y="487" type="line"/>
      <point x="558" y="488" type="line" smooth="yes"/>
      <point x="887" y="489"/>
      <point x="1042" y="608"/>
      <point x="1042" y="846" type="curve" smooth="yes"/>
      <point x="1042" y="854" type="line" smooth="yes"/>
      <point x="1042" y="1081"/>
      <point x="886" y="1204"/>
      <point x="599" y="1204" type="curve" smooth="yes"/>
      <point x="318" y="1204"/>
      <point x="165" y="1093"/>
      <point x="165" y="894" type="curve" smooth="yes"/>
      <point x="165" y="853"/>
      <point x="172" y="812"/>
      <point x="184" y="781" type="curve"/>
      <point x="374" y="781" type="line"/>
      <point x="374" y="799"/>
      <point x="374" y="821"/>
      <point x="374" y="851" type="curve" smooth="yes"/>
      <point x="374" y="981"/>
      <point x="457" y="1041"/>
      <point x="600" y="1041" type="curve" smooth="yes"/>
      <point x="743" y="1041"/>
      <point x="823" y="976"/>
      <point x="823" y="854" type="curve" smooth="yes"/>
      <point x="823" y="849" type="line" smooth="yes"/>
      <point x="823" y="708"/>
      <point x="730" y="642"/>
      <point x="515" y="642" type="curve" smooth="yes"/>
      <point x="151" y="642" type="line"/>
      <point x="146" y="610"/>
      <point x="144" y="582"/>
      <point x="144" y="541" type="curve" smooth="yes"/>
      <point x="144" y="235"/>
      <point x="381" y="71"/>
    </contour>
    <contour>
      <point x="1350" y="481" type="line"/>
      <point x="1565" y="481" type="line"/>
      <point x="1565" y="1172" type="line"/>
      <point x="1350" y="1172" type="line"/>
    </contour>
    <contour>
      <point x="1350" y="0" type="line"/>
      <point x="1565" y="0" type="line"/>
      <point x="1565" y="590" type="line"/>
      <point x="1350" y="590" type="line"/>
    </contour>
  </outline>
</glyph>
<glyph name="Da.gj" format="2">
  <advance width="1322"/>
  <unicode hex="0AA6"/>
  <anchor x="747" y="-87" name="Bottom"/>
  <anchor x="896" y="1259" name="Top"/>
  <anchor x="728" y="1259" name="Top2"/>
  <outline>
    <contour>
      <point x="708" y="-26" type="curve" smooth="yes"/>
      <point x="936" y="-26"/>
      <point x="1100" y="27"/>
      <point x="1203" y="81" type="curve"/>
      <point x="1226" y="270" type="line"/>
      <point x="1101" y="207"/>
      <point x="951" y="152"/>
      <point x="732" y="152" type="curve" smooth="yes"/>
      <point x="488" y="152"/>
      <point x="367" y="213"/>
      <point x="367" y="337" type="curve" smooth="yes"/>
      <point x="367" y="339" type="line" smooth="yes"/>
      <point x="367" y="461"/>
      <point x="468" y="510"/>
      <point x="683" y="514" type="curve" smooth="yes"/>
      <point x="1034" y="521" type="line"/>
      <point x="1034" y="689" type="line"/>
      <point x="681" y="692" type="line" smooth="yes"/>
      <point x="481" y="694"/>
      <point x="385" y="734"/>
      <point x="385" y="850" type="curve" smooth="yes"/>
      <point x="385" y="852" type="line" smooth="yes"/>
      <point x="385" y="971"/>
      <point x="500" y="1029"/>
      <point x="730" y="1029" type="curve" smooth="yes"/>
      <point x="914" y="1029"/>
      <point x="1076" y="986"/>
      <point x="1197" y="929" type="curve"/>
      <point x="1172" y="1111" type="line"/>
      <point x="1069" y="1160"/>
      <point x="910" y="1204"/>
      <point x="706" y="1204" type="curve" smooth="yes"/>
      <point x="356" y="1204"/>
      <point x="158" y="1093"/>
      <point x="158" y="878" type="curve" smooth="yes"/>
      <point x="158" y="876" type="line" smooth="yes"/>
      <point x="158" y="699"/>
      <point x="264" y="622"/>
      <point x="475" y="607" type="curve"/>
      <point x="475" y="602" type="line"/>
      <point x="257" y="581"/>
      <point x="140" y="494"/>
      <point x="140" y="315" type="curve" smooth="yes"/>
      <point x="140" y="314" type="line" smooth="yes"/>
      <point x="140" y="87"/>
      <point x="346" y="-26"/>
    </contour>
  </outline>
</glyph>
<glyph name="Dha.gj" format="2">
  <advance width="1666"/>
  <unicode hex="0AA7"/>
  <anchor x="1322" y="-87" name="Bottom"/>
  <anchor x="1301" y="1259" name="Top"/>
  <anchor x="1353" y="1259" name="Top2"/>
  <outline>
    <contour>
      <point x="696" y="79" type="curve" smooth="yes"/>
      <point x="1011" y="79"/>
      <point x="1174" y="172"/>
      <point x="1237" y="295" type="curve"/>
      <point x="1263" y="295" type="line"/>
      <point x="1250" y="476" type="line"/>
      <point x="1207" y="348"/>
      <point x="1026" y="252"/>
      <point x="743" y="252" type="curve" smooth="yes"/>
      <point x="495" y="252"/>
      <point x="369" y="304"/>
      <point x="369" y="437" type="curve" smooth="yes"/>
      <point x="369" y="439" type="line" smooth="yes"/>
      <point x="369" y="549"/>
      <point x="460" y="594"/>
      <point x="645" y="598" type="curve" smooth="yes"/>
      <point x="921" y="604" type="line"/>
      <point x="921" y="759" type="line"/>
      <point x="641" y="767" type="line" smooth="yes"/>
      <point x="461" y="772"/>
      <point x="368" y="806"/>
      <point x="368" y="899" type="curve" smooth="yes"/>
      <point x="368" y="901" type="line" smooth="yes"/>
      <point x="368" y="1022"/>
      <point x="522" y="1115"/>
      <point x="788" y="1262" type="curve"/>
      <point x="788" y="1274" type="line"/>
      <point x="501" y="1274" type="line"/>
      <point x="269" y="1146"/>
      <point x="141" y="1058"/>
      <point x="141" y="910" type="curve" smooth="yes"/>
      <point x="141" y="908" type="line" smooth="yes"/>
      <point x="141" y="767"/>
      <point x="237" y="700"/>
      <point x="436" y="685" type="curve"/>
      <point x="436" y="681" type="line"/>
      <point x="243" y="663"/>
      <point x="142" y="581"/>
      <point x="142" y="414" type="curve" smooth="yes"/>
      <point x="142" y="409" type="line" smooth="yes"/>
      <point x="142" y="190"/>
      <point x="339" y="79"/>
    </contour>
    <contour>
      <point x="1246" y="481" type="line"/>
      <point x="1461" y="481" type="line"/>
      <point x="1461" y="1172" type="line"/>
      <point x="1246" y="1172" type="line"/>
    </contour>
    <contour>
      <point x="1246" y="0" type="line"/>
      <point x="1461" y="0" type="line"/>
      <point x="1461" y="590" type="line"/>
      <point x="1246" y="590" type="line"/>
    </contour>
  </outline>
</glyph>
<glyph name="Na.gj" format="2">
  <advance width="1462"/>
  <unicode hex="0AA8"/>
  <anchor x="1118" y="-87" name="Bottom"/>
  <anchor x="1098" y="1259" name="Top"/>
  <anchor x="1149" y="1259" name="Top2"/>
  <outline>
    <contour>
      <point x="1042" y="481" type="line"/>
      <point x="1257" y="481" type="line"/>
      <point x="1257" y="1172" type="line"/>
      <point x="1042" y="1172" type="line"/>
    </contour>
    <contour>
      <point x="1042" y="0" type="line"/>
      <point x="1257" y="0" type="line"/>
      <point x="1257" y="590" type="line"/>
      <point x="1042" y="590" type="line"/>
    </contour>
    <contour>
      <point x="229" y="223" type="curve"/>
      <point x="430" y="223" type="line"/>
      <point x="430" y="815" type="line"/>
      <point x="234" y="815" type="line"/>
      <point x="115" y="750" type="line"/>
      <point x="131" y="542"/>
      <point x="171" y="386"/>
    </contour>
    <contour>
      <point x="363" y="640" type="line"/>
      <point x="1122" y="640" type="line"/>
      <point x="1103" y="815" type="line"/>
      <point x="363" y="815" type="line"/>
    </contour>
  </outline>
</glyph>
<glyph name="Pa.gj" format="2">
  <advance width="1543"/>
  <unicode hex="0AAA"/>
  <guideline x="38" y="1293" angle="90"/>
  <guideline x="1338" y="1293" angle="90"/>
  <anchor x="1199" y="-87" name="Bottom"/>
  <anchor x="1179" y="1259" name="Top"/>
  <anchor x="1230" y="1259" name="Top2"/>
  <outline>
    <contour>
      <point x="715" y="227" type="curve" smooth="yes"/>
      <point x="947" y="227"/>
      <point x="1071" y="330"/>
      <point x="1114" y="451" type="curve"/>
      <point x="1132" y="451" type="line"/>
      <point x="1125" y="639" type="line"/>
      <point x="1085" y="502"/>
      <point x="967" y="408"/>
      <point x="766" y="408" type="curve" smooth="yes"/>
      <point x="560" y="408"/>
      <point x="448" y="505"/>
      <point x="448" y="730" type="curve" smooth="yes"/>
      <point x="448" y="806" type="line"/>
      <point x="232" y="806" type="line"/>
      <point x="232" y="705" type="line" smooth="yes"/>
      <point x="232" y="377"/>
      <point x="406" y="227"/>
    </contour>
    <contour>
      <point x="232" y="775" type="line"/>
      <point x="448" y="775" type="line"/>
      <point x="448" y="907" type="line" smooth="yes"/>
      <point x="448" y="1097"/>
      <point x="367" y="1183"/>
      <point x="207" y="1183" type="curve" smooth="yes"/>
      <point x="146" y="1183"/>
      <point x="94" y="1175"/>
      <point x="52" y="1163" type="curve"/>
      <point x="38" y="1004" type="line"/>
      <point x="66" y="1011"/>
      <point x="96" y="1016"/>
      <point x="124" y="1016" type="curve" smooth="yes"/>
      <point x="200" y="1016"/>
      <point x="232" y="970"/>
      <point x="232" y="881" type="curve" smooth="yes"/>
    </contour>
    <contour>
      <point x="1123" y="481" type="line"/>
      <point x="1338" y="481" type="line"/>
      <point x="1338" y="1172" type="line"/>
      <point x="1123" y="1172" type="line"/>
    </contour>
    <contour>
      <point x="1123" y="0" type="line"/>
      <point x="1338" y="0" type="line"/>
      <point x="1338" y="590" type="line"/>
      <point x="1123" y="590" type="line"/>
    </contour>
  </outline>
</glyph>
<glyph name="Ba.gj" format="2">
  <advance width="1959"/>
  <unicode hex="0AAC"/>
  <anchor x="1615" y="-87" name="Bottom"/>
  <anchor x="1595" y="1259" name="Top"/>
  <anchor x="1646" y="1259" name="Top2"/>
  <outline>
    <contour>
      <point x="1539" y="481" type="line"/>
      <point x="1754" y="481" type="line"/>
      <point x="1754" y="1172" type="line"/>
      <point x="1539" y="1172" type="line"/>
    </contour>
    <contour>
      <point x="1539" y="0" type="line"/>
      <point x="1754" y="0" type="line"/>
      <point x="1754" y="590" type="line"/>
      <point x="1539" y="590" type="line"/>
    </contour>
    <contour>
      <point x="1021" y="517" type="line"/>
      <point x="1660" y="517" type="line"/>
      <point x="1641" y="692" type="line"/>
      <point x="1021" y="692" type="line"/>
    </contour>
    <contour>
      <point x="647" y="103" type="curve" smooth="yes"/>
      <point x="957" y="103"/>
      <point x="1119" y="257"/>
      <point x="1119" y="553" type="curve" smooth="yes"/>
      <point x="1119" y="992" type="line"/>
      <point x="904" y="992" type="line"/>
      <point x="904" y="556" type="line" smooth="yes"/>
      <point x="904" y="371"/>
      <point x="818" y="282"/>
      <point x="647" y="282" type="curve" smooth="yes"/>
      <point x="457" y="282"/>
      <point x="362" y="396"/>
      <point x="362" y="624" type="curve" smooth="yes"/>
      <point x="362" y="638" type="line" smooth="yes"/>
      <point x="362" y="848"/>
      <point x="443" y="1008"/>
      <point x="589" y="1172" type="curve"/>
      <point x="347" y="1172" type="line"/>
      <point x="223" y="1047"/>
      <point x="135" y="866"/>
      <point x="135" y="634" type="curve" smooth="yes"/>
      <point x="135" y="621" type="line" smooth="yes"/>
      <point x="135" y="278"/>
      <point x="309" y="103"/>
    </contour>
  </outline>
</glyph>
<glyph name="Ma.gj" format="2">
  <advance width="1574"/>
  <unicode hex="0AAE"/>
  <anchor x="1230" y="-87" name="Bottom"/>
  <anchor x="1210" y="1259" name="Top"/>
  <anchor x="1261" y="1259" name="Top2"/>
  <outline>
    <contour>
      <point x="300" y="559" type="line"/>
      <point x="515" y="559" type="line"/>
      <point x="515" y="897" type="line" smooth="yes"/>
      <point x="515" y="1094"/>
      <point x="425" y="1183"/>
      <point x="246" y="1183" type="curve" smooth="yes"/>
      <point x="182" y="1183"/>
      <point x="128" y="1174"/>
      <point x="84" y="1161" type="curve"/>
      <point x="70" y="998" type="line"/>
      <point x="104" y="1008"/>
      <point x="140" y="1016"/>
      <point x="174" y="1016" type="curve" smooth="yes"/>
      <point x="263" y="1016"/>
      <point x="300" y="967"/>
      <point x="300" y="871" type="curve" smooth="yes"/>
    </contour>
    <contour>
      <point x="303" y="101" type="curve"/>
      <point x="508" y="101" type="line"/>
      <point x="508" y="619" type="line"/>
      <point x="306" y="619" type="line"/>
      <point x="187" y="554" type="line"/>
      <point x="203" y="374"/>
      <point x="245" y="243"/>
    </contour>
    <contour>
      <point x="476" y="456" type="line"/>
      <point x="1248" y="456" type="line"/>
      <point x="1229" y="631" type="line"/>
      <point x="476" y="631" type="line"/>
    </contour>
    <contour>
      <point x="1154" y="481" type="line"/>
      <point x="1369" y="481" type="line"/>
      <point x="1369" y="1172" type="line"/>
      <point x="1154" y="1172" type="line"/>
    </contour>
    <contour>
      <point x="1154" y="0" type="line"/>
      <point x="1369" y="0" type="line"/>
      <point x="1369" y="590" type="line"/>
      <point x="1154" y="590" type="line"/>
    </contour>
  </outline>
</glyph>
<glyph name="Ya.gj" format="2">
  <advance width="1702"/>
  <unicode hex="0AAF"/>
  <anchor x="1358" y="-87" name="Bottom"/>
  <anchor x="1338" y="1259" name="Top"/>
  <anchor x="1389" y="1259" name="Top2"/>
  <outline>
    <contour>
      <point x="769" y="76" type="curve" smooth="yes"/>
      <point x="1075" y="76"/>
      <point x="1227" y="182"/>
      <point x="1274" y="309" type="curve"/>
      <point x="1294" y="309" type="line"/>
      <point x="1287" y="497" type="line"/>
      <point x="1237" y="345"/>
      <point x="1065" y="255"/>
      <point x="803" y="255" type="curve" smooth="yes"/>
      <point x="517" y="255"/>
      <point x="346" y="366"/>
      <point x="346" y="563" type="curve" smooth="yes"/>
      <point x="346" y="587"/>
      <point x="347" y="596"/>
      <point x="350" y="620" type="curve"/>
      <point x="303" y="501" type="line"/>
      <point x="496" y="501" type="line" smooth="yes"/>
      <point x="767" y="501"/>
      <point x="925" y="624"/>
      <point x="925" y="848" type="curve" smooth="yes"/>
      <point x="925" y="862" type="line" smooth="yes"/>
      <point x="925" y="1084"/>
      <point x="759" y="1204"/>
      <point x="504" y="1204" type="curve" smooth="yes"/>
      <point x="370" y="1204"/>
      <point x="263" y="1178"/>
      <point x="184" y="1140" type="curve"/>
      <point x="166" y="964" type="line"/>
      <point x="247" y="1002"/>
      <point x="356" y="1031"/>
      <point x="464" y="1031" type="curve" smooth="yes"/>
      <point x="618" y="1031"/>
      <point x="703" y="972"/>
      <point x="703" y="858" type="curve" smooth="yes"/>
      <point x="703" y="848" type="line" smooth="yes"/>
      <point x="703" y="720"/>
      <point x="598" y="666"/>
      <point x="408" y="666" type="curve" smooth="yes"/>
      <point x="140" y="666" type="line"/>
      <point x="135" y="634"/>
      <point x="132" y="606"/>
      <point x="132" y="575" type="curve" smooth="yes"/>
      <point x="132" y="258"/>
      <point x="371" y="76"/>
    </contour>
    <contour>
      <point x="1282" y="481" type="line"/>
      <point x="1497" y="481" type="line"/>
      <point x="1497" y="1172" type="line"/>
      <point x="1282" y="1172" type="line"/>
    </contour>
    <contour>
      <point x="1282" y="0" type="line"/>
      <point x="1497" y="0" type="line"/>
      <point x="1497" y="590" type="line"/>
      <point x="1282" y="590" type="line"/>
    </contour>
  </outline>
</glyph>
<glyph name="Ra.gj" format="2">
  <advance width="1237"/>
  <unicode hex="0AB0"/>
  <guideline x="145" y="1035" angle="264.1274"/>
  <guideline x="476" y="435" angle="0"/>
  <guideline x="366" y="394" angle="0"/>
  <guideline x="540" y="1100" angle="90"/>
  <guideline x="577" y="1100" angle="90"/>
  <anchor x="930" y="-87" name="Bottom"/>
  <anchor x="767" y="1259" name="Top"/>
  <anchor x="637" y="1259" name="Top2"/>
  <outline>
    <contour>
      <point x="366" y="390" type="line"/>
      <point x="376" y="423" type="line"/>
      <point x="575" y="423" type="line" smooth="yes"/>
      <point x="912" y="423"/>
      <point x="1096" y="564"/>
      <point x="1096" y="808" type="curve" smooth="yes"/>
      <point x="1096" y="821" type="line" smooth="yes"/>
      <point x="1096" y="1075"/>
      <point x="892" y="1204"/>
      <point x="567" y="1204" type="curve" smooth="yes"/>
      <point x="376" y="1204"/>
      <point x="241" y="1161"/>
      <point x="154" y="1122" type="curve"/>
      <point x="136" y="947" type="line"/>
      <point x="241" y="987"/>
      <point x="386" y="1027"/>
      <point x="550" y="1027" type="curve" smooth="yes"/>
      <point x="756" y="1027"/>
      <point x="869" y="955"/>
      <point x="869" y="816" type="curve" smooth="yes"/>
      <point x="869" y="807" type="line" smooth="yes"/>
      <point x="869" y="660"/>
      <point x="741" y="591"/>
      <point x="496" y="591" type="curve" smooth="yes"/>
      <point x="88" y="591" type="line"/>
      <point x="88" y="435" type="line"/>
    </contour>
    <contour>
      <point x="852" y="-26" type="curve" smooth="yes"/>
      <point x="954" y="-26"/>
      <point x="1027" y="-4"/>
      <point x="1079" y="17" type="curve"/>
      <point x="1100" y="192" type="line"/>
      <point x="1058" y="174"/>
      <point x="972" y="149"/>
      <point x="872" y="149" type="curve" smooth="yes"/>
      <point x="667" y="149"/>
      <point x="538" y="251"/>
      <point x="473" y="443" type="curve" smooth="yes"/>
      <point x="448" y="517" type="line"/>
      <point x="245" y="486" type="line"/>
      <point x="270" y="403" type="line" smooth="yes"/>
      <point x="354" y="126"/>
      <point x="556" y="-26"/>
    </contour>
  </outline>
</glyph>
<glyph name="La.gj" format="2">
  <advance width="1847"/>
  <unicode hex="0AB2"/>
  <anchor x="1503" y="-87" name="Bottom"/>
  <anchor x="1483" y="1259" name="Top"/>
  <anchor x="1534" y="1259" name="Top2"/>
  <outline>
    <contour>
      <point x="1427" y="481" type="line"/>
      <point x="1642" y="481" type="line"/>
      <point x="1642" y="1172" type="line"/>
      <point x="1427" y="1172" type="line"/>
    </contour>
    <contour>
      <point x="1427" y="0" type="line"/>
      <point x="1642" y="0" type="line"/>
      <point x="1642" y="590" type="line"/>
      <point x="1427" y="590" type="line"/>
    </contour>
    <contour>
      <point x="784" y="5" type="curve" smooth="yes"/>
      <point x="944" y="5"/>
      <point x="1044" y="32"/>
      <point x="1119" y="62" type="curve"/>
      <point x="1139" y="240" type="line"/>
      <point x="1062" y="209"/>
      <point x="959" y="184"/>
      <point x="813" y="184" type="curve" smooth="yes"/>
      <point x="509" y="184"/>
      <point x="364" y="324"/>
      <point x="364" y="590" type="curve" smooth="yes"/>
      <point x="364" y="598" type="line" smooth="yes"/>
      <point x="364" y="858"/>
      <point x="505" y="995"/>
      <point x="802" y="995" type="curve" smooth="yes"/>
      <point x="936" y="995"/>
      <point x="1032" y="976"/>
      <point x="1103" y="953" type="curve"/>
      <point x="1082" y="1122" type="line"/>
      <point x="1017" y="1147"/>
      <point x="911" y="1172"/>
      <point x="768" y="1172" type="curve" smooth="yes"/>
      <point x="350" y="1172"/>
      <point x="137" y="972"/>
      <point x="137" y="599" type="curve" smooth="yes"/>
      <point x="137" y="588" type="line" smooth="yes"/>
      <point x="137" y="209"/>
      <point x="355" y="5"/>
    </contour>
    <contour>
      <point x="738" y="484" type="line"/>
      <point x="1541" y="624" type="line"/>
      <point x="1559" y="798" type="line"/>
      <point x="756" y="665" type="line"/>
    </contour>
  </outline>
</glyph>
<glyph name="Lla.gj" format="2">
  <advance width="1984"/>
  <unicode hex="0AB3"/>
  <anchor x="1640" y="-87" name="Bottom"/>
  <anchor x="1475" y="1259" name="Top"/>
  <anchor x="1325" y="1259" name="Top2"/>
  <outline>
    <contour>
      <point x="1563" y="0" type="line"/>
      <point x="1779" y="0" type="line"/>
      <point x="1779" y="758" type="line" smooth="yes"/>
      <point x="1779" y="1056"/>
      <point x="1622" y="1204"/>
      <point x="1325" y="1204" type="curve" smooth="yes"/>
      <point x="1031" y="1204"/>
      <point x="871" y="1058"/>
      <point x="871" y="781" type="curve" smooth="yes"/>
      <point x="871" y="707"/>
      <point x="879" y="621"/>
      <point x="879" y="547" type="curve" smooth="yes"/>
      <point x="879" y="367"/>
      <point x="798" y="281"/>
      <point x="639" y="281" type="curve" smooth="yes"/>
      <point x="455" y="281"/>
      <point x="362" y="395"/>
      <point x="362" y="624" type="curve" smooth="yes"/>
      <point x="362" y="638" type="line" smooth="yes"/>
      <point x="362" y="848"/>
      <point x="443" y="1008"/>
      <point x="589" y="1172" type="curve"/>
      <point x="347" y="1172" type="line"/>
      <point x="223" y="1047"/>
      <point x="135" y="866"/>
      <point x="135" y="634" type="curve" smooth="yes"/>
      <point x="135" y="619" type="line" smooth="yes"/>
      <point x="135" y="277"/>
      <point x="306" y="102"/>
      <point x="639" y="102" type="curve" smooth="yes"/>
      <point x="939" y="102"/>
      <point x="1097" y="250"/>
      <point x="1097" y="539" type="curve" smooth="yes"/>
      <point x="1097" y="613"/>
      <point x="1089" y="699"/>
      <point x="1089" y="773" type="curve" smooth="yes"/>
      <point x="1089" y="939"/>
      <point x="1170" y="1026"/>
      <point x="1325" y="1026" type="curve" smooth="yes"/>
      <point x="1480" y="1026"/>
      <point x="1563" y="940"/>
      <point x="1563" y="757" type="curve" smooth="yes"/>
    </contour>
  </outline>
</glyph>
<glyph name="Va.gj" format="2">
  <advance width="1570"/>
  <unicode hex="0AB5"/>
  <anchor x="1226" y="-87" name="Bottom"/>
  <anchor x="1206" y="1259" name="Top"/>
  <anchor x="1257" y="1259" name="Top2"/>
  <outline>
    <contour>
      <point x="703" y="198" type="curve" smooth="yes"/>
      <point x="955" y="198"/>
      <point x="1087" y="293"/>
      <point x="1142" y="416" type="curve"/>
      <point x="1161" y="416" type="line"/>
      <point x="1153" y="610" type="line"/>
      <point x="1112" y="478"/>
      <point x="968" y="381"/>
      <point x="738" y="381" type="curve" smooth="yes"/>
      <point x="480" y="381"/>
      <point x="354" y="490"/>
      <point x="354" y="686" type="curve" smooth="yes"/>
      <point x="354" y="692" type="line" smooth="yes"/>
      <point x="354" y="890"/>
      <point x="476" y="995"/>
      <point x="723" y="995" type="curve" smooth="yes"/>
      <point x="837" y="995"/>
      <point x="915" y="980"/>
      <point x="971" y="961" type="curve"/>
      <point x="950" y="1136" type="line"/>
      <point x="897" y="1153"/>
      <point x="810" y="1172"/>
      <point x="689" y="1172" type="curve" smooth="yes"/>
      <point x="327" y="1172"/>
      <point x="127" y="1005"/>
      <point x="127" y="692" type="curve" smooth="yes"/>
      <point x="127" y="682" type="line" smooth="yes"/>
      <point x="127" y="367"/>
      <point x="331" y="198"/>
    </contour>
    <contour>
      <point x="1150" y="481" type="line"/>
      <point x="1365" y="481" type="line"/>
      <point x="1365" y="1172" type="line"/>
      <point x="1150" y="1172" type="line"/>
    </contour>
    <contour>
      <point x="1150" y="0" type="line"/>
      <point x="1365" y="0" type="line"/>
      <point x="1365" y="590" type="line"/>
      <point x="1150" y="590" type="line"/>
    </contour>
  </outline>
</glyph>
<glyph name="Sha.gj" format="2">
  <advance width="1925"/>
  <unicode hex="0AB6"/>
  <anchor x="1581" y="-87" name="Bottom"/>
  <anchor x="1561" y="1259" name="Top"/>
  <anchor x="1612" y="1259" name="Top2"/>
  <outline>
    <contour>
      <point x="1505" y="481" type="line"/>
      <point x="1720" y="481" type="line"/>
      <point x="1720" y="1172" type="line"/>
      <point x="1505" y="1172" type="line"/>
    </contour>
    <contour>
      <point x="1505" y="0" type="line"/>
      <point x="1720" y="0" type="line"/>
      <point x="1720" y="590" type="line"/>
      <point x="1505" y="590" type="line"/>
    </contour>
    <contour>
      <point x="353" y="350" type="line"/>
      <point x="362" y="381" type="line"/>
      <point x="598" y="381" type="line" smooth="yes"/>
      <point x="974" y="381"/>
      <point x="1182" y="529"/>
      <point x="1182" y="797" type="curve" smooth="yes"/>
      <point x="1182" y="802" type="line" smooth="yes"/>
      <point x="1182" y="1069"/>
      <point x="1006" y="1204"/>
      <point x="665" y="1204" type="curve" smooth="yes"/>
      <point x="345" y="1204"/>
      <point x="175" y="1079"/>
      <point x="175" y="849" type="curve" smooth="yes"/>
      <point x="175" y="845" type="line" smooth="yes"/>
      <point x="175" y="786"/>
      <point x="197" y="734"/>
      <point x="222" y="695" type="curve"/>
      <point x="424" y="695" type="line"/>
      <point x="406" y="727"/>
      <point x="386" y="768"/>
      <point x="386" y="820" type="curve" smooth="yes"/>
      <point x="386" y="824" type="line" smooth="yes"/>
      <point x="386" y="963"/>
      <point x="484" y="1037"/>
      <point x="665" y="1037" type="curve" smooth="yes"/>
      <point x="857" y="1037"/>
      <point x="959" y="959"/>
      <point x="959" y="806" type="curve" smooth="yes"/>
      <point x="959" y="803" type="line" smooth="yes"/>
      <point x="959" y="627"/>
      <point x="823" y="547"/>
      <point x="560" y="547" type="curve" smooth="yes"/>
      <point x="89" y="547" type="line"/>
      <point x="89" y="394" type="line"/>
    </contour>
    <contour>
      <point x="868" y="-26" type="curve" smooth="yes"/>
      <point x="978" y="-26"/>
      <point x="1070" y="-8"/>
      <point x="1128" y="14" type="curve"/>
      <point x="1148" y="188" type="line"/>
      <point x="1070" y="162"/>
      <point x="998" y="147"/>
      <point x="888" y="147" type="curve" smooth="yes"/>
      <point x="689" y="147"/>
      <point x="553" y="222"/>
      <point x="473" y="449" type="curve" smooth="yes"/>
      <point x="460" y="486" type="line"/>
      <point x="256" y="446" type="line"/>
      <point x="266" y="415" type="line" smooth="yes"/>
      <point x="367" y="103"/>
      <point x="571" y="-26"/>
    </contour>
  </outline>
</glyph>
<glyph name="Ssa.gj" format="2">
  <advance width="1584"/>
  <unicode hex="0AB7"/>
  <anchor x="1240" y="-87" name="Bottom"/>
  <anchor x="1220" y="1259" name="Top"/>
  <anchor x="1271" y="1259" name="Top2"/>
  <outline>
    <contour>
      <point x="1156" y="531" type="line"/>
      <point x="1222" y="658" type="line"/>
      <point x="353" y="1146" type="line"/>
      <point x="318" y="1031" type="line"/>
      <point x="375" y="979"/>
      <point x="477" y="902"/>
      <point x="572" y="850" type="curve" smooth="yes"/>
    </contour>
    <contour>
      <point x="737" y="207" type="curve" smooth="yes"/>
      <point x="982" y="207"/>
      <point x="1115" y="302"/>
      <point x="1155" y="419" type="curve"/>
      <point x="1175" y="419" type="line"/>
      <point x="1168" y="603" type="line"/>
      <point x="1126" y="475"/>
      <point x="1000" y="387"/>
      <point x="787" y="387" type="curve" smooth="yes"/>
      <point x="568" y="387"/>
      <point x="448" y="486"/>
      <point x="448" y="716" type="curve" smooth="yes"/>
      <point x="448" y="805" type="line"/>
      <point x="232" y="802" type="line"/>
      <point x="232" y="682" type="line" smooth="yes"/>
      <point x="232" y="356"/>
      <point x="414" y="207"/>
    </contour>
    <contour>
      <point x="232" y="775" type="line"/>
      <point x="448" y="775" type="line"/>
      <point x="448" y="907" type="line" smooth="yes"/>
      <point x="448" y="1097"/>
      <point x="367" y="1183"/>
      <point x="207" y="1183" type="curve" smooth="yes"/>
      <point x="146" y="1183"/>
      <point x="94" y="1175"/>
      <point x="52" y="1163" type="curve"/>
      <point x="38" y="1004" type="line"/>
      <point x="66" y="1011"/>
      <point x="96" y="1016"/>
      <point x="124" y="1016" type="curve" smooth="yes"/>
      <point x="200" y="1016"/>
      <point x="232" y="970"/>
      <point x="232" y="881" type="curve" smooth="yes"/>
    </contour>
    <contour>
      <point x="1164" y="481" type="line"/>
      <point x="1379" y="481" type="line"/>
      <point x="1379" y="1172" type="line"/>
      <point x="1164" y="1172" type="line"/>
    </contour>
    <contour>
      <point x="1164" y="0" type="line"/>
      <point x="1379" y="0" type="line"/>
      <point x="1379" y="590" type="line"/>
      <point x="1164" y="590" type="line"/>
    </contour>
  </outline>
</glyph>
<glyph name="Ha.gj" format="2">
  <advance width="1496"/>
  <unicode hex="0AB9"/>
  <anchor x="854" y="-158" name="Bottom"/>
  <anchor x="954" y="1259" name="Top"/>
  <anchor x="778" y="1259" name="Top2"/>
  <outline>
    <contour>
      <point x="832" y="-96" type="curve" smooth="yes"/>
      <point x="1017" y="-96"/>
      <point x="1191" y="-69"/>
      <point x="1323" y="-19" type="curve"/>
      <point x="1343" y="166" type="line"/>
      <point x="1206" y="114"/>
      <point x="1031" y="84"/>
      <point x="844" y="84" type="curve" smooth="yes"/>
      <point x="535" y="84"/>
      <point x="363" y="181"/>
      <point x="363" y="375" type="curve" smooth="yes"/>
      <point x="363" y="415"/>
      <point x="364" y="447"/>
      <point x="373" y="484" type="curve"/>
      <point x="156" y="484" type="line"/>
      <point x="143" y="439"/>
      <point x="136" y="391"/>
      <point x="136" y="339" type="curve" smooth="yes"/>
      <point x="136" y="52"/>
      <point x="376" y="-96"/>
    </contour>
    <contour>
      <point x="1086" y="296" type="curve"/>
      <point x="1291" y="296" type="line"/>
      <point x="1330" y="339"/>
      <point x="1354" y="408"/>
      <point x="1354" y="468" type="curve" smooth="yes"/>
      <point x="1354" y="657"/>
      <point x="1225" y="718"/>
      <point x="998" y="724" type="curve" smooth="yes"/>
      <point x="657" y="733" type="line" smooth="yes"/>
      <point x="488" y="737"/>
      <point x="416" y="775"/>
      <point x="416" y="860" type="curve" smooth="yes"/>
      <point x="416" y="863" type="line" smooth="yes"/>
      <point x="416" y="969"/>
      <point x="519" y="1028"/>
      <point x="759" y="1028" type="curve" smooth="yes"/>
      <point x="955" y="1028"/>
      <point x="1127" y="986"/>
      <point x="1256" y="930" type="curve"/>
      <point x="1230" y="1113" type="line"/>
      <point x="1124" y="1161"/>
      <point x="959" y="1204"/>
      <point x="748" y="1204" type="curve" smooth="yes"/>
      <point x="378" y="1204"/>
      <point x="189" y="1091"/>
      <point x="189" y="863" type="curve" smooth="yes"/>
      <point x="189" y="858" type="line" smooth="yes"/>
      <point x="189" y="651"/>
      <point x="340" y="565"/>
      <point x="621" y="558" type="curve" smooth="yes"/>
      <point x="909" y="551" type="line" smooth="yes"/>
      <point x="1060" y="547"/>
      <point x="1129" y="519"/>
      <point x="1129" y="415" type="curve" smooth="yes"/>
      <point x="1129" y="374"/>
      <point x="1115" y="337"/>
    </contour>
  </outline>
</glyph>
<glyph name="Nukta.gj" format="2">
  <unicode hex="0ABC"/>
  <anchor x="220" y="-87" name="_Bottom"/>
  <outline>
    <contour>
      <point x="251" y="-340" type="curve" smooth="yes"/>
      <point x="357" y="-340"/>
      <point x="401" y="-289"/>
      <point x="401" y="-215" type="curve" smooth="yes"/>
      <point x="401" y="-211" type="line" smooth="yes"/>
      <point x="401" y="-137"/>
      <point x="353" y="-87"/>
      <point x="251" y="-87" type="curve" smooth="yes"/>
      <point x="149" y="-87"/>
      <point x="100" y="-139"/>
      <point x="100" y="-211" type="curve" smooth="yes"/>
      <point x="100" y="-215" type="line" smooth="yes"/>
      <point x="100" y="-289"/>
      <point x="146" y="-340"/>
    </contour>
  </outline>
</glyph>
<glyph name="Avagraha.gj" format="2">
  <advance width="1430"/>
  <unicode hex="0ABD"/>
  <outline>
    <contour>
      <point x="729" y="-26" type="curve" smooth="yes"/>
      <point x="1088" y="-26"/>
      <point x="1297" y="83"/>
      <point x="1297" y="333" type="curve" smooth="yes"/>
      <point x="1297" y="337" type="line" smooth="yes"/>
      <point x="1297" y="560"/>
      <point x="1168" y="667"/>
      <point x="775" y="698" type="curve" smooth="yes"/>
      <point x="673" y="706" type="line" smooth="yes"/>
      <point x="454" y="723"/>
      <point x="373" y="757"/>
      <point x="373" y="853" type="curve" smooth="yes"/>
      <point x="373" y="855" type="line" smooth="yes"/>
      <point x="373" y="952"/>
      <point x="458" y="1007"/>
      <point x="654" y="1007" type="curve" smooth="yes"/>
      <point x="1203" y="1007" type="line"/>
      <point x="1178" y="1172" type="line"/>
      <point x="633" y="1172" type="line" smooth="yes"/>
      <point x="310" y="1172"/>
      <point x="146" y="1066"/>
      <point x="146" y="855" type="curve" smooth="yes"/>
      <point x="146" y="852" type="line" smooth="yes"/>
      <point x="146" y="642"/>
      <point x="287" y="549"/>
      <point x="635" y="527" type="curve" smooth="yes"/>
      <point x="730" y="521" type="line" smooth="yes"/>
      <point x="998" y="504"/>
      <point x="1070" y="451"/>
      <point x="1070" y="338" type="curve" smooth="yes"/>
      <point x="1070" y="336" type="line" smooth="yes"/>
      <point x="1070" y="213"/>
      <point x="956" y="154"/>
      <point x="708" y="154" type="curve" smooth="yes"/>
      <point x="475" y="154"/>
      <point x="283" y="216"/>
      <point x="130" y="290" type="curve"/>
      <point x="156" y="94" type="line"/>
      <point x="287" y="33"/>
      <point x="479" y="-26"/>
    </contour>
  </outline>
</glyph>
<glyph name="MatraA.gj" format="2">
  <advance width="625"/>
  <unicode hex="0ABE"/>
  <anchor x="281" y="-87" name="Bottom"/>
  <anchor x="261" y="1259" name="Top"/>
  <anchor x="312" y="1259" name="Top2"/>
  <outline>
    <contour>
      <point x="205" y="481" type="line"/>
      <point x="420" y="481" type="line"/>
      <point x="420" y="1172" type="line"/>
      <point x="205" y="1172" type="line"/>
    </contour>
    <contour>
      <point x="205" y="0" type="line"/>
      <point x="420" y="0" type="line"/>
      <point x="420" y="590" type="line"/>
      <point x="205" y="590" type="line"/>
    </contour>
  </outline>
</glyph>
<glyph name="MatraI.gj" format="2">
  <advance width="624"/>
  <unicode hex="0ABF"/>
  <anchor x="281" y="-87" name="Bottom"/>
  <anchor x="261" y="1259" name="Top"/>
  <anchor x="312" y="1259" name="Top2"/>
  <outline>
    <contour>
      <point x="205" y="1139" type="curve"/>
      <point x="420" y="1139" type="line"/>
      <point x="420" y="1190"/>
      <point x="420" y="1195"/>
      <point x="420" y="1240" type="curve" smooth="yes"/>
      <point x="420" y="1512"/>
      <point x="567" y="1657"/>
      <point x="919" y="1657" type="curve" smooth="yes"/>
      <point x="1268" y="1657"/>
      <point x="1582" y="1474"/>
      <point x="1772" y="1259" type="curve"/>
      <point x="1912" y="1381" type="line"/>
      <point x="1701" y="1632"/>
      <point x="1341" y="1830"/>
      <point x="913" y="1830" type="curve" smooth="yes"/>
      <point x="454" y="1830"/>
      <point x="205" y="1634"/>
      <point x="205" y="1240" type="curve" smooth="yes"/>
      <point x="205" y="1190"/>
      <point x="205" y="1191"/>
    </contour>
    <contour>
      <point x="205" y="481" type="line"/>
      <point x="420" y="481" type="line"/>
      <point x="420" y="1172" type="line"/>
      <point x="205" y="1172" type="line"/>
    </contour>
    <contour>
      <point x="205" y="0" type="line"/>
      <point x="420" y="0" type="line"/>
      <point x="420" y="590" type="line"/>
      <point x="205" y="590" type="line"/>
    </contour>
  </outline>
</glyph>
<glyph name="MatraIi.gj" format="2">
  <advance width="625"/>
  <unicode hex="0AC0"/>
  <anchor x="281" y="-87" name="Bottom"/>
  <anchor x="261" y="1259" name="Top"/>
  <anchor x="312" y="1259" name="Top2"/>
  <outline>
    <contour>
      <point x="205" y="1100" type="line"/>
      <point x="420" y="1100" type="line"/>
      <point x="420" y="1398" type="line" smooth="yes"/>
      <point x="420" y="1692"/>
      <point x="256" y="1830"/>
      <point x="-3" y="1830" type="curve" smooth="yes"/>
      <point x="-270" y="1830"/>
      <point x="-420" y="1700"/>
      <point x="-420" y="1426" type="curve" smooth="yes"/>
      <point x="-420" y="1259" type="line"/>
      <point x="-205" y="1259" type="line"/>
      <point x="-205" y="1426" type="line" smooth="yes"/>
      <point x="-205" y="1584"/>
      <point x="-138" y="1657"/>
      <point x="-3" y="1657" type="curve" smooth="yes"/>
      <point x="144" y="1657"/>
      <point x="205" y="1581"/>
      <point x="205" y="1396" type="curve" smooth="yes"/>
    </contour>
    <contour>
      <point x="205" y="481" type="line"/>
      <point x="420" y="481" type="line"/>
      <point x="420" y="1172" type="line"/>
      <point x="205" y="1172" type="line"/>
    </contour>
    <contour>
      <point x="205" y="0" type="line"/>
      <point x="420" y="0" type="line"/>
      <point x="420" y="590" type="line"/>
      <point x="205" y="590" type="line"/>
    </contour>
  </outline>
</glyph>
<glyph name="MatraU.gj" format="2">
  <unicode hex="0AC1"/>
  <guideline x="1095" y="-400" angle="0"/>
  <guideline x="1103" y="-384" angle="90"/>
  <anchor x="917" y="-87" name="_Bottom"/>
  <outline>
    <contour>
      <point x="849" y="-716" type="curve" smooth="yes"/>
      <point x="1159" y="-716"/>
      <point x="1291" y="-587"/>
      <point x="1291" y="-400" type="curve" smooth="yes"/>
      <point x="1291" y="-394" type="line" smooth="yes"/>
      <point x="1291" y="-205"/>
      <point x="1150" y="-87"/>
      <point x="903" y="-87" type="curve" smooth="yes"/>
      <point x="792" y="-87"/>
      <point x="705" y="-109"/>
      <point x="629" y="-146" type="curve"/>
      <point x="611" y="-325" type="line"/>
      <point x="693" y="-285"/>
      <point x="787" y="-255"/>
      <point x="879" y="-255" type="curve" smooth="yes"/>
      <point x="1022" y="-255"/>
      <point x="1087" y="-304"/>
      <point x="1087" y="-394" type="curve" smooth="yes"/>
      <point x="1087" y="-398" type="line" smooth="yes"/>
      <point x="1087" y="-486"/>
      <point x="1023" y="-547"/>
      <point x="849" y="-547" type="curve" smooth="yes"/>
      <point x="627" y="-547"/>
      <point x="459" y="-460"/>
      <point x="338" y="-242" type="curve"/>
      <point x="107" y="-242" type="line"/>
      <point x="257" y="-560"/>
      <point x="503" y="-716"/>
    </contour>
  </outline>
</glyph>
<glyph name="MatraUu.gj" format="2">
  <unicode hex="0AC2"/>
  <anchor x="539" y="-87" name="_Bottom"/>
  <outline>
    <contour>
      <point x="1059" y="-715" type="curve"/>
      <point x="1280" y="-715" type="line"/>
      <point x="1139" y="-336"/>
      <point x="939" y="-86"/>
      <point x="541" y="-86" type="curve" smooth="yes"/>
      <point x="260" y="-86"/>
      <point x="108" y="-205"/>
      <point x="108" y="-408" type="curve" smooth="yes"/>
      <point x="108" y="-418" type="line" smooth="yes"/>
      <point x="108" y="-614"/>
      <point x="266" y="-718"/>
      <point x="498" y="-718" type="curve" smooth="yes"/>
      <point x="603" y="-718"/>
      <point x="688" y="-701"/>
      <point x="750" y="-672" type="curve"/>
      <point x="770" y="-494" type="line"/>
      <point x="699" y="-529"/>
      <point x="618" y="-549"/>
      <point x="526" y="-549" type="curve" smooth="yes"/>
      <point x="380" y="-549"/>
      <point x="315" y="-495"/>
      <point x="315" y="-407" type="curve" smooth="yes"/>
      <point x="315" y="-403" type="line" smooth="yes"/>
      <point x="315" y="-312"/>
      <point x="386" y="-255"/>
      <point x="550" y="-255" type="curve" smooth="yes"/>
      <point x="797" y="-255"/>
      <point x="950" y="-420"/>
    </contour>
  </outline>
</glyph>
<glyph name="MatraRu.gj" format="2">
  <unicode hex="0AC3"/>
  <guideline x="276" y="-402" angle="0"/>
  <anchor x="630" y="-87" name="_Bottom"/>
  <outline>
    <contour>
      <point x="545" y="-716" type="curve" smooth="yes"/>
      <point x="706" y="-716"/>
      <point x="825" y="-688"/>
      <point x="923" y="-633" type="curve"/>
      <point x="938" y="-455" type="line"/>
      <point x="836" y="-516"/>
      <point x="705" y="-549"/>
      <point x="567" y="-549" type="curve" smooth="yes"/>
      <point x="403" y="-549"/>
      <point x="312" y="-501"/>
      <point x="312" y="-398" type="curve" smooth="yes"/>
      <point x="312" y="-394" type="line" smooth="yes"/>
      <point x="312" y="-289"/>
      <point x="393" y="-250"/>
      <point x="566" y="-250" type="curve" smooth="yes"/>
      <point x="814" y="-250" type="line"/>
      <point x="814" y="-88" type="line"/>
      <point x="535" y="-88" type="line" smooth="yes"/>
      <point x="250" y="-88"/>
      <point x="108" y="-191"/>
      <point x="108" y="-397" type="curve" smooth="yes"/>
      <point x="108" y="-405" type="line" smooth="yes"/>
      <point x="108" y="-605"/>
      <point x="284" y="-716"/>
    </contour>
  </outline>
</glyph>
<glyph name="MatraRuu.gj" format="2">
  <unicode hex="0AC4"/>
  <anchor x="570" y="-87" name="_Bottom"/>
  <outline>
    <contour>
      <point x="505" y="-594" type="curve" smooth="yes"/>
      <point x="641" y="-596"/>
      <point x="757" y="-572"/>
      <point x="845" y="-526" type="curve"/>
      <point x="858" y="-366" type="line"/>
      <point x="757" y="-416"/>
      <point x="644" y="-441"/>
      <point x="516" y="-441" type="curve" smooth="yes"/>
      <point x="368" y="-441"/>
      <point x="293" y="-405"/>
      <point x="293" y="-337" type="curve" smooth="yes"/>
      <point x="293" y="-331" type="line" smooth="yes"/>
      <point x="293" y="-257"/>
      <point x="362" y="-232"/>
      <point x="509" y="-232" type="curve" smooth="yes"/>
      <point x="744" y="-232" type="line"/>
      <point x="744" y="-87" type="line"/>
      <point x="478" y="-87" type="line" smooth="yes"/>
      <point x="222" y="-87"/>
      <point x="100" y="-169"/>
      <point x="100" y="-329" type="curve" smooth="yes"/>
      <point x="100" y="-339" type="line" smooth="yes"/>
      <point x="100" y="-441"/>
      <point x="168" y="-522"/>
      <point x="287" y="-555" type="curve"/>
      <point x="350" y="-577" type="line"/>
      <point x="397" y="-595"/>
      <point x="452" y="-593"/>
    </contour>
    <contour>
      <point x="512" y="-951" type="curve" smooth="yes"/>
      <point x="643" y="-951"/>
      <point x="762" y="-929"/>
      <point x="850" y="-883" type="curve"/>
      <point x="863" y="-723" type="line"/>
      <point x="769" y="-770"/>
      <point x="649" y="-798"/>
      <point x="523" y="-798" type="curve" smooth="yes"/>
      <point x="374" y="-798"/>
      <point x="300" y="-762"/>
      <point x="300" y="-693" type="curve" smooth="yes"/>
      <point x="300" y="-688" type="line" smooth="yes"/>
      <point x="300" y="-628"/>
      <point x="349" y="-597"/>
      <point x="462" y="-591" type="curve"/>
      <point x="271" y="-537" type="line"/>
      <point x="271" y="-559" type="line"/>
      <point x="166" y="-573"/>
      <point x="105" y="-628"/>
      <point x="105" y="-717" type="curve" smooth="yes"/>
      <point x="105" y="-724" type="line" smooth="yes"/>
      <point x="105" y="-865"/>
      <point x="260" y="-951"/>
    </contour>
  </outline>
</glyph>
<glyph name="MatraChandraE.gj" format="2">
  <unicode hex="0AC5"/>
  <anchor x="872" y="1259" name="_Top"/>
  <outline>
    <contour>
      <point x="941" y="1259" type="curve" smooth="yes"/>
      <point x="1033" y="1259"/>
      <point x="1099" y="1284"/>
      <point x="1140" y="1313" type="curve"/>
      <point x="1140" y="1489" type="line"/>
      <point x="1106" y="1462"/>
      <point x="1044" y="1433"/>
      <point x="958" y="1433" type="curve" smooth="yes"/>
      <point x="863" y="1433"/>
      <point x="778" y="1464"/>
      <point x="649" y="1555" type="curve" smooth="yes"/>
      <point x="222" y="1858" type="line"/>
      <point x="100" y="1678" type="line"/>
      <point x="543" y="1397" type="line" smooth="yes"/>
      <point x="704" y="1295"/>
      <point x="818" y="1259"/>
    </contour>
  </outline>
</glyph>
<glyph name="MatraE.gj" format="2">
  <unicode hex="0AC7"/>
  <guideline x="979" y="1328" angle="60.6621"/>
  <anchor x="940" y="1259" name="_Top"/>
  <outline>
    <contour>
      <point x="940" y="1259" type="curve"/>
      <point x="1017" y="1396" type="line"/>
      <point x="750" y="1550"/>
      <point x="484" y="1705"/>
      <point x="217" y="1858" type="curve"/>
      <point x="110" y="1661" type="line"/>
      <point x="387" y="1526"/>
      <point x="664" y="1391"/>
    </contour>
  </outline>
</glyph>
<glyph name="MatraAi.gj" format="2">
  <unicode hex="0AC8"/>
  <guideline x="435" y="2011" angle="45.8747"/>
  <guideline x="124" y="1584" angle="72.4007"/>
  <anchor x="954" y="1259" name="_Top"/>
  <outline>
    <contour>
      <point x="953" y="1259" type="line"/>
      <point x="1050" y="1407" type="line"/>
      <point x="505" y="2077" type="line"/>
      <point x="351" y="1929" type="line"/>
      <point x="864" y="1419" type="line"/>
      <point x="862" y="1414" type="line"/>
      <point x="153" y="1677" type="line"/>
      <point x="94" y="1491" type="line"/>
    </contour>
  </outline>
</glyph>
<glyph name="MatraChandraO.gj" format="2">
  <advance width="625"/>
  <unicode hex="0AC9"/>
  <anchor x="281" y="-87" name="Bottom"/>
  <anchor x="261" y="1259" name="Top"/>
  <anchor x="312" y="1259" name="Top2"/>
  <outline>
    <contour>
      <point x="205" y="481" type="line"/>
      <point x="420" y="481" type="line"/>
      <point x="420" y="1172" type="line"/>
      <point x="205" y="1172" type="line"/>
    </contour>
    <contour>
      <point x="205" y="0" type="line"/>
      <point x="420" y="0" type="line"/>
      <point x="420" y="590" type="line"/>
      <point x="205" y="590" type="line"/>
    </contour>
    <contour>
      <point x="331" y="1259" type="curve" smooth="yes"/>
      <point x="423" y="1259"/>
      <point x="489" y="1284"/>
      <point x="530" y="1313" type="curve"/>
      <point x="530" y="1489" type="line"/>
      <point x="496" y="1462"/>
      <point x="434" y="1433"/>
      <point x="348" y="1433" type="curve" smooth="yes"/>
      <point x="253" y="1433"/>
      <point x="168" y="1464"/>
      <point x="39" y="1555" type="curve" smooth="yes"/>
      <point x="-388" y="1858" type="line"/>
      <point x="-510" y="1678" type="line"/>
      <point x="-67" y="1397" type="line" smooth="yes"/>
      <point x="94" y="1295"/>
      <point x="208" y="1259"/>
    </contour>
  </outline>
</glyph>
<glyph name="MatraO.gj" format="2">
  <advance width="625"/>
  <unicode hex="0ACB"/>
  <guideline x="205" y="1327" angle="270"/>
  <guideline x="261" y="1327" angle="270"/>
  <anchor x="281" y="-87" name="Bottom"/>
  <anchor x="261" y="1259" name="Top"/>
  <anchor x="312" y="1259" name="Top2"/>
  <outline>
    <contour>
      <point x="205" y="481" type="line"/>
      <point x="420" y="481" type="line"/>
      <point x="420" y="1172" type="line"/>
      <point x="205" y="1172" type="line"/>
    </contour>
    <contour>
      <point x="205" y="0" type="line"/>
      <point x="420" y="0" type="line"/>
      <point x="420" y="590" type="line"/>
      <point x="205" y="590" type="line"/>
    </contour>
    <contour>
      <point x="261" y="1259" type="curve"/>
      <point x="338" y="1396" type="line"/>
      <point x="71" y="1550"/>
      <point x="-195" y="1705"/>
      <point x="-462" y="1858" type="curve"/>
      <point x="-569" y="1661" type="line"/>
      <point x="-292" y="1526"/>
      <point x="-15" y="1391"/>
    </contour>
  </outline>
</glyph>
<glyph name="MatraAu.gj" format="2">
  <advance width="625"/>
  <unicode hex="0ACC"/>
  <anchor x="281" y="-87" name="Bottom"/>
  <anchor x="261" y="1259" name="Top"/>
  <anchor x="312" y="1259" name="Top2"/>
  <outline>
    <contour>
      <point x="205" y="481" type="line"/>
      <point x="420" y="481" type="line"/>
      <point x="420" y="1172" type="line"/>
      <point x="205" y="1172" type="line"/>
    </contour>
    <contour>
      <point x="205" y="0" type="line"/>
      <point x="420" y="0" type="line"/>
      <point x="420" y="590" type="line"/>
      <point x="205" y="590" type="line"/>
    </contour>
    <contour>
      <point x="261" y="1259" type="line"/>
      <point x="358" y="1407" type="line"/>
      <point x="-187" y="2077" type="line"/>
      <point x="-341" y="1929" type="line"/>
      <point x="172" y="1419" type="line"/>
      <point x="170" y="1414" type="line"/>
      <point x="-539" y="1677" type="line"/>
      <point x="-598" y="1491" type="line"/>
    </contour>
  </outline>
</glyph>
<glyph name="Halant.gj" format="2">
  <unicode hex="0ACD"/>
  <guideline x="728" y="-464" angle="90"/>
  <anchor x="170" y="-87" name="_Bottom"/>
  <outline>
    <contour>
      <point x="631" y="-679" type="line"/>
      <point x="727" y="-575" type="line"/>
      <point x="224" y="-113" type="line"/>
      <point x="88" y="-263" type="line"/>
    </contour>
  </outline>
</glyph>
<glyph name="Om.gj" format="2">
  <advance width="2412"/>
  <unicode hex="0AD0"/>
  <anchor x="1627" y="1088" name="_Top2"/>
  <outline>
    <contour>
      <point x="1826" y="40" type="curve" smooth="yes"/>
      <point x="2171" y="40"/>
      <point x="2325" y="198"/>
      <point x="2325" y="502" type="curve" smooth="yes"/>
      <point x="2325" y="522" type="line" smooth="yes"/>
      <point x="2325" y="823"/>
      <point x="2180" y="1005"/>
      <point x="1847" y="1005" type="curve" smooth="yes"/>
      <point x="1613" y="1005"/>
      <point x="1498" y="914"/>
      <point x="1407" y="720" type="curve" smooth="yes"/>
      <point x="1391" y="686" type="line" smooth="yes"/>
      <point x="1340" y="577"/>
      <point x="1298" y="534"/>
      <point x="1192" y="533" type="curve" smooth="yes"/>
      <point x="1133" y="532"/>
      <point x="1077" y="549"/>
      <point x="1028" y="565" type="curve"/>
      <point x="1048" y="444" type="line"/>
      <point x="1137" y="399"/>
      <point x="1202" y="366"/>
      <point x="1288" y="366" type="curve" smooth="yes"/>
      <point x="1431" y="366"/>
      <point x="1496" y="446"/>
      <point x="1564" y="596" type="curve" smooth="yes"/>
      <point x="1579" y="629" type="line" smooth="yes"/>
      <point x="1645" y="774"/>
      <point x="1710" y="829"/>
      <point x="1847" y="829" type="curve" smooth="yes"/>
      <point x="2024" y="829"/>
      <point x="2099" y="722"/>
      <point x="2099" y="518" type="curve" smooth="yes"/>
      <point x="2099" y="510" type="line" smooth="yes"/>
      <point x="2099" y="314"/>
      <point x="2008" y="212"/>
      <point x="1808" y="212" type="curve" smooth="yes"/>
      <point x="1696" y="212"/>
      <point x="1604" y="238"/>
      <point x="1537" y="264" type="curve"/>
      <point x="1557" y="88" type="line"/>
      <point x="1619" y="66"/>
      <point x="1708" y="40"/>
    </contour>
    <contour>
      <point x="1627" y="1145" type="curve" smooth="yes"/>
      <point x="1915" y="1145"/>
      <point x="2066" y="1261"/>
      <point x="2066" y="1474" type="curve" smooth="yes"/>
      <point x="2066" y="1484"/>
      <point x="2066" y="1493"/>
      <point x="2064" y="1513" type="curve"/>
      <point x="1884" y="1513" type="line"/>
      <point x="1884" y="1495" type="line" smooth="yes"/>
      <point x="1884" y="1363"/>
      <point x="1794" y="1293"/>
      <point x="1627" y="1293" type="curve" smooth="yes"/>
      <point x="1455" y="1293"/>
      <point x="1370" y="1364"/>
      <point x="1370" y="1495" type="curve" smooth="yes"/>
      <point x="1370" y="1513" type="line"/>
      <point x="1190" y="1513" type="line"/>
      <point x="1188" y="1493"/>
      <point x="1188" y="1484"/>
      <point x="1188" y="1474" type="curve" smooth="yes"/>
      <point x="1188" y="1261"/>
      <point x="1334" y="1145"/>
    </contour>
    <contour>
      <point x="1627" y="1420" type="curve" smooth="yes"/>
      <point x="1709" y="1420"/>
      <point x="1750" y="1469"/>
      <point x="1750" y="1535" type="curve" smooth="yes"/>
      <point x="1750" y="1540" type="line" smooth="yes"/>
      <point x="1750" y="1606"/>
      <point x="1709" y="1655"/>
      <point x="1627" y="1655" type="curve" smooth="yes"/>
      <point x="1543" y="1655"/>
      <point x="1504" y="1606"/>
      <point x="1504" y="1540" type="curve" smooth="yes"/>
      <point x="1504" y="1535" type="line" smooth="yes"/>
      <point x="1504" y="1469"/>
      <point x="1543" y="1420"/>
    </contour>
    <contour>
      <point x="625" y="-26" type="curve" smooth="yes"/>
      <point x="993" y="-26"/>
      <point x="1203" y="87"/>
      <point x="1203" y="314" type="curve" smooth="yes"/>
      <point x="1203" y="315" type="line" smooth="yes"/>
      <point x="1203" y="494"/>
      <point x="1086" y="581"/>
      <point x="866" y="602" type="curve"/>
      <point x="866" y="607" type="line"/>
      <point x="1079" y="622"/>
      <point x="1185" y="699"/>
      <point x="1185" y="876" type="curve" smooth="yes"/>
      <point x="1185" y="878" type="line" smooth="yes"/>
      <point x="1185" y="1093"/>
      <point x="983" y="1204"/>
      <point x="627" y="1204" type="curve" smooth="yes"/>
      <point x="419" y="1204"/>
      <point x="257" y="1160"/>
      <point x="152" y="1111" type="curve"/>
      <point x="127" y="929" type="line"/>
      <point x="250" y="986"/>
      <point x="415" y="1029"/>
      <point x="603" y="1029" type="curve" smooth="yes"/>
      <point x="840" y="1029"/>
      <point x="958" y="971"/>
      <point x="958" y="852" type="curve" smooth="yes"/>
      <point x="958" y="850" type="line" smooth="yes"/>
      <point x="958" y="734"/>
      <point x="860" y="694"/>
      <point x="657" y="692" type="curve" smooth="yes"/>
      <point x="294" y="688" type="line"/>
      <point x="294" y="521" type="line"/>
      <point x="655" y="514" type="line" smooth="yes"/>
      <point x="873" y="510"/>
      <point x="976" y="461"/>
      <point x="976" y="339" type="curve" smooth="yes"/>
      <point x="976" y="337" type="line" smooth="yes"/>
      <point x="976" y="213"/>
      <point x="852" y="152"/>
      <point x="601" y="152" type="curve" smooth="yes"/>
      <point x="378" y="152"/>
      <point x="225" y="207"/>
      <point x="97" y="270" type="curve"/>
      <point x="120" y="81" type="line"/>
      <point x="225" y="27"/>
      <point x="392" y="-26"/>
    </contour>
  </outline>
</glyph>
<glyph name="VowelRuu.gj" format="2">
  <advance width="2341"/>
  <unicode hex="0AE0"/>
  <guideline x="2230" y="124" angle="85.486"/>
  <anchor x="1149" y="-87" name="Bottom"/>
  <anchor x="1129" y="1259" name="Top"/>
  <anchor x="1180" y="1259" name="Top2"/>
  <outline>
    <contour>
      <point x="1979" y="-2" type="curve" smooth="yes"/>
      <point x="2079" y="-2"/>
      <point x="2163" y="17"/>
      <point x="2224" y="48" type="curve"/>
      <point x="2236" y="204" type="line"/>
      <point x="2167" y="171"/>
      <point x="2096" y="154"/>
      <point x="2007" y="154" type="curve" smooth="yes"/>
      <point x="1878" y="154"/>
      <point x="1808" y="195"/>
      <point x="1808" y="272" type="curve" smooth="yes"/>
      <point x="1808" y="276" type="line" smooth="yes"/>
      <point x="1808" y="375"/>
      <point x="1892" y="418"/>
      <point x="2164" y="418" type="curve"/>
      <point x="2164" y="553" type="line"/>
      <point x="2044" y="612"/>
      <point x="1947" y="681"/>
      <point x="1894" y="776" type="curve"/>
      <point x="1723" y="710" type="line"/>
      <point x="1775" y="634"/>
      <point x="1876" y="563"/>
      <point x="1958" y="532" type="curve"/>
      <point x="1958" y="526" type="line"/>
      <point x="1723" y="514"/>
      <point x="1608" y="430"/>
      <point x="1608" y="260" type="curve" smooth="yes"/>
      <point x="1608" y="254" type="line" smooth="yes"/>
      <point x="1608" y="95"/>
      <point x="1747" y="-2"/>
    </contour>
    <contour>
      <point x="387" y="370" type="curve"/>
      <point x="650" y="420" type="line"/>
      <point x="639" y="452" type="line"/>
      <point x="739" y="508"/>
      <point x="797" y="602"/>
      <point x="797" y="728" type="curve" smooth="yes"/>
      <point x="797" y="733" type="line" smooth="yes"/>
      <point x="797" y="916"/>
      <point x="673" y="1031"/>
      <point x="429" y="1031" type="curve" smooth="yes"/>
      <point x="305" y="1031"/>
      <point x="211" y="998"/>
      <point x="150" y="964" type="curve"/>
      <point x="132" y="782" type="line"/>
      <point x="192" y="819"/>
      <point x="274" y="853"/>
      <point x="375" y="853" type="curve" smooth="yes"/>
      <point x="511" y="853"/>
      <point x="580" y="779"/>
      <point x="580" y="655" type="curve" smooth="yes"/>
      <point x="580" y="650" type="line" smooth="yes"/>
      <point x="580" y="521"/>
      <point x="518" y="435"/>
    </contour>
    <contour>
      <point x="129" y="115" type="line"/>
      <point x="1105" y="423" type="line"/>
      <point x="1105" y="599" type="line"/>
      <point x="801" y="498" type="line" smooth="yes"/>
      <point x="730" y="474"/>
      <point x="659" y="448"/>
      <point x="585" y="421" type="curve"/>
      <point x="567" y="431" type="line"/>
      <point x="129" y="300" type="line"/>
    </contour>
    <contour>
      <point x="1254" y="459" type="line"/>
      <point x="1869" y="662" type="line"/>
      <point x="1827" y="822" type="line"/>
      <point x="1254" y="635" type="line"/>
    </contour>
    <contour>
      <point x="1714" y="679" type="line"/>
      <point x="1927" y="705" type="line"/>
      <point x="1996" y="790" type="line"/>
      <point x="1981" y="882"/>
      <point x="1956" y="963"/>
      <point x="1919" y="1045" type="curve"/>
      <point x="1714" y="1045" type="line"/>
    </contour>
    <contour>
      <point x="1073" y="481" type="line"/>
      <point x="1288" y="481" type="line"/>
      <point x="1288" y="1172" type="line"/>
      <point x="1073" y="1172" type="line"/>
    </contour>
    <contour>
      <point x="1073" y="0" type="line"/>
      <point x="1288" y="0" type="line"/>
      <point x="1288" y="590" type="line"/>
      <point x="1073" y="590" type="line"/>
    </contour>
  </outline>
</glyph>
<glyph name="MatraLru.gj" format="2">
  <unicode hex="0AE2"/>
  <anchor x="938" y="-87" name="_Bottom"/>
  <outline>
    <contour>
      <point x="254" y="-672" type="curve"/>
      <point x="480" y="-672" type="line"/>
      <point x="351" y="-576"/>
      <point x="291" y="-481"/>
      <point x="291" y="-384" type="curve" smooth="yes"/>
      <point x="291" y="-379" type="line" smooth="yes"/>
      <point x="291" y="-284"/>
      <point x="350" y="-232"/>
      <point x="436" y="-232" type="curve" smooth="yes"/>
      <point x="520" y="-232"/>
      <point x="566" y="-274"/>
      <point x="569" y="-369" type="curve" smooth="yes"/>
      <point x="573" y="-495" type="line"/>
      <point x="740" y="-495" type="line"/>
      <point x="744" y="-370" type="line" smooth="yes"/>
      <point x="747" y="-272"/>
      <point x="802" y="-233"/>
      <point x="886" y="-233" type="curve" smooth="yes"/>
      <point x="974" y="-233"/>
      <point x="1022" y="-279"/>
      <point x="1022" y="-346" type="curve" smooth="yes"/>
      <point x="1022" y="-353" type="line"/>
      <point x="1210" y="-345" type="line"/>
      <point x="1210" y="-340" type="line" smooth="yes"/>
      <point x="1210" y="-202"/>
      <point x="1112" y="-87"/>
      <point x="912" y="-87" type="curve" smooth="yes"/>
      <point x="768" y="-87"/>
      <point x="687" y="-144"/>
      <point x="661" y="-236" type="curve"/>
      <point x="654" y="-236" type="line"/>
      <point x="628" y="-144"/>
      <point x="559" y="-86"/>
      <point x="415" y="-86" type="curve" smooth="yes"/>
      <point x="223" y="-86"/>
      <point x="100" y="-196"/>
      <point x="100" y="-367" type="curve" smooth="yes"/>
      <point x="100" y="-372" type="line" smooth="yes"/>
      <point x="100" y="-496"/>
      <point x="156" y="-591"/>
    </contour>
    <contour>
      <point x="1033" y="-910" type="curve" smooth="yes"/>
      <point x="1108" y="-910"/>
      <point x="1162" y="-896"/>
      <point x="1205" y="-871" type="curve"/>
      <point x="1214" y="-729" type="line"/>
      <point x="1172" y="-757"/>
      <point x="1120" y="-773"/>
      <point x="1059" y="-773" type="curve" smooth="yes"/>
      <point x="994" y="-773"/>
      <point x="954" y="-752"/>
      <point x="954" y="-707" type="curve" smooth="yes"/>
      <point x="954" y="-660"/>
      <point x="995" y="-632"/>
      <point x="1065" y="-580" type="curve" smooth="yes"/>
      <point x="1169" y="-502"/>
      <point x="1210" y="-443"/>
      <point x="1210" y="-344" type="curve" smooth="yes"/>
      <point x="1210" y="-341" type="line"/>
      <point x="1022" y="-350" type="line"/>
      <point x="1022" y="-351" type="line"/>
      <point x="1022" y="-410"/>
      <point x="992" y="-448"/>
      <point x="918" y="-505" type="curve" smooth="yes"/>
      <point x="823" y="-578"/>
      <point x="783" y="-632"/>
      <point x="783" y="-721" type="curve" smooth="yes"/>
      <point x="783" y="-837"/>
      <point x="882" y="-910"/>
    </contour>
  </outline>
</glyph>
<glyph name="MatraLruu.gj" format="2">
  <unicode hex="0AE3"/>
  <anchor x="938" y="-87" name="_Bottom"/>
  <outline>
    <contour>
      <point x="254" y="-672" type="curve"/>
      <point x="480" y="-672" type="line"/>
      <point x="351" y="-576"/>
      <point x="291" y="-482"/>
      <point x="291" y="-384" type="curve" smooth="yes"/>
      <point x="291" y="-380" type="line" smooth="yes"/>
      <point x="291" y="-284"/>
      <point x="350" y="-232"/>
      <point x="437" y="-232" type="curve" smooth="yes"/>
      <point x="520" y="-232"/>
      <point x="566" y="-275"/>
      <point x="569" y="-370" type="curve" smooth="yes"/>
      <point x="573" y="-495" type="line"/>
      <point x="740" y="-495" type="line"/>
      <point x="744" y="-371" type="line" smooth="yes"/>
      <point x="747" y="-273"/>
      <point x="802" y="-233"/>
      <point x="887" y="-233" type="curve" smooth="yes"/>
      <point x="974" y="-233"/>
      <point x="1022" y="-282"/>
      <point x="1022" y="-354" type="curve" smooth="yes"/>
      <point x="1022" y="-361" type="line"/>
      <point x="1211" y="-349" type="line"/>
      <point x="1211" y="-343" type="line" smooth="yes"/>
      <point x="1211" y="-204"/>
      <point x="1112" y="-87"/>
      <point x="912" y="-87" type="curve" smooth="yes"/>
      <point x="768" y="-87"/>
      <point x="687" y="-144"/>
      <point x="661" y="-237" type="curve"/>
      <point x="654" y="-237" type="line"/>
      <point x="628" y="-145"/>
      <point x="560" y="-86"/>
      <point x="416" y="-86" type="curve" smooth="yes"/>
      <point x="224" y="-86"/>
      <point x="100" y="-196"/>
      <point x="100" y="-368" type="curve" smooth="yes"/>
      <point x="100" y="-373" type="line" smooth="yes"/>
      <point x="100" y="-497"/>
      <point x="157" y="-591"/>
    </contour>
    <contour>
      <point x="1024" y="-901" type="curve" smooth="yes"/>
      <point x="1099" y="-901"/>
      <point x="1163" y="-888"/>
      <point x="1210" y="-861" type="curve"/>
      <point x="1219" y="-720" type="line"/>
      <point x="1172" y="-750"/>
      <point x="1115" y="-767"/>
      <point x="1051" y="-767" type="curve" smooth="yes"/>
      <point x="978" y="-767"/>
      <point x="940" y="-745"/>
      <point x="940" y="-705" type="curve" smooth="yes"/>
      <point x="940" y="-656"/>
      <point x="983" y="-633"/>
      <point x="1084" y="-562" type="curve" smooth="yes"/>
      <point x="1173" y="-499"/>
      <point x="1212" y="-441"/>
      <point x="1212" y="-345" type="curve" smooth="yes"/>
      <point x="1212" y="-340" type="line"/>
      <point x="1023" y="-356" type="line"/>
      <point x="1023" y="-360" type="line" smooth="yes"/>
      <point x="1023" y="-418"/>
      <point x="990" y="-450"/>
      <point x="907" y="-509" type="curve" smooth="yes"/>
      <point x="810" y="-578"/>
      <point x="770" y="-628"/>
      <point x="770" y="-711" type="curve" smooth="yes"/>
      <point x="770" y="-829"/>
      <point x="869" y="-901"/>
    </contour>
    <contour>
      <point x="1033" y="-1174" type="curve" smooth="yes"/>
      <point x="1116" y="-1174"/>
      <point x="1178" y="-1156"/>
      <point x="1221" y="-1130" type="curve"/>
      <point x="1229" y="-1006" type="line"/>
      <point x="1177" y="-1038"/>
      <point x="1122" y="-1053"/>
      <point x="1060" y="-1053" type="curve" smooth="yes"/>
      <point x="982" y="-1053"/>
      <point x="933" y="-1022"/>
      <point x="933" y="-970" type="curve" smooth="yes"/>
      <point x="933" y="-927"/>
      <point x="961" y="-901"/>
      <point x="1018" y="-887" type="curve"/>
      <point x="891" y="-853" type="line"/>
      <point x="891" y="-867" type="line"/>
      <point x="817" y="-886"/>
      <point x="778" y="-932"/>
      <point x="778" y="-1002" type="curve" smooth="yes"/>
      <point x="778" y="-1109"/>
      <point x="880" y="-1174"/>
    </contour>
  </outline>
</glyph>
<glyph name="Zero.gj" format="2">
  <advance width="1617"/>
  <unicode hex="0AE6"/>
  <outline>
    <contour>
      <point x="808" y="1204" type="curve" smooth="yes"/>
      <point x="396" y="1204"/>
      <point x="158" y="995"/>
      <point x="158" y="598" type="curve" smooth="yes"/>
      <point x="158" y="588" type="line"/>
      <point x="385" y="588" type="line"/>
      <point x="385" y="596" type="line" smooth="yes"/>
      <point x="385" y="877"/>
      <point x="534" y="1025"/>
      <point x="808" y="1025" type="curve" smooth="yes"/>
      <point x="1083" y="1025"/>
      <point x="1232" y="877"/>
      <point x="1232" y="596" type="curve" smooth="yes"/>
      <point x="1232" y="588" type="line"/>
      <point x="1459" y="588" type="line"/>
      <point x="1459" y="598" type="line" smooth="yes"/>
      <point x="1459" y="995"/>
      <point x="1220" y="1204"/>
    </contour>
    <contour>
      <point x="808" y="-26" type="curve" smooth="yes"/>
      <point x="1220" y="-26"/>
      <point x="1459" y="184"/>
      <point x="1459" y="582" type="curve" smooth="yes"/>
      <point x="1459" y="591" type="line"/>
      <point x="1232" y="591" type="line"/>
      <point x="1232" y="584" type="line" smooth="yes"/>
      <point x="1232" y="302"/>
      <point x="1083" y="153"/>
      <point x="808" y="153" type="curve" smooth="yes"/>
      <point x="534" y="153"/>
      <point x="385" y="302"/>
      <point x="385" y="584" type="curve" smooth="yes"/>
      <point x="385" y="593" type="line"/>
      <point x="158" y="593" type="line"/>
      <point x="158" y="582" type="line" smooth="yes"/>
      <point x="158" y="184"/>
      <point x="396" y="-26"/>
    </contour>
  </outline>
</glyph>
<glyph name="One.gj" format="2">
  <advance width="1450"/>
  <unicode hex="0AE7"/>
  <guideline x="1196" y="569" angle="180"/>
  <guideline x="1165" y="606" angle="180"/>
  <guideline x="1008" y="453" angle="90"/>
  <guideline x="1004" y="453" angle="90"/>
  <guideline x="356" y="784" angle="0"/>
  <outline>
    <contour>
      <point x="613" y="357" type="curve" smooth="yes"/>
      <point x="835" y="357"/>
      <point x="967" y="448"/>
      <point x="1004" y="569" type="curve"/>
      <point x="1026" y="569" type="line"/>
      <point x="1015" y="746" type="line"/>
      <point x="975" y="622"/>
      <point x="859" y="540"/>
      <point x="658" y="540" type="curve" smooth="yes"/>
      <point x="455" y="540"/>
      <point x="342" y="610"/>
      <point x="342" y="781" type="curve" smooth="yes"/>
      <point x="342" y="786" type="line" smooth="yes"/>
      <point x="342" y="946"/>
      <point x="460" y="1026"/>
      <point x="668" y="1026" type="curve" smooth="yes"/>
      <point x="890" y="1026"/>
      <point x="1012" y="931"/>
      <point x="1012" y="735" type="curve" smooth="yes"/>
      <point x="1012" y="608" type="line"/>
      <point x="1227" y="608" type="line"/>
      <point x="1227" y="731" type="line" smooth="yes"/>
      <point x="1227" y="1039"/>
      <point x="1039" y="1204"/>
      <point x="661" y="1204" type="curve" smooth="yes"/>
      <point x="305" y="1204"/>
      <point x="115" y="1057"/>
      <point x="115" y="787" type="curve" smooth="yes"/>
      <point x="115" y="780" type="line" smooth="yes"/>
      <point x="115" y="489"/>
      <point x="296" y="357"/>
    </contour>
    <contour>
      <point x="1253" y="-11" type="curve" smooth="yes"/>
      <point x="1315" y="-11"/>
      <point x="1366" y="-3"/>
      <point x="1408" y="10" type="curve"/>
      <point x="1422" y="168" type="line"/>
      <point x="1394" y="161"/>
      <point x="1365" y="157"/>
      <point x="1336" y="157" type="curve" smooth="yes"/>
      <point x="1260" y="157"/>
      <point x="1227" y="202"/>
      <point x="1227" y="292" type="curve" smooth="yes"/>
      <point x="1227" y="614" type="line"/>
      <point x="1014" y="614" type="line"/>
      <point x="1014" y="265" type="line" smooth="yes"/>
      <point x="1014" y="76"/>
      <point x="1094" y="-11"/>
    </contour>
  </outline>
</glyph>
<glyph name="Two.gj" format="2">
  <advance width="1275"/>
  <unicode hex="0AE8"/>
  <outline>
    <contour>
      <point x="379" y="332" type="line"/>
      <point x="389" y="365" type="line"/>
      <point x="598" y="365" type="line" smooth="yes"/>
      <point x="947" y="365"/>
      <point x="1144" y="522"/>
      <point x="1144" y="773" type="curve" smooth="yes"/>
      <point x="1144" y="786" type="line" smooth="yes"/>
      <point x="1144" y="1063"/>
      <point x="923" y="1204"/>
      <point x="570" y="1204" type="curve" smooth="yes"/>
      <point x="365" y="1204"/>
      <point x="219" y="1161"/>
      <point x="126" y="1122" type="curve"/>
      <point x="108" y="947" type="line"/>
      <point x="221" y="987"/>
      <point x="377" y="1027"/>
      <point x="553" y="1027" type="curve" smooth="yes"/>
      <point x="788" y="1027"/>
      <point x="917" y="943"/>
      <point x="917" y="781" type="curve" smooth="yes"/>
      <point x="917" y="772" type="line" smooth="yes"/>
      <point x="917" y="603"/>
      <point x="776" y="531"/>
      <point x="519" y="531" type="curve" smooth="yes"/>
      <point x="101" y="531" type="line"/>
      <point x="101" y="377" type="line"/>
    </contour>
    <contour>
      <point x="795" y="0" type="line"/>
      <point x="1105" y="0" type="line"/>
      <point x="1105" y="13" type="line"/>
      <point x="841" y="191" type="line" smooth="yes"/>
      <point x="731" y="265"/>
      <point x="578" y="353"/>
      <point x="463" y="413" type="curve"/>
      <point x="227" y="390" type="line"/>
    </contour>
  </outline>
</glyph>
<glyph name="Three.gj" format="2">
  <advance width="1338"/>
  <unicode hex="0AE9"/>
  <outline>
    <contour>
      <point x="625" y="-26" type="curve" smooth="yes"/>
      <point x="993" y="-26"/>
      <point x="1203" y="87"/>
      <point x="1203" y="314" type="curve" smooth="yes"/>
      <point x="1203" y="315" type="line" smooth="yes"/>
      <point x="1203" y="494"/>
      <point x="1086" y="581"/>
      <point x="866" y="602" type="curve"/>
      <point x="866" y="607" type="line"/>
      <point x="1079" y="622"/>
      <point x="1185" y="699"/>
      <point x="1185" y="876" type="curve" smooth="yes"/>
      <point x="1185" y="878" type="line" smooth="yes"/>
      <point x="1185" y="1093"/>
      <point x="983" y="1204"/>
      <point x="627" y="1204" type="curve" smooth="yes"/>
      <point x="419" y="1204"/>
      <point x="257" y="1160"/>
      <point x="152" y="1111" type="curve"/>
      <point x="127" y="929" type="line"/>
      <point x="250" y="986"/>
      <point x="415" y="1029"/>
      <point x="603" y="1029" type="curve" smooth="yes"/>
      <point x="840" y="1029"/>
      <point x="958" y="971"/>
      <point x="958" y="852" type="curve" smooth="yes"/>
      <point x="958" y="850" type="line" smooth="yes"/>
      <point x="958" y="734"/>
      <point x="860" y="694"/>
      <point x="657" y="692" type="curve" smooth="yes"/>
      <point x="294" y="688" type="line"/>
      <point x="294" y="521" type="line"/>
      <point x="655" y="514" type="line" smooth="yes"/>
      <point x="873" y="510"/>
      <point x="976" y="461"/>
      <point x="976" y="339" type="curve" smooth="yes"/>
      <point x="976" y="337" type="line" smooth="yes"/>
      <point x="976" y="213"/>
      <point x="852" y="152"/>
      <point x="601" y="152" type="curve" smooth="yes"/>
      <point x="378" y="152"/>
      <point x="225" y="207"/>
      <point x="97" y="270" type="curve"/>
      <point x="120" y="81" type="line"/>
      <point x="225" y="27"/>
      <point x="392" y="-26"/>
    </contour>
  </outline>
</glyph>
<glyph name="Four.gj" format="2">
  <advance width="1491"/>
  <unicode hex="0AEA"/>
  <outline>
    <contour>
      <point x="755" y="-26" type="curve" smooth="yes"/>
      <point x="1061" y="-26"/>
      <point x="1236" y="93"/>
      <point x="1236" y="307" type="curve" smooth="yes"/>
      <point x="1236" y="311" type="line" smooth="yes"/>
      <point x="1236" y="465"/>
      <point x="1130" y="559"/>
      <point x="995" y="654" type="curve" smooth="yes"/>
      <point x="851" y="755" type="line"/>
      <point x="716" y="632" type="line"/>
      <point x="830" y="554" type="line" smooth="yes"/>
      <point x="932" y="484"/>
      <point x="1009" y="429"/>
      <point x="1009" y="329" type="curve" smooth="yes"/>
      <point x="1009" y="325" type="line" smooth="yes"/>
      <point x="1009" y="208"/>
      <point x="916" y="146"/>
      <point x="755" y="146" type="curve" smooth="yes"/>
      <point x="593" y="146"/>
      <point x="500" y="212"/>
      <point x="500" y="329" type="curve" smooth="yes"/>
      <point x="500" y="333" type="line" smooth="yes"/>
      <point x="500" y="432"/>
      <point x="573" y="492"/>
      <point x="669" y="559" type="curve" smooth="yes"/>
      <point x="811" y="657" type="line"/>
      <point x="680" y="782" type="line"/>
      <point x="514" y="663" type="line" smooth="yes"/>
      <point x="371" y="561"/>
      <point x="273" y="472"/>
      <point x="273" y="311" type="curve" smooth="yes"/>
      <point x="273" y="307" type="line" smooth="yes"/>
      <point x="273" y="93"/>
      <point x="447" y="-26"/>
    </contour>
    <contour>
      <point x="660" y="657" type="line"/>
      <point x="803" y="753" type="line"/>
      <point x="286" y="1172" type="line"/>
      <point x="26" y="1172" type="line"/>
      <point x="26" y="1155" type="line"/>
    </contour>
    <contour>
      <point x="812" y="640" type="line"/>
      <point x="1465" y="1155" type="line"/>
      <point x="1465" y="1172" type="line"/>
      <point x="1206" y="1172" type="line"/>
      <point x="690" y="752" type="line"/>
    </contour>
  </outline>
</glyph>
<glyph name="Five.gj" format="2">
  <advance width="1559"/>
  <unicode hex="0AEB"/>
  <guideline x="1110" y="589" angle="90"/>
  <outline>
    <contour>
      <point x="712" y="306" type="curve" smooth="yes"/>
      <point x="944" y="306"/>
      <point x="1068" y="409"/>
      <point x="1111" y="530" type="curve"/>
      <point x="1129" y="530" type="line"/>
      <point x="1122" y="718" type="line"/>
      <point x="1082" y="581"/>
      <point x="964" y="487"/>
      <point x="763" y="487" type="curve" smooth="yes"/>
      <point x="557" y="487"/>
      <point x="445" y="584"/>
      <point x="445" y="809" type="curve" smooth="yes"/>
      <point x="445" y="885" type="line"/>
      <point x="229" y="885" type="line"/>
      <point x="229" y="784" type="line" smooth="yes"/>
      <point x="229" y="456"/>
      <point x="403" y="306"/>
    </contour>
    <contour>
      <point x="1362" y="-11" type="curve" smooth="yes"/>
      <point x="1424" y="-11"/>
      <point x="1475" y="-3"/>
      <point x="1517" y="10" type="curve"/>
      <point x="1531" y="168" type="line"/>
      <point x="1503" y="161"/>
      <point x="1474" y="157"/>
      <point x="1445" y="157" type="curve" smooth="yes"/>
      <point x="1369" y="157"/>
      <point x="1336" y="202"/>
      <point x="1336" y="292" type="curve" smooth="yes"/>
      <point x="1336" y="634" type="line"/>
      <point x="1123" y="634" type="line"/>
      <point x="1123" y="265" type="line" smooth="yes"/>
      <point x="1123" y="76"/>
      <point x="1203" y="-11"/>
    </contour>
    <contour>
      <point x="1121" y="602" type="line"/>
      <point x="1336" y="602" type="line"/>
      <point x="1336" y="1172" type="line"/>
      <point x="1121" y="1172" type="line"/>
    </contour>
    <contour>
      <point x="229" y="775" type="line"/>
      <point x="445" y="775" type="line"/>
      <point x="445" y="907" type="line" smooth="yes"/>
      <point x="445" y="1097"/>
      <point x="364" y="1183"/>
      <point x="204" y="1183" type="curve" smooth="yes"/>
      <point x="143" y="1183"/>
      <point x="91" y="1175"/>
      <point x="49" y="1163" type="curve"/>
      <point x="35" y="1004" type="line"/>
      <point x="63" y="1011"/>
      <point x="93" y="1016"/>
      <point x="121" y="1016" type="curve" smooth="yes"/>
      <point x="197" y="1016"/>
      <point x="229" y="970"/>
      <point x="229" y="881" type="curve" smooth="yes"/>
    </contour>
  </outline>
</glyph>
<glyph name="Six.gj" format="2">
  <advance width="1460"/>
  <unicode hex="0AEC"/>
  <outline>
    <contour>
      <point x="662" y="-26" type="curve" smooth="yes"/>
      <point x="1072" y="-26"/>
      <point x="1286" y="125"/>
      <point x="1286" y="458" type="curve" smooth="yes"/>
      <point x="1286" y="807" type="line"/>
      <point x="1076" y="807" type="line"/>
      <point x="1076" y="649" type="line"/>
      <point x="1081" y="590" type="line"/>
      <point x="1081" y="468" type="line" smooth="yes"/>
      <point x="1081" y="239"/>
      <point x="946" y="140"/>
      <point x="658" y="140" type="curve" smooth="yes"/>
      <point x="484" y="140"/>
      <point x="336" y="172"/>
      <point x="187" y="234" type="curve"/>
      <point x="207" y="62" type="line"/>
      <point x="326" y="8"/>
      <point x="489" y="-26"/>
    </contour>
    <contour>
      <point x="659" y="377" type="curve" smooth="yes"/>
      <point x="895" y="377"/>
      <point x="1034" y="479"/>
      <point x="1073" y="560" type="curve"/>
      <point x="1089" y="560" type="line"/>
      <point x="1091" y="717" type="line"/>
      <point x="1043" y="639"/>
      <point x="895" y="547"/>
      <point x="699" y="547" type="curve" smooth="yes"/>
      <point x="458" y="547"/>
      <point x="351" y="630"/>
      <point x="351" y="778" type="curve" smooth="yes"/>
      <point x="351" y="781" type="line"/>
      <point x="124" y="779" type="line"/>
      <point x="124" y="776" type="line" smooth="yes"/>
      <point x="124" y="517"/>
      <point x="308" y="377"/>
    </contour>
    <contour>
      <point x="124" y="779" type="line"/>
      <point x="351" y="781" type="line"/>
      <point x="351" y="783" type="line" smooth="yes"/>
      <point x="351" y="938"/>
      <point x="476" y="1035"/>
      <point x="758" y="1035" type="curve" smooth="yes"/>
      <point x="951" y="1035"/>
      <point x="1099" y="1001"/>
      <point x="1225" y="957" type="curve"/>
      <point x="1209" y="1125" type="line"/>
      <point x="1106" y="1167"/>
      <point x="944" y="1204"/>
      <point x="746" y="1204" type="curve" smooth="yes"/>
      <point x="343" y="1204"/>
      <point x="124" y="1056"/>
      <point x="124" y="781" type="curve" smooth="yes"/>
    </contour>
  </outline>
</glyph>
<glyph name="Seven.gj" format="2">
  <advance width="1681"/>
  <unicode hex="0AED"/>
  <guideline x="1316" y="651" angle="270"/>
  <outline>
    <contour>
      <point x="830" y="-26" type="curve" smooth="yes"/>
      <point x="1277" y="-26"/>
      <point x="1538" y="206"/>
      <point x="1538" y="651" type="curve" smooth="yes"/>
      <point x="1538" y="660" type="line"/>
      <point x="1316" y="660" type="line"/>
      <point x="1316" y="639" type="line" smooth="yes"/>
      <point x="1316" y="327"/>
      <point x="1163" y="154"/>
      <point x="830" y="154" type="curve" smooth="yes"/>
      <point x="529" y="154"/>
      <point x="339" y="289"/>
      <point x="339" y="581" type="curve" smooth="yes"/>
      <point x="339" y="605"/>
      <point x="339" y="627"/>
      <point x="339" y="657" type="curve"/>
      <point x="144" y="657" type="line"/>
      <point x="139" y="623"/>
      <point x="136" y="583"/>
      <point x="136" y="545" type="curve" smooth="yes"/>
      <point x="136" y="173"/>
      <point x="381" y="-26"/>
    </contour>
    <contour>
      <point x="971" y="441" type="curve" smooth="yes"/>
      <point x="1152" y="441"/>
      <point x="1268" y="524"/>
      <point x="1306" y="610" type="curve"/>
      <point x="1331" y="610" type="line"/>
      <point x="1329" y="750" type="line"/>
      <point x="1290" y="661"/>
      <point x="1171" y="596"/>
      <point x="1042" y="596" type="curve" smooth="yes"/>
      <point x="872" y="596"/>
      <point x="783" y="668"/>
      <point x="783" y="806" type="curve" smooth="yes"/>
      <point x="783" y="810" type="line" smooth="yes"/>
      <point x="783" y="953"/>
      <point x="874" y="1030"/>
      <point x="1035" y="1030" type="curve" smooth="yes"/>
      <point x="1215" y="1030"/>
      <point x="1318" y="921"/>
      <point x="1318" y="715" type="curve" smooth="yes"/>
      <point x="1318" y="657" type="line"/>
      <point x="1538" y="657" type="line"/>
      <point x="1538" y="671" type="line" smooth="yes"/>
      <point x="1538" y="1019"/>
      <point x="1363" y="1204"/>
      <point x="1032" y="1204" type="curve" smooth="yes"/>
      <point x="732" y="1204"/>
      <point x="567" y="1065"/>
      <point x="567" y="809" type="curve" smooth="yes"/>
      <point x="567" y="802" type="line" smooth="yes"/>
      <point x="567" y="565"/>
      <point x="722" y="441"/>
    </contour>
  </outline>
</glyph>
<glyph name="Eight.gj" format="2">
  <advance width="1382"/>
  <unicode hex="0AEE"/>
  <outline>
    <contour>
      <point x="743" y="-26" type="curve" smooth="yes"/>
      <point x="940" y="-26"/>
      <point x="1113" y="20"/>
      <point x="1249" y="99" type="curve"/>
      <point x="1271" y="300" type="line"/>
      <point x="1133" y="209"/>
      <point x="939" y="154"/>
      <point x="757" y="154" type="curve" smooth="yes"/>
      <point x="489" y="154"/>
      <point x="360" y="250"/>
      <point x="360" y="418" type="curve" smooth="yes"/>
      <point x="360" y="420" type="line" smooth="yes"/>
      <point x="360" y="588"/>
      <point x="466" y="693"/>
      <point x="708" y="854" type="curve" smooth="yes"/>
      <point x="1186" y="1172" type="line"/>
      <point x="870" y="1172" type="line"/>
      <point x="581" y="993" type="line" smooth="yes"/>
      <point x="272" y="802"/>
      <point x="133" y="640"/>
      <point x="133" y="417" type="curve" smooth="yes"/>
      <point x="133" y="413" type="line" smooth="yes"/>
      <point x="133" y="132"/>
      <point x="343" y="-26"/>
    </contour>
  </outline>
</glyph>
<glyph name="Nine.gj" format="2">
  <advance width="1520"/>
  <unicode hex="0AEF"/>
  <guideline x="288" y="451" angle="0"/>
  <guideline x="1106" y="741" angle="201.5186"/>
  <outline>
    <contour>
      <point x="798" y="-26" type="curve" smooth="yes"/>
      <point x="995" y="-26"/>
      <point x="1168" y="17"/>
      <point x="1304" y="90" type="curve"/>
      <point x="1326" y="291" type="line"/>
      <point x="1188" y="206"/>
      <point x="994" y="154"/>
      <point x="812" y="154" type="curve" smooth="yes"/>
      <point x="519" y="154"/>
      <point x="360" y="270"/>
      <point x="360" y="449" type="curve" smooth="yes"/>
      <point x="360" y="451" type="line" smooth="yes"/>
      <point x="360" y="635"/>
      <point x="441" y="739"/>
      <point x="734" y="940" type="curve" smooth="yes"/>
      <point x="1072" y="1172" type="line"/>
      <point x="756" y="1172" type="line"/>
      <point x="566" y="1041" type="line" smooth="yes"/>
      <point x="260" y="830"/>
      <point x="133" y="688"/>
      <point x="133" y="449" type="curve" smooth="yes"/>
      <point x="133" y="445" type="line" smooth="yes"/>
      <point x="133" y="157"/>
      <point x="362" y="-26"/>
    </contour>
    <contour>
      <point x="750" y="439" type="line"/>
      <point x="769" y="439" type="line"/>
      <point x="1450" y="706" type="line"/>
      <point x="1450" y="887" type="line"/>
      <point x="750" y="610" type="line"/>
    </contour>
  </outline>
</glyph>
<glyph name="AbbreviationSign.gj" format="2">
  <advance width="1183"/>
  <unicode hex="0AF0"/>
  <outline>
    <contour>
      <point x="592" y="769" type="curve" smooth="yes"/>
      <point x="294" y="769"/>
      <point x="115" y="621"/>
      <point x="115" y="375" type="curve" smooth="yes"/>
      <point x="115" y="370" type="line"/>
      <point x="325" y="370" type="line"/>
      <point x="325" y="374" type="line" smooth="yes"/>
      <point x="325" y="520"/>
      <point x="426" y="605"/>
      <point x="592" y="605" type="curve" smooth="yes"/>
      <point x="758" y="605"/>
      <point x="858" y="520"/>
      <point x="858" y="374" type="curve" smooth="yes"/>
      <point x="858" y="370" type="line"/>
      <point x="1068" y="370" type="line"/>
      <point x="1068" y="375" type="line" smooth="yes"/>
      <point x="1068" y="621"/>
      <point x="891" y="769"/>
    </contour>
    <contour>
      <point x="592" y="-26" type="curve" smooth="yes"/>
      <point x="891" y="-26"/>
      <point x="1068" y="121"/>
      <point x="1068" y="367" type="curve" smooth="yes"/>
      <point x="1068" y="374" type="line"/>
      <point x="858" y="374" type="line"/>
      <point x="858" y="369" type="line" smooth="yes"/>
      <point x="858" y="223"/>
      <point x="758" y="138"/>
      <point x="592" y="138" type="curve" smooth="yes"/>
      <point x="426" y="138"/>
      <point x="325" y="223"/>
      <point x="325" y="369" type="curve" smooth="yes"/>
      <point x="325" y="374" type="line"/>
      <point x="115" y="374" type="line"/>
      <point x="115" y="367" type="line" smooth="yes"/>
      <point x="115" y="121"/>
      <point x="294" y="-26"/>
    </contour>
  </outline>
</glyph>
<glyph name="Zha.gj" format="2">
  <advance width="1831"/>
  <unicode hex="0AF9"/>
  <anchor x="1117" y="-87" name="Bottom"/>
  <anchor x="1511" y="1259" name="Top"/>
  <anchor x="1653" y="1259" name="Top2"/>
  <outline>
    <contour>
      <point x="1191" y="710" type="line"/>
      <point x="1798" y="1153" type="line"/>
      <point x="1798" y="1172" type="line"/>
      <point x="1522" y="1172" type="line"/>
      <point x="1027" y="802" type="line"/>
    </contour>
    <contour>
      <point x="309" y="354" type="line"/>
      <point x="309" y="844" type="line" smooth="yes"/>
      <point x="309" y="975"/>
      <point x="368" y="1030"/>
      <point x="458" y="1030" type="curve" smooth="yes"/>
      <point x="547" y="1030"/>
      <point x="607" y="987"/>
      <point x="733" y="894" type="curve" smooth="yes"/>
      <point x="1041" y="668" type="line"/>
      <point x="1237" y="748" type="line"/>
      <point x="886" y="1015" type="line" smooth="yes"/>
      <point x="724" y="1140"/>
      <point x="618" y="1204"/>
      <point x="448" y="1204" type="curve" smooth="yes"/>
      <point x="224" y="1204"/>
      <point x="94" y="1084"/>
      <point x="94" y="848" type="curve" smooth="yes"/>
      <point x="94" y="398" type="line"/>
    </contour>
    <contour>
      <point x="1092" y="-26" type="curve" smooth="yes"/>
      <point x="1421" y="-26"/>
      <point x="1602" y="90"/>
      <point x="1602" y="309" type="curve" smooth="yes"/>
      <point x="1602" y="314" type="line" smooth="yes"/>
      <point x="1602" y="483"/>
      <point x="1514" y="570"/>
      <point x="1353" y="680" type="curve" smooth="yes"/>
      <point x="1235" y="761" type="line"/>
      <point x="1041" y="682" type="line"/>
      <point x="1197" y="576" type="line" smooth="yes"/>
      <point x="1309" y="501"/>
      <point x="1375" y="448"/>
      <point x="1375" y="339" type="curve" smooth="yes"/>
      <point x="1375" y="335" type="line" smooth="yes"/>
      <point x="1375" y="211"/>
      <point x="1275" y="146"/>
      <point x="1092" y="146" type="curve" smooth="yes"/>
      <point x="904" y="146"/>
      <point x="802" y="211"/>
      <point x="802" y="335" type="curve" smooth="yes"/>
      <point x="802" y="339" type="line" smooth="yes"/>
      <point x="802" y="448"/>
      <point x="874" y="507"/>
      <point x="986" y="580" type="curve" smooth="yes"/>
      <point x="1165" y="698" type="line"/>
      <point x="1027" y="818" type="line"/>
      <point x="832" y="684" type="line" smooth="yes"/>
      <point x="672" y="573"/>
      <point x="575" y="485"/>
      <point x="575" y="316" type="curve" smooth="yes"/>
      <point x="575" y="311" type="line" smooth="yes"/>
      <point x="575" y="91"/>
      <point x="759" y="-26"/>
    </contour>
    <contour>
      <point x="555" y="-255" type="curve" smooth="yes"/>
      <point x="653" y="-255"/>
      <point x="693" y="-208"/>
      <point x="693" y="-141" type="curve" smooth="yes"/>
      <point x="693" y="-137" type="line" smooth="yes"/>
      <point x="693" y="-69"/>
      <point x="649" y="-23"/>
      <point x="555" y="-23" type="curve" smooth="yes"/>
      <point x="462" y="-23"/>
      <point x="417" y="-71"/>
      <point x="417" y="-137" type="curve" smooth="yes"/>
      <point x="417" y="-141" type="line" smooth="yes"/>
      <point x="417" y="-208"/>
      <point x="459" y="-255"/>
    </contour>
    <contour>
      <point x="177" y="-40" type="curve" smooth="yes"/>
      <point x="275" y="-40"/>
      <point x="315" y="7"/>
      <point x="315" y="74" type="curve" smooth="yes"/>
      <point x="315" y="78" type="line" smooth="yes"/>
      <point x="315" y="146"/>
      <point x="271" y="192"/>
      <point x="177" y="192" type="curve" smooth="yes"/>
      <point x="84" y="192"/>
      <point x="39" y="144"/>
      <point x="39" y="78" type="curve" smooth="yes"/>
      <point x="39" y="74" type="line" smooth="yes"/>
      <point x="39" y="7"/>
      <point x="81" y="-40"/>
    </contour>
    <contour>
      <point x="176" y="-471" type="curve" smooth="yes"/>
      <point x="274" y="-471"/>
      <point x="314" y="-424"/>
      <point x="314" y="-357" type="curve" smooth="yes"/>
      <point x="314" y="-353" type="line" smooth="yes"/>
      <point x="314" y="-285"/>
      <point x="270" y="-239"/>
      <point x="176" y="-239" type="curve" smooth="yes"/>
      <point x="83" y="-239"/>
      <point x="38" y="-287"/>
      <point x="38" y="-353" type="curve" smooth="yes"/>
      <point x="38" y="-357" type="line" smooth="yes"/>
      <point x="38" y="-424"/>
      <point x="80" y="-471"/>
    </contour>
  </outline>
</glyph>
<glyph name="emdash" format="2">
  <advance width="2429"/>
  <unicode hex="2014"/>
  <outline>
    <contour>
      <point x="141" y="438" type="line"/>
      <point x="2289" y="438" type="line"/>
      <point x="2289" y="610" type="line"/>
      <point x="141" y="610" type="line"/>
    </contour>
  </outline>
</glyph>
<glyph name="BaBa.gj" format="2">
  <advance width="3355"/>
  <anchor x="3011" y="-87" name="Bottom"/>
  <anchor x="2991" y="1259" name="Top"/>
  <anchor x="3042" y="1259" name="Top2"/>
  <outline>
    <contour>
      <point x="1021" y="517" type="line"/>
      <point x="1676" y="517" type="line"/>
      <point x="1657" y="692" type="line"/>
      <point x="1021" y="692" type="line"/>
    </contour>
    <contour>
      <point x="647" y="103" type="curve" smooth="yes"/>
      <point x="957" y="103"/>
      <point x="1119" y="257"/>
      <point x="1119" y="553" type="curve" smooth="yes"/>
      <point x="1119" y="992" type="line"/>
      <point x="904" y="992" type="line"/>
      <point x="904" y="556" type="line" smooth="yes"/>
      <point x="904" y="371"/>
      <point x="818" y="282"/>
      <point x="647" y="282" type="curve" smooth="yes"/>
      <point x="457" y="282"/>
      <point x="362" y="396"/>
      <point x="362" y="624" type="curve" smooth="yes"/>
      <point x="362" y="638" type="line" smooth="yes"/>
      <point x="362" y="848"/>
      <point x="443" y="1008"/>
      <point x="589" y="1172" type="curve"/>
      <point x="347" y="1172" type="line"/>
      <point x="223" y="1047"/>
      <point x="135" y="866"/>
      <point x="135" y="634" type="curve" smooth="yes"/>
      <point x="135" y="621" type="line" smooth="yes"/>
      <point x="135" y="278"/>
      <point x="309" y="103"/>
    </contour>
    <contour>
      <point x="2935" y="481" type="line"/>
      <point x="3150" y="481" type="line"/>
      <point x="3150" y="1172" type="line"/>
      <point x="2935" y="1172" type="line"/>
    </contour>
    <contour>
      <point x="2935" y="0" type="line"/>
      <point x="3150" y="0" type="line"/>
      <point x="3150" y="590" type="line"/>
      <point x="2935" y="590" type="line"/>
    </contour>
    <contour>
      <point x="2417" y="517" type="line"/>
      <point x="3056" y="517" type="line"/>
      <point x="3037" y="692" type="line"/>
      <point x="2417" y="692" type="line"/>
    </contour>
    <contour>
      <point x="2043" y="103" type="curve" smooth="yes"/>
      <point x="2353" y="103"/>
      <point x="2515" y="257"/>
      <point x="2515" y="553" type="curve" smooth="yes"/>
      <point x="2515" y="992" type="line"/>
      <point x="2300" y="992" type="line"/>
      <point x="2300" y="556" type="line" smooth="yes"/>
      <point x="2300" y="371"/>
      <point x="2214" y="282"/>
      <point x="2043" y="282" type="curve" smooth="yes"/>
      <point x="1853" y="282"/>
      <point x="1758" y="396"/>
      <point x="1758" y="624" type="curve" smooth="yes"/>
      <point x="1758" y="638" type="line" smooth="yes"/>
      <point x="1758" y="848"/>
      <point x="1839" y="1008"/>
      <point x="1985" y="1172" type="curve"/>
      <point x="1743" y="1172" type="line"/>
      <point x="1619" y="1047"/>
      <point x="1531" y="866"/>
      <point x="1531" y="634" type="curve" smooth="yes"/>
      <point x="1531" y="621" type="line" smooth="yes"/>
      <point x="1531" y="278"/>
      <point x="1705" y="103"/>
    </contour>
  </outline>
</glyph>
<glyph name="BaBha.gj" format="2">
  <advance width="3417"/>
  <anchor x="3073" y="-87" name="Bottom"/>
  <anchor x="3053" y="1259" name="Top"/>
  <anchor x="3104" y="1259" name="Top2"/>
  <outline>
    <contour>
      <point x="1021" y="517" type="line"/>
      <point x="1610" y="517" type="line"/>
      <point x="1591" y="692" type="line"/>
      <point x="1021" y="692" type="line"/>
    </contour>
    <contour>
      <point x="647" y="103" type="curve" smooth="yes"/>
      <point x="957" y="103"/>
      <point x="1119" y="257"/>
      <point x="1119" y="553" type="curve" smooth="yes"/>
      <point x="1119" y="992" type="line"/>
      <point x="904" y="992" type="line"/>
      <point x="904" y="556" type="line" smooth="yes"/>
      <point x="904" y="371"/>
      <point x="818" y="282"/>
      <point x="647" y="282" type="curve" smooth="yes"/>
      <point x="457" y="282"/>
      <point x="362" y="396"/>
      <point x="362" y="624" type="curve" smooth="yes"/>
      <point x="362" y="638" type="line" smooth="yes"/>
      <point x="362" y="848"/>
      <point x="443" y="1008"/>
      <point x="589" y="1172" type="curve"/>
      <point x="347" y="1172" type="line"/>
      <point x="223" y="1047"/>
      <point x="135" y="866"/>
      <point x="135" y="634" type="curve" smooth="yes"/>
      <point x="135" y="621" type="line" smooth="yes"/>
      <point x="135" y="278"/>
      <point x="309" y="103"/>
    </contour>
    <contour>
      <point x="2997" y="481" type="line"/>
      <point x="3212" y="481" type="line"/>
      <point x="3212" y="1172" type="line"/>
      <point x="2997" y="1172" type="line"/>
    </contour>
    <contour>
      <point x="2997" y="0" type="line"/>
      <point x="3212" y="0" type="line"/>
      <point x="3212" y="590" type="line"/>
      <point x="2997" y="590" type="line"/>
    </contour>
    <contour>
      <point x="2425" y="471" type="line"/>
      <point x="3107" y="471" type="line"/>
      <point x="3088" y="646" type="line"/>
      <point x="2425" y="646" type="line"/>
    </contour>
    <contour>
      <point x="1732" y="0" type="curve"/>
      <point x="1974" y="0" type="line"/>
      <point x="1806" y="173"/>
      <point x="1700" y="359"/>
      <point x="1700" y="613" type="curve" smooth="yes"/>
      <point x="1700" y="622" type="line" smooth="yes"/>
      <point x="1700" y="888"/>
      <point x="1845" y="1026"/>
      <point x="2125" y="1026" type="curve" smooth="yes"/>
      <point x="2195" y="1026"/>
      <point x="2263" y="1016"/>
      <point x="2317" y="994" type="curve"/>
      <point x="2287" y="1053" type="line"/>
      <point x="2287" y="587" type="line"/>
      <point x="2504" y="587" type="line"/>
      <point x="2504" y="1146" type="line"/>
      <point x="2397" y="1184"/>
      <point x="2264" y="1204"/>
      <point x="2126" y="1204" type="curve" smooth="yes"/>
      <point x="1690" y="1204"/>
      <point x="1473" y="1003"/>
      <point x="1473" y="626" type="curve" smooth="yes"/>
      <point x="1473" y="613" type="line" smooth="yes"/>
      <point x="1473" y="349"/>
      <point x="1574" y="147"/>
    </contour>
    <contour>
      <point x="2294" y="150" type="curve"/>
      <point x="2499" y="150" type="line"/>
      <point x="2499" y="636" type="line"/>
      <point x="2297" y="636" type="line"/>
      <point x="2178" y="571" type="line"/>
      <point x="2194" y="404"/>
      <point x="2236" y="281"/>
    </contour>
  </outline>
</glyph>
<glyph name="BaDa.gj" format="2">
  <advance width="2620"/>
  <anchor x="2045" y="-87" name="Bottom"/>
  <anchor x="2194" y="1259" name="Top"/>
  <anchor x="2026" y="1259" name="Top2"/>
  <outline>
    <contour>
      <point x="1021" y="501" type="line"/>
      <point x="1807" y="501" type="line"/>
      <point x="1788" y="676" type="line"/>
      <point x="1021" y="676" type="line"/>
    </contour>
    <contour>
      <point x="647" y="103" type="curve" smooth="yes"/>
      <point x="957" y="103"/>
      <point x="1119" y="257"/>
      <point x="1119" y="553" type="curve" smooth="yes"/>
      <point x="1119" y="992" type="line"/>
      <point x="904" y="992" type="line"/>
      <point x="904" y="556" type="line" smooth="yes"/>
      <point x="904" y="371"/>
      <point x="818" y="282"/>
      <point x="647" y="282" type="curve" smooth="yes"/>
      <point x="457" y="282"/>
      <point x="362" y="396"/>
      <point x="362" y="624" type="curve" smooth="yes"/>
      <point x="362" y="638" type="line" smooth="yes"/>
      <point x="362" y="848"/>
      <point x="443" y="1008"/>
      <point x="589" y="1172" type="curve"/>
      <point x="347" y="1172" type="line"/>
      <point x="223" y="1047"/>
      <point x="135" y="866"/>
      <point x="135" y="634" type="curve" smooth="yes"/>
      <point x="135" y="621" type="line" smooth="yes"/>
      <point x="135" y="278"/>
      <point x="309" y="103"/>
    </contour>
    <contour>
      <point x="2006" y="-26" type="curve" smooth="yes"/>
      <point x="2234" y="-26"/>
      <point x="2398" y="27"/>
      <point x="2501" y="81" type="curve"/>
      <point x="2524" y="270" type="line"/>
      <point x="2399" y="207"/>
      <point x="2249" y="152"/>
      <point x="2030" y="152" type="curve" smooth="yes"/>
      <point x="1786" y="152"/>
      <point x="1665" y="213"/>
      <point x="1665" y="337" type="curve" smooth="yes"/>
      <point x="1665" y="339" type="line" smooth="yes"/>
      <point x="1665" y="461"/>
      <point x="1766" y="510"/>
      <point x="1981" y="514" type="curve" smooth="yes"/>
      <point x="2332" y="521" type="line"/>
      <point x="2332" y="689" type="line"/>
      <point x="1979" y="692" type="line" smooth="yes"/>
      <point x="1779" y="694"/>
      <point x="1683" y="734"/>
      <point x="1683" y="850" type="curve" smooth="yes"/>
      <point x="1683" y="852" type="line" smooth="yes"/>
      <point x="1683" y="971"/>
      <point x="1798" y="1029"/>
      <point x="2028" y="1029" type="curve" smooth="yes"/>
      <point x="2212" y="1029"/>
      <point x="2374" y="986"/>
      <point x="2495" y="929" type="curve"/>
      <point x="2470" y="1111" type="line"/>
      <point x="2367" y="1160"/>
      <point x="2208" y="1204"/>
      <point x="2004" y="1204" type="curve" smooth="yes"/>
      <point x="1654" y="1204"/>
      <point x="1456" y="1093"/>
      <point x="1456" y="878" type="curve" smooth="yes"/>
      <point x="1456" y="876" type="line" smooth="yes"/>
      <point x="1456" y="699"/>
      <point x="1562" y="622"/>
      <point x="1773" y="607" type="curve"/>
      <point x="1773" y="602" type="line"/>
      <point x="1555" y="581"/>
      <point x="1438" y="494"/>
      <point x="1438" y="315" type="curve" smooth="yes"/>
      <point x="1438" y="314" type="line" smooth="yes"/>
      <point x="1438" y="87"/>
      <point x="1644" y="-26"/>
    </contour>
  </outline>
</glyph>
<glyph name="BaDda.gj" format="2">
  <advance width="2742"/>
  <anchor x="2092" y="-87" name="Bottom"/>
  <anchor x="2223" y="1259" name="Top"/>
  <anchor x="2040" y="1259" name="Top2"/>
  <outline>
    <contour>
      <point x="1021" y="561" type="line"/>
      <point x="1786" y="561" type="line"/>
      <point x="1767" y="736" type="line"/>
      <point x="1021" y="736" type="line"/>
    </contour>
    <contour>
      <point x="647" y="103" type="curve" smooth="yes"/>
      <point x="957" y="103"/>
      <point x="1119" y="257"/>
      <point x="1119" y="553" type="curve" smooth="yes"/>
      <point x="1119" y="992" type="line"/>
      <point x="904" y="992" type="line"/>
      <point x="904" y="556" type="line" smooth="yes"/>
      <point x="904" y="371"/>
      <point x="818" y="282"/>
      <point x="647" y="282" type="curve" smooth="yes"/>
      <point x="457" y="282"/>
      <point x="362" y="396"/>
      <point x="362" y="624" type="curve" smooth="yes"/>
      <point x="362" y="638" type="line" smooth="yes"/>
      <point x="362" y="848"/>
      <point x="443" y="1008"/>
      <point x="589" y="1172" type="curve"/>
      <point x="347" y="1172" type="line"/>
      <point x="223" y="1047"/>
      <point x="135" y="866"/>
      <point x="135" y="634" type="curve" smooth="yes"/>
      <point x="135" y="621" type="line" smooth="yes"/>
      <point x="135" y="278"/>
      <point x="309" y="103"/>
    </contour>
    <contour>
      <point x="2041" y="-26" type="curve" smooth="yes"/>
      <point x="2400" y="-26"/>
      <point x="2609" y="83"/>
      <point x="2609" y="333" type="curve" smooth="yes"/>
      <point x="2609" y="337" type="line" smooth="yes"/>
      <point x="2609" y="560"/>
      <point x="2480" y="667"/>
      <point x="2087" y="698" type="curve" smooth="yes"/>
      <point x="1985" y="706" type="line" smooth="yes"/>
      <point x="1766" y="723"/>
      <point x="1685" y="761"/>
      <point x="1685" y="863" type="curve" smooth="yes"/>
      <point x="1685" y="865" type="line" smooth="yes"/>
      <point x="1685" y="969"/>
      <point x="1791" y="1028"/>
      <point x="2037" y="1028" type="curve" smooth="yes"/>
      <point x="2231" y="1028"/>
      <point x="2402" y="985"/>
      <point x="2529" y="928" type="curve"/>
      <point x="2504" y="1111" type="line"/>
      <point x="2397" y="1160"/>
      <point x="2230" y="1204"/>
      <point x="2016" y="1204" type="curve" smooth="yes"/>
      <point x="1646" y="1204"/>
      <point x="1458" y="1091"/>
      <point x="1458" y="865" type="curve" smooth="yes"/>
      <point x="1458" y="862" type="line" smooth="yes"/>
      <point x="1458" y="646"/>
      <point x="1599" y="549"/>
      <point x="1947" y="527" type="curve" smooth="yes"/>
      <point x="2042" y="521" type="line" smooth="yes"/>
      <point x="2310" y="504"/>
      <point x="2382" y="451"/>
      <point x="2382" y="338" type="curve" smooth="yes"/>
      <point x="2382" y="336" type="line" smooth="yes"/>
      <point x="2382" y="213"/>
      <point x="2268" y="154"/>
      <point x="2020" y="154" type="curve" smooth="yes"/>
      <point x="1787" y="154"/>
      <point x="1595" y="216"/>
      <point x="1442" y="290" type="curve"/>
      <point x="1468" y="91" type="line"/>
      <point x="1599" y="29"/>
      <point x="1791" y="-26"/>
    </contour>
  </outline>
</glyph>
<glyph name="BaDha.gj" format="2">
  <advance width="2992"/>
  <anchor x="2648" y="-87" name="Bottom"/>
  <anchor x="2627" y="1259" name="Top"/>
  <anchor x="2679" y="1259" name="Top2"/>
  <outline>
    <contour>
      <point x="1021" y="484" type="line"/>
      <point x="1694" y="484" type="line"/>
      <point x="1675" y="659" type="line"/>
      <point x="1021" y="659" type="line"/>
    </contour>
    <contour>
      <point x="647" y="103" type="curve" smooth="yes"/>
      <point x="957" y="103"/>
      <point x="1119" y="257"/>
      <point x="1119" y="553" type="curve" smooth="yes"/>
      <point x="1119" y="992" type="line"/>
      <point x="904" y="992" type="line"/>
      <point x="904" y="556" type="line" smooth="yes"/>
      <point x="904" y="371"/>
      <point x="818" y="282"/>
      <point x="647" y="282" type="curve" smooth="yes"/>
      <point x="457" y="282"/>
      <point x="362" y="396"/>
      <point x="362" y="624" type="curve" smooth="yes"/>
      <point x="362" y="638" type="line" smooth="yes"/>
      <point x="362" y="848"/>
      <point x="443" y="1008"/>
      <point x="589" y="1172" type="curve"/>
      <point x="347" y="1172" type="line"/>
      <point x="223" y="1047"/>
      <point x="135" y="866"/>
      <point x="135" y="634" type="curve" smooth="yes"/>
      <point x="135" y="621" type="line" smooth="yes"/>
      <point x="135" y="278"/>
      <point x="309" y="103"/>
    </contour>
    <contour>
      <point x="2022" y="79" type="curve" smooth="yes"/>
      <point x="2337" y="79"/>
      <point x="2500" y="172"/>
      <point x="2563" y="295" type="curve"/>
      <point x="2589" y="295" type="line"/>
      <point x="2576" y="476" type="line"/>
      <point x="2533" y="348"/>
      <point x="2352" y="252"/>
      <point x="2069" y="252" type="curve" smooth="yes"/>
      <point x="1821" y="252"/>
      <point x="1695" y="304"/>
      <point x="1695" y="437" type="curve" smooth="yes"/>
      <point x="1695" y="439" type="line" smooth="yes"/>
      <point x="1695" y="549"/>
      <point x="1786" y="594"/>
      <point x="1971" y="598" type="curve" smooth="yes"/>
      <point x="2247" y="604" type="line"/>
      <point x="2247" y="759" type="line"/>
      <point x="1967" y="767" type="line" smooth="yes"/>
      <point x="1787" y="772"/>
      <point x="1694" y="806"/>
      <point x="1694" y="899" type="curve" smooth="yes"/>
      <point x="1694" y="901" type="line" smooth="yes"/>
      <point x="1694" y="1022"/>
      <point x="1848" y="1115"/>
      <point x="2114" y="1262" type="curve"/>
      <point x="2114" y="1274" type="line"/>
      <point x="1827" y="1274" type="line"/>
      <point x="1595" y="1146"/>
      <point x="1467" y="1058"/>
      <point x="1467" y="910" type="curve" smooth="yes"/>
      <point x="1467" y="908" type="line" smooth="yes"/>
      <point x="1467" y="767"/>
      <point x="1563" y="700"/>
      <point x="1762" y="685" type="curve"/>
      <point x="1762" y="681" type="line"/>
      <point x="1569" y="663"/>
      <point x="1468" y="581"/>
      <point x="1468" y="414" type="curve" smooth="yes"/>
      <point x="1468" y="409" type="line" smooth="yes"/>
      <point x="1468" y="190"/>
      <point x="1665" y="79"/>
    </contour>
    <contour>
      <point x="2572" y="481" type="line"/>
      <point x="2787" y="481" type="line"/>
      <point x="2787" y="1172" type="line"/>
      <point x="2572" y="1172" type="line"/>
    </contour>
    <contour>
      <point x="2572" y="0" type="line"/>
      <point x="2787" y="0" type="line"/>
      <point x="2787" y="590" type="line"/>
      <point x="2572" y="590" type="line"/>
    </contour>
  </outline>
</glyph>
<glyph name="BaDhaVa.gj" format="2">
  <advance width="3939"/>
  <anchor x="3595" y="-87" name="Bottom"/>
  <anchor x="3575" y="1259" name="Top"/>
  <anchor x="3626" y="1259" name="Top2"/>
  <outline>
    <contour>
      <point x="1021" y="485" type="line"/>
      <point x="1714" y="485" type="line"/>
      <point x="1695" y="660" type="line"/>
      <point x="1021" y="660" type="line"/>
    </contour>
    <contour>
      <point x="647" y="103" type="curve" smooth="yes"/>
      <point x="957" y="103"/>
      <point x="1119" y="257"/>
      <point x="1119" y="553" type="curve" smooth="yes"/>
      <point x="1119" y="992" type="line"/>
      <point x="904" y="992" type="line"/>
      <point x="904" y="556" type="line" smooth="yes"/>
      <point x="904" y="371"/>
      <point x="818" y="282"/>
      <point x="647" y="282" type="curve" smooth="yes"/>
      <point x="457" y="282"/>
      <point x="362" y="396"/>
      <point x="362" y="624" type="curve" smooth="yes"/>
      <point x="362" y="638" type="line" smooth="yes"/>
      <point x="362" y="848"/>
      <point x="443" y="1008"/>
      <point x="589" y="1172" type="curve"/>
      <point x="347" y="1172" type="line"/>
      <point x="223" y="1047"/>
      <point x="135" y="866"/>
      <point x="135" y="634" type="curve" smooth="yes"/>
      <point x="135" y="621" type="line" smooth="yes"/>
      <point x="135" y="278"/>
      <point x="309" y="103"/>
    </contour>
    <contour>
      <point x="2056" y="79" type="curve" smooth="yes"/>
      <point x="2439" y="79"/>
      <point x="2602" y="208"/>
      <point x="2669" y="409" type="curve"/>
      <point x="2573" y="459" type="line"/>
      <point x="2508" y="337"/>
      <point x="2349" y="252"/>
      <point x="2084" y="252" type="curve" smooth="yes"/>
      <point x="1836" y="252"/>
      <point x="1710" y="304"/>
      <point x="1710" y="437" type="curve" smooth="yes"/>
      <point x="1710" y="439" type="line" smooth="yes"/>
      <point x="1710" y="549"/>
      <point x="1801" y="594"/>
      <point x="1986" y="598" type="curve" smooth="yes"/>
      <point x="2262" y="604" type="line"/>
      <point x="2262" y="759" type="line"/>
      <point x="1982" y="767" type="line" smooth="yes"/>
      <point x="1802" y="772"/>
      <point x="1709" y="806"/>
      <point x="1709" y="899" type="curve" smooth="yes"/>
      <point x="1709" y="901" type="line" smooth="yes"/>
      <point x="1709" y="1022"/>
      <point x="1863" y="1115"/>
      <point x="2129" y="1262" type="curve"/>
      <point x="2129" y="1274" type="line"/>
      <point x="1842" y="1274" type="line"/>
      <point x="1610" y="1146"/>
      <point x="1482" y="1058"/>
      <point x="1482" y="910" type="curve" smooth="yes"/>
      <point x="1482" y="908" type="line" smooth="yes"/>
      <point x="1482" y="767"/>
      <point x="1578" y="700"/>
      <point x="1777" y="685" type="curve"/>
      <point x="1777" y="681" type="line"/>
      <point x="1584" y="663"/>
      <point x="1483" y="581"/>
      <point x="1483" y="414" type="curve" smooth="yes"/>
      <point x="1483" y="409" type="line" smooth="yes"/>
      <point x="1483" y="190"/>
      <point x="1681" y="79"/>
    </contour>
    <contour>
      <point x="3072" y="198" type="curve" smooth="yes"/>
      <point x="3324" y="198"/>
      <point x="3456" y="293"/>
      <point x="3511" y="416" type="curve"/>
      <point x="3530" y="416" type="line"/>
      <point x="3522" y="610" type="line"/>
      <point x="3481" y="478"/>
      <point x="3337" y="381"/>
      <point x="3107" y="381" type="curve" smooth="yes"/>
      <point x="2849" y="381"/>
      <point x="2723" y="490"/>
      <point x="2723" y="686" type="curve" smooth="yes"/>
      <point x="2723" y="692" type="line" smooth="yes"/>
      <point x="2723" y="890"/>
      <point x="2845" y="995"/>
      <point x="3092" y="995" type="curve" smooth="yes"/>
      <point x="3206" y="995"/>
      <point x="3284" y="980"/>
      <point x="3340" y="961" type="curve"/>
      <point x="3319" y="1136" type="line"/>
      <point x="3266" y="1153"/>
      <point x="3179" y="1172"/>
      <point x="3058" y="1172" type="curve" smooth="yes"/>
      <point x="2696" y="1172"/>
      <point x="2496" y="1005"/>
      <point x="2496" y="692" type="curve" smooth="yes"/>
      <point x="2496" y="682" type="line" smooth="yes"/>
      <point x="2496" y="367"/>
      <point x="2700" y="198"/>
    </contour>
    <contour>
      <point x="3519" y="481" type="line"/>
      <point x="3734" y="481" type="line"/>
      <point x="3734" y="1172" type="line"/>
      <point x="3519" y="1172" type="line"/>
    </contour>
    <contour>
      <point x="3519" y="0" type="line"/>
      <point x="3734" y="0" type="line"/>
      <point x="3734" y="590" type="line"/>
      <point x="3519" y="590" type="line"/>
    </contour>
  </outline>
</glyph>
<glyph name="BaHa.gj" format="2">
  <advance width="2820"/>
  <anchor x="2178" y="-158" name="Bottom"/>
  <anchor x="2278" y="1259" name="Top"/>
  <anchor x="2102" y="1259" name="Top2"/>
  <outline>
    <contour>
      <point x="1021" y="614" type="line"/>
      <point x="1710" y="614" type="line"/>
      <point x="1691" y="789" type="line"/>
      <point x="1021" y="789" type="line"/>
    </contour>
    <contour>
      <point x="647" y="103" type="curve" smooth="yes"/>
      <point x="957" y="103"/>
      <point x="1119" y="257"/>
      <point x="1119" y="553" type="curve" smooth="yes"/>
      <point x="1119" y="992" type="line"/>
      <point x="904" y="992" type="line"/>
      <point x="904" y="556" type="line" smooth="yes"/>
      <point x="904" y="371"/>
      <point x="818" y="282"/>
      <point x="647" y="282" type="curve" smooth="yes"/>
      <point x="457" y="282"/>
      <point x="362" y="396"/>
      <point x="362" y="624" type="curve" smooth="yes"/>
      <point x="362" y="638" type="line" smooth="yes"/>
      <point x="362" y="848"/>
      <point x="443" y="1008"/>
      <point x="589" y="1172" type="curve"/>
      <point x="347" y="1172" type="line"/>
      <point x="223" y="1047"/>
      <point x="135" y="866"/>
      <point x="135" y="634" type="curve" smooth="yes"/>
      <point x="135" y="621" type="line" smooth="yes"/>
      <point x="135" y="278"/>
      <point x="309" y="103"/>
    </contour>
    <contour>
      <point x="2156" y="-96" type="curve" smooth="yes"/>
      <point x="2341" y="-96"/>
      <point x="2515" y="-69"/>
      <point x="2647" y="-19" type="curve"/>
      <point x="2667" y="166" type="line"/>
      <point x="2530" y="114"/>
      <point x="2355" y="84"/>
      <point x="2168" y="84" type="curve" smooth="yes"/>
      <point x="1859" y="84"/>
      <point x="1687" y="181"/>
      <point x="1687" y="375" type="curve" smooth="yes"/>
      <point x="1687" y="415"/>
      <point x="1688" y="447"/>
      <point x="1697" y="484" type="curve"/>
      <point x="1480" y="484" type="line"/>
      <point x="1467" y="439"/>
      <point x="1460" y="391"/>
      <point x="1460" y="339" type="curve" smooth="yes"/>
      <point x="1460" y="52"/>
      <point x="1700" y="-96"/>
    </contour>
    <contour>
      <point x="2410" y="296" type="curve"/>
      <point x="2615" y="296" type="line"/>
      <point x="2654" y="339"/>
      <point x="2678" y="408"/>
      <point x="2678" y="468" type="curve" smooth="yes"/>
      <point x="2678" y="657"/>
      <point x="2549" y="718"/>
      <point x="2322" y="724" type="curve" smooth="yes"/>
      <point x="1981" y="733" type="line" smooth="yes"/>
      <point x="1812" y="737"/>
      <point x="1740" y="775"/>
      <point x="1740" y="860" type="curve" smooth="yes"/>
      <point x="1740" y="863" type="line" smooth="yes"/>
      <point x="1740" y="969"/>
      <point x="1843" y="1028"/>
      <point x="2083" y="1028" type="curve" smooth="yes"/>
      <point x="2279" y="1028"/>
      <point x="2451" y="986"/>
      <point x="2580" y="930" type="curve"/>
      <point x="2554" y="1113" type="line"/>
      <point x="2448" y="1161"/>
      <point x="2283" y="1204"/>
      <point x="2072" y="1204" type="curve" smooth="yes"/>
      <point x="1702" y="1204"/>
      <point x="1513" y="1091"/>
      <point x="1513" y="863" type="curve" smooth="yes"/>
      <point x="1513" y="858" type="line" smooth="yes"/>
      <point x="1513" y="651"/>
      <point x="1664" y="565"/>
      <point x="1945" y="558" type="curve" smooth="yes"/>
      <point x="2233" y="551" type="line" smooth="yes"/>
      <point x="2384" y="547"/>
      <point x="2453" y="519"/>
      <point x="2453" y="415" type="curve" smooth="yes"/>
      <point x="2453" y="374"/>
      <point x="2439" y="337"/>
    </contour>
  </outline>
</glyph>
<glyph name="BaHalf.gj" format="2">
  <advance width="1378"/>
  <outline>
    <contour>
      <point x="1021" y="517" type="line"/>
      <point x="1565" y="517" type="line"/>
      <point x="1546" y="692" type="line"/>
      <point x="1021" y="692" type="line"/>
    </contour>
    <contour>
      <point x="647" y="103" type="curve" smooth="yes"/>
      <point x="957" y="103"/>
      <point x="1119" y="257"/>
      <point x="1119" y="553" type="curve" smooth="yes"/>
      <point x="1119" y="992" type="line"/>
      <point x="904" y="992" type="line"/>
      <point x="904" y="556" type="line" smooth="yes"/>
      <point x="904" y="371"/>
      <point x="818" y="282"/>
      <point x="647" y="282" type="curve" smooth="yes"/>
      <point x="457" y="282"/>
      <point x="362" y="396"/>
      <point x="362" y="624" type="curve" smooth="yes"/>
      <point x="362" y="638" type="line" smooth="yes"/>
      <point x="362" y="848"/>
      <point x="443" y="1008"/>
      <point x="589" y="1172" type="curve"/>
      <point x="347" y="1172" type="line"/>
      <point x="223" y="1047"/>
      <point x="135" y="866"/>
      <point x="135" y="634" type="curve" smooth="yes"/>
      <point x="135" y="621" type="line" smooth="yes"/>
      <point x="135" y="278"/>
      <point x="309" y="103"/>
    </contour>
  </outline>
</glyph>
<glyph name="BaHalf_alt.gj" format="2">
  <advance width="1378"/>
  <outline>
    <contour>
      <point x="1021" y="527" type="line"/>
      <point x="1565" y="527" type="line"/>
      <point x="1546" y="702" type="line"/>
      <point x="1021" y="702" type="line"/>
    </contour>
    <contour>
      <point x="647" y="114" type="curve" smooth="yes"/>
      <point x="957" y="114"/>
      <point x="1119" y="268"/>
      <point x="1119" y="563" type="curve" smooth="yes"/>
      <point x="1119" y="994" type="line"/>
      <point x="904" y="994" type="line"/>
      <point x="904" y="566" type="line" smooth="yes"/>
      <point x="904" y="382"/>
      <point x="818" y="293"/>
      <point x="647" y="293" type="curve" smooth="yes"/>
      <point x="457" y="293"/>
      <point x="362" y="406"/>
      <point x="362" y="630" type="curve" smooth="yes"/>
      <point x="362" y="643" type="line" smooth="yes"/>
      <point x="362" y="851"/>
      <point x="443" y="1010"/>
      <point x="589" y="1172" type="curve"/>
      <point x="347" y="1172" type="line"/>
      <point x="223" y="1048"/>
      <point x="135" y="869"/>
      <point x="135" y="639" type="curve" smooth="yes"/>
      <point x="135" y="627" type="line" smooth="yes"/>
      <point x="135" y="288"/>
      <point x="309" y="114"/>
    </contour>
  </outline>
</glyph>
<glyph name="BaJaYa.gj" format="2">
  <advance width="4749"/>
  <anchor x="4405" y="-87" name="Bottom"/>
  <anchor x="4385" y="1259" name="Top"/>
  <anchor x="4436" y="1259" name="Top2"/>
  <outline>
    <contour>
      <point x="1021" y="566" type="line"/>
      <point x="1633" y="566" type="line"/>
      <point x="1614" y="741" type="line"/>
      <point x="1021" y="741" type="line"/>
    </contour>
    <contour>
      <point x="647" y="103" type="curve" smooth="yes"/>
      <point x="957" y="103"/>
      <point x="1119" y="257"/>
      <point x="1119" y="553" type="curve" smooth="yes"/>
      <point x="1119" y="992" type="line"/>
      <point x="904" y="992" type="line"/>
      <point x="904" y="556" type="line" smooth="yes"/>
      <point x="904" y="371"/>
      <point x="818" y="282"/>
      <point x="647" y="282" type="curve" smooth="yes"/>
      <point x="457" y="282"/>
      <point x="362" y="396"/>
      <point x="362" y="624" type="curve" smooth="yes"/>
      <point x="362" y="638" type="line" smooth="yes"/>
      <point x="362" y="848"/>
      <point x="443" y="1008"/>
      <point x="589" y="1172" type="curve"/>
      <point x="347" y="1172" type="line"/>
      <point x="223" y="1047"/>
      <point x="135" y="866"/>
      <point x="135" y="634" type="curve" smooth="yes"/>
      <point x="135" y="621" type="line" smooth="yes"/>
      <point x="135" y="278"/>
      <point x="309" y="103"/>
    </contour>
    <contour>
      <point x="1697" y="354" type="line"/>
      <point x="1697" y="844" type="line" smooth="yes"/>
      <point x="1697" y="975"/>
      <point x="1756" y="1030"/>
      <point x="1846" y="1030" type="curve" smooth="yes"/>
      <point x="1935" y="1030"/>
      <point x="1995" y="987"/>
      <point x="2121" y="894" type="curve" smooth="yes"/>
      <point x="2429" y="668" type="line"/>
      <point x="2625" y="748" type="line"/>
      <point x="2274" y="1015" type="line" smooth="yes"/>
      <point x="2112" y="1140"/>
      <point x="2006" y="1204"/>
      <point x="1836" y="1204" type="curve" smooth="yes"/>
      <point x="1612" y="1204"/>
      <point x="1482" y="1084"/>
      <point x="1482" y="848" type="curve" smooth="yes"/>
      <point x="1482" y="398" type="line"/>
    </contour>
    <contour>
      <point x="2480" y="-26" type="curve" smooth="yes"/>
      <point x="2809" y="-26"/>
      <point x="2990" y="90"/>
      <point x="2990" y="309" type="curve" smooth="yes"/>
      <point x="2990" y="314" type="line" smooth="yes"/>
      <point x="2990" y="483"/>
      <point x="2902" y="570"/>
      <point x="2741" y="680" type="curve" smooth="yes"/>
      <point x="2623" y="761" type="line"/>
      <point x="2429" y="682" type="line"/>
      <point x="2585" y="576" type="line" smooth="yes"/>
      <point x="2697" y="501"/>
      <point x="2763" y="448"/>
      <point x="2763" y="339" type="curve" smooth="yes"/>
      <point x="2763" y="335" type="line" smooth="yes"/>
      <point x="2763" y="211"/>
      <point x="2663" y="146"/>
      <point x="2480" y="146" type="curve" smooth="yes"/>
      <point x="2292" y="146"/>
      <point x="2190" y="211"/>
      <point x="2190" y="335" type="curve" smooth="yes"/>
      <point x="2190" y="339" type="line" smooth="yes"/>
      <point x="2190" y="448"/>
      <point x="2262" y="507"/>
      <point x="2374" y="580" type="curve" smooth="yes"/>
      <point x="2553" y="698" type="line"/>
      <point x="2415" y="818" type="line"/>
      <point x="2220" y="684" type="line" smooth="yes"/>
      <point x="2060" y="573"/>
      <point x="1963" y="485"/>
      <point x="1963" y="316" type="curve" smooth="yes"/>
      <point x="1963" y="311" type="line" smooth="yes"/>
      <point x="1963" y="91"/>
      <point x="2147" y="-26"/>
    </contour>
    <contour>
      <point x="2683" y="636" type="line"/>
      <point x="3317" y="636" type="line"/>
      <point x="3299" y="798" type="line"/>
      <point x="2803" y="798" type="line"/>
      <point x="2339" y="780" type="line"/>
      <point x="2339" y="660" type="line"/>
    </contour>
    <contour>
      <point x="3816" y="76" type="curve" smooth="yes"/>
      <point x="4122" y="76"/>
      <point x="4274" y="182"/>
      <point x="4321" y="309" type="curve"/>
      <point x="4341" y="309" type="line"/>
      <point x="4334" y="497" type="line"/>
      <point x="4284" y="345"/>
      <point x="4112" y="255"/>
      <point x="3850" y="255" type="curve" smooth="yes"/>
      <point x="3564" y="255"/>
      <point x="3393" y="366"/>
      <point x="3393" y="563" type="curve" smooth="yes"/>
      <point x="3393" y="587"/>
      <point x="3394" y="596"/>
      <point x="3397" y="620" type="curve"/>
      <point x="3350" y="501" type="line"/>
      <point x="3543" y="501" type="line" smooth="yes"/>
      <point x="3814" y="501"/>
      <point x="3972" y="624"/>
      <point x="3972" y="848" type="curve" smooth="yes"/>
      <point x="3972" y="862" type="line" smooth="yes"/>
      <point x="3972" y="1084"/>
      <point x="3806" y="1204"/>
      <point x="3551" y="1204" type="curve" smooth="yes"/>
      <point x="3417" y="1204"/>
      <point x="3310" y="1178"/>
      <point x="3231" y="1140" type="curve"/>
      <point x="3213" y="964" type="line"/>
      <point x="3294" y="1002"/>
      <point x="3403" y="1031"/>
      <point x="3511" y="1031" type="curve" smooth="yes"/>
      <point x="3665" y="1031"/>
      <point x="3750" y="972"/>
      <point x="3750" y="858" type="curve" smooth="yes"/>
      <point x="3750" y="848" type="line" smooth="yes"/>
      <point x="3750" y="720"/>
      <point x="3645" y="666"/>
      <point x="3455" y="666" type="curve" smooth="yes"/>
      <point x="3187" y="666" type="line"/>
      <point x="3182" y="634"/>
      <point x="3179" y="606"/>
      <point x="3179" y="575" type="curve" smooth="yes"/>
      <point x="3179" y="258"/>
      <point x="3418" y="76"/>
    </contour>
    <contour>
      <point x="4329" y="481" type="line"/>
      <point x="4544" y="481" type="line"/>
      <point x="4544" y="1172" type="line"/>
      <point x="4329" y="1172" type="line"/>
    </contour>
    <contour>
      <point x="4329" y="0" type="line"/>
      <point x="4544" y="0" type="line"/>
      <point x="4544" y="590" type="line"/>
      <point x="4329" y="590" type="line"/>
    </contour>
  </outline>
</glyph>
<glyph name="BaJha.gj" format="2">
  <advance width="3199"/>
  <anchor x="2674" y="-87" name="Bottom"/>
  <anchor x="2802" y="1259" name="Top"/>
  <anchor x="2937" y="1259" name="Top2"/>
  <outline>
    <contour>
      <point x="1021" y="535" type="line"/>
      <point x="1565" y="535" type="line"/>
      <point x="1546" y="710" type="line"/>
      <point x="1021" y="710" type="line"/>
    </contour>
    <contour>
      <point x="647" y="103" type="curve" smooth="yes"/>
      <point x="957" y="103"/>
      <point x="1119" y="257"/>
      <point x="1119" y="553" type="curve" smooth="yes"/>
      <point x="1119" y="992" type="line"/>
      <point x="904" y="992" type="line"/>
      <point x="904" y="556" type="line" smooth="yes"/>
      <point x="904" y="371"/>
      <point x="818" y="282"/>
      <point x="647" y="282" type="curve" smooth="yes"/>
      <point x="457" y="282"/>
      <point x="362" y="396"/>
      <point x="362" y="624" type="curve" smooth="yes"/>
      <point x="362" y="638" type="line" smooth="yes"/>
      <point x="362" y="848"/>
      <point x="443" y="1008"/>
      <point x="589" y="1172" type="curve"/>
      <point x="347" y="1172" type="line"/>
      <point x="223" y="1047"/>
      <point x="135" y="866"/>
      <point x="135" y="634" type="curve" smooth="yes"/>
      <point x="135" y="621" type="line" smooth="yes"/>
      <point x="135" y="278"/>
      <point x="309" y="103"/>
    </contour>
    <contour>
      <point x="1799" y="111" type="curve" smooth="yes"/>
      <point x="2140" y="111"/>
      <point x="2350" y="288"/>
      <point x="2350" y="655" type="curve" smooth="yes"/>
      <point x="2350" y="665" type="line" smooth="yes"/>
      <point x="2350" y="1028"/>
      <point x="2138" y="1204"/>
      <point x="1795" y="1204" type="curve" smooth="yes"/>
      <point x="1646" y="1204"/>
      <point x="1533" y="1166"/>
      <point x="1459" y="1127" type="curve"/>
      <point x="1441" y="945" type="line"/>
      <point x="1522" y="987"/>
      <point x="1634" y="1026"/>
      <point x="1774" y="1026" type="curve" smooth="yes"/>
      <point x="2000" y="1026"/>
      <point x="2123" y="898"/>
      <point x="2123" y="665" type="curve" smooth="yes"/>
      <point x="2123" y="655" type="line" smooth="yes"/>
      <point x="2123" y="421"/>
      <point x="2003" y="291"/>
      <point x="1780" y="291" type="curve" smooth="yes"/>
      <point x="1626" y="291"/>
      <point x="1514" y="332"/>
      <point x="1423" y="379" type="curve"/>
      <point x="1443" y="190" type="line"/>
      <point x="1515" y="151"/>
      <point x="1635" y="111"/>
    </contour>
    <contour>
      <point x="2644" y="-25" type="curve" smooth="yes"/>
      <point x="2942" y="-25"/>
      <point x="3092" y="105"/>
      <point x="3092" y="348" type="curve" smooth="yes"/>
      <point x="3092" y="353" type="line" smooth="yes"/>
      <point x="3092" y="613"/>
      <point x="2931" y="743"/>
      <point x="2614" y="743" type="curve"/>
      <point x="2500" y="750" type="line"/>
      <point x="2310" y="750" type="line"/>
      <point x="2310" y="581" type="line"/>
      <point x="2573" y="581" type="line" smooth="yes"/>
      <point x="2778" y="581"/>
      <point x="2874" y="515"/>
      <point x="2874" y="362" type="curve" smooth="yes"/>
      <point x="2874" y="356" type="line" smooth="yes"/>
      <point x="2874" y="222"/>
      <point x="2791" y="147"/>
      <point x="2630" y="147" type="curve" smooth="yes"/>
      <point x="2526" y="147"/>
      <point x="2441" y="173"/>
      <point x="2379" y="199" type="curve"/>
      <point x="2399" y="23" type="line"/>
      <point x="2455" y="1"/>
      <point x="2537" y="-25"/>
    </contour>
    <contour>
      <point x="2571" y="679" type="line"/>
      <point x="2633" y="721"/>
      <point x="2686" y="766"/>
      <point x="2742" y="825" type="curve" smooth="yes"/>
      <point x="3073" y="1160" type="line"/>
      <point x="3073" y="1172" type="line"/>
      <point x="2782" y="1172" type="line"/>
      <point x="2389" y="706" type="line"/>
    </contour>
  </outline>
</glyph>
